<svg width="107" height="59" viewBox="0 0 107 59" fill="none" xmlns="http://www.w3.org/2000/svg">
<path d="M39.4583 45.8013C51.5933 38.7187 57.5163 26.2704 52.6877 17.9973C47.8591 9.72415 34.1073 8.75904 21.9723 15.8417C9.83724 22.9243 3.91422 35.3726 8.74284 43.6457C13.5715 51.9189 27.3232 52.884 39.4583 45.8013Z" fill="#BBBDBF" stroke="#231F20" stroke-width="2.19861" stroke-miterlimit="10"/>
<path d="M103.986 25.5585C105.578 16.054 95.7118 6.48001 81.9493 4.17448C68.1867 1.86894 55.7392 7.70489 54.147 17.2094C52.5547 26.714 62.4208 36.288 76.1833 38.5935C89.9459 40.899 102.393 35.063 103.986 25.5585Z" fill="#BBBDBF" stroke="#231F20" stroke-width="2.19861" stroke-miterlimit="10"/>
<path d="M56.6896 21.0255C56.0963 21.5838 55.2587 21.7932 54.456 21.6187C49.1166 20.4671 46.5341 17.745 45.2428 14.988C44.5448 13.5223 44.6146 10.5908 46.4992 9.8579C51.1407 8.00827 53.8628 13.5572 53.8628 13.5572C53.8628 13.5572 54.4561 7.20561 58.609 7.5197C61.1217 7.69419 61.9243 10.6606 61.7498 12.1612C61.2264 16.8725 58.2949 19.5597 56.6896 21.0255Z" fill="#01AA84"/>
</svg>
