<svg width="62" height="27" viewBox="0 0 62 27" fill="none" xmlns="http://www.w3.org/2000/svg">
<path d="M52.2155 16.6869L46.1432 6.25217C45.5499 5.24011 46.1083 3.94886 47.2599 3.63477C51.4478 4.26294 54.798 3.63478 57.0664 1.19188C59.4395 0.598602 61.4637 3.00659 60.4516 5.2401L55.3913 16.5124C54.798 17.8385 52.9833 17.9083 52.2505 16.6869H52.2155Z" fill="white" stroke="#231F20" stroke-width="2.19861" stroke-miterlimit="10"/>
<path d="M12.8158 24.4343L15.8171 12.7083C16.0963 11.5567 15.2238 10.4748 14.0373 10.5097C10.1635 12.2547 6.77836 12.5687 3.95157 10.8587C1.50867 10.9285 0.217409 13.7902 1.78785 15.6747L9.74472 25.1323C10.6521 26.249 12.4668 25.8302 12.8158 24.4343Z" fill="white" stroke="#231F20" stroke-width="2.19861" stroke-miterlimit="10"/>
</svg>
