<?xml version="1.0" encoding="UTF-8"?>
<svg version="1.1" xmlns="http://www.w3.org/2000/svg" width="664" height="567">
<path d="M0 0 C0.79936981 -0.0010675 1.59873962 -0.00213501 2.42233276 -0.00323486 C24.12605231 0.03819215 45.04553271 3.35533775 65.69140625 10.203125 C71.35171916 12.05445085 74.59228749 12.71807081 80.375 10.6875 C96.3196908 5.45706227 122.30983106 -1.08140132 138.3359375 6.98828125 C156.82584361 19.37051079 161.32534385 38.95878734 165.41015625 59.59375 C166.39445467 65.1364329 166.84215827 70.62157441 167.18000793 76.23666382 C168.20675332 93.15518422 171.9463922 105.5839062 180.09960938 120.66992188 C185.99208801 132.31516905 188.54056557 145.62806298 190.5 158.4375 C190.63148438 159.21609375 190.76296875 159.9946875 190.8984375 160.796875 C193.3019318 177.55637579 191.41512025 195.30308353 186.5 211.4375 C187.7353809 210.88878243 188.96302025 210.32263101 190.1875 209.75 C190.87199219 209.43675781 191.55648437 209.12351563 192.26171875 208.80078125 C195.11497593 207.06293351 197.14397592 204.80062053 199.5 202.4375 C214.02598628 191.80423219 230.45995219 186.07779364 248.5 187.4375 C253.3479977 188.70376805 255.82701394 190.59195341 258.9375 194.5 C263.42034026 202.92773968 262.20056564 212.39390208 259.625 221.3125 C254.26281577 238.70607259 246.27427389 255.12669106 236.5 270.4375 C235.84515625 271.47648437 235.1903125 272.51546875 234.515625 273.5859375 C224.14212555 289.57484367 212.16135552 304.56148205 199.203125 318.515625 C196.68786683 321.23443008 194.21374701 323.98456969 191.75 326.75 C181.59671982 338.01547695 170.0602688 347.90942022 157.5 356.4375 C156.84 356.4375 156.18 356.4375 155.5 356.4375 C155.29375 357.57316406 155.0875 358.70882813 154.875 359.87890625 C153.15372769 367.59604408 150.21565152 374.96508507 147.5 382.375 C146.91446637 383.98591278 146.32918243 385.59691635 145.74414062 387.20800781 C141.87712009 397.82554281 137.85832246 408.37672655 133.74365234 418.90087891 C131.64489393 424.30938366 129.74350565 429.67974151 128.125 435.25 C124.68970881 446.82866132 119.65320086 457.89958965 114.9440918 469.00683594 C113.99148995 471.26988938 113.05251437 473.53873356 112.12817383 475.81347656 C111.70044678 476.8650293 111.27271973 477.91658203 110.83203125 479 C110.46053955 479.92425781 110.08904785 480.84851563 109.70629883 481.80078125 C104.00321621 494.2665356 93.12765239 505.10675287 80.5 510.4375 C77.22124044 511.41776662 73.90519066 512.08144046 70.546875 512.73046875 C69.52982483 512.9354599 68.51277466 513.14045105 67.46490479 513.35165405 C59.11252418 515.00305541 50.72849258 516.46786496 42.34106445 517.9282074 C36.30007095 518.98063039 30.26388417 520.0596578 24.22871399 521.14493465 C19.75923842 521.94632168 15.28778433 522.72830497 10.80859375 523.47363281 C6.40233316 524.20787951 2.00705201 524.99005166 -2.38481903 525.80581284 C-4.0419012 526.10471889 -5.70222674 526.38622122 -7.36536407 526.64935684 C-12.33817349 527.44167643 -16.92752862 528.27719182 -21.5 530.4375 C-24.01073419 533.96568463 -24.73828228 537.23444514 -25.5 541.4375 C-28.62668925 547.15179415 -33.20599711 552.33949904 -39.5 554.4375 C-48.42795538 555.33029554 -54.96881893 551.15540363 -61.8125 545.90234375 C-63.5 544.4375 -63.5 544.4375 -65.3125 542 C-69.92107887 538.70815795 -77.18492588 541.20089186 -82.51635742 542.08569336 C-86.29656971 542.73887947 -90.0651141 543.44719792 -93.83178711 544.17407227 C-96.16345631 544.62039759 -98.49833154 545.04579293 -100.83398438 545.47070312 C-109.25729743 547.05744635 -117.05663571 549.19740548 -125.03092957 552.34461975 C-143.29473442 559.52123564 -164.97960707 558.1755897 -183.5 552.4375 C-184.16757324 552.23382812 -184.83514648 552.03015625 -185.52294922 551.8203125 C-201.6402998 546.73186272 -216.46689686 538.12464458 -229.5 527.4375 C-230.06170898 526.98648926 -230.62341797 526.53547852 -231.20214844 526.07080078 C-255.06178426 506.85162332 -267.36578971 483.51482807 -271.5 453.4375 C-279.02998081 457.95548849 -282.69036401 463.83115385 -285.875 471.9375 C-286.88935064 477.61786358 -287.50547735 483.02435435 -285.25 488.4375 C-283.33170963 490.62983185 -282.21490964 491.4240577 -279.5 492.4375 C-276.44183002 492.46416098 -276.44183002 492.46416098 -273.25 492.0625 C-272.17234375 491.95164062 -271.0946875 491.84078125 -269.984375 491.7265625 C-268.75460937 491.58347656 -268.75460937 491.58347656 -267.5 491.4375 C-267.14808594 492.45328125 -266.79617188 493.4690625 -266.43359375 494.515625 C-257.18477726 520.59754211 -240.16786481 538.07871082 -215.5 550.4375 C-188.4115865 562.83778802 -158.41365086 568.20586341 -129.75 558.1875 C-128.82703125 557.83171875 -127.9040625 557.4759375 -126.953125 557.109375 C-124.32315789 556.38906554 -123.02893989 556.51573686 -120.5 557.4375 C-122.76337127 560.02588435 -124.60660826 561.03265378 -127.88671875 562.0078125 C-128.74330078 562.26433594 -129.59988281 562.52085937 -130.48242188 562.78515625 C-131.37509766 563.04167969 -132.26777344 563.29820312 -133.1875 563.5625 C-134.49750977 563.95888672 -134.49750977 563.95888672 -135.83398438 564.36328125 C-165.47350737 573.08469429 -197.75784926 564.58497962 -224.3125 550.4453125 C-244.63695709 539.13373723 -262.64325001 521.15048433 -269.5 498.4375 C-269.5 497.4475 -269.5 496.4575 -269.5 495.4375 C-269.995 495.6025 -270.49 495.7675 -271 495.9375 C-276.2574282 496.98898564 -280.02355681 497.16179289 -284.8125 494.8125 C-288.62690725 491.44162848 -290.20984719 488.88409716 -290.81640625 483.76953125 C-291.24296091 473.13318437 -288.09605703 464.68257128 -281.5 456.4375 C-282.304375 455.81875 -283.10875 455.2 -283.9375 454.5625 C-286.66385004 452.30162436 -287.3789693 451.59820422 -287.73828125 448.15234375 C-287.92405759 441.20039771 -286.67500473 436.55799106 -283.5 430.4375 C-282.22263822 426.60541467 -283.03704607 425.67317047 -284.6875 422.0625 C-291.57160177 406.10735806 -294.31731647 389.45504555 -296.875 372.37109375 C-300.3872279 337.08086086 -300.3872279 337.08086086 -318.125 308 C-325.08557239 303.32802048 -335.07041314 299.89791904 -343.5 301.4375 C-349.31123539 302.92476998 -355.00878916 304.69781271 -360.5 307.125 C-367.76665959 310.30416357 -374.77451524 310.18933937 -382.16796875 307.46875 C-391.70486834 303.25142757 -396.5773633 297.33870904 -401.1328125 288.140625 C-403.99056872 280.40018815 -403.96869237 270.53955563 -400.5625 262.9375 C-396.85502725 256.70220493 -391.62611678 251.7537597 -384.9375 248.9375 C-384.133125 248.7725 -383.32875 248.6075 -382.5 248.4375 C-382.726875 247.591875 -382.95375 246.74625 -383.1875 245.875 C-383.5835919 241.51798908 -382.55536703 239.26473516 -380.5 235.4375 C-378.10105093 232.6750738 -376.27728885 230.65432924 -372.546875 230.19921875 C-366.77366905 230.01266958 -364.33715505 231.13943974 -359.5 234.4375 C-356.95704762 233.67040201 -356.95704762 233.67040201 -354.5 232.4375 C-351.27542937 232.75995706 -348.57265853 233.41328049 -345.5 234.4375 C-344.84 234.1075 -344.18 233.7775 -343.5 233.4375 C-340.5625 233.125 -340.5625 233.125 -337.5 233.4375 C-337.0978125 234.07558594 -336.695625 234.71367187 -336.28125 235.37109375 C-333.67958935 238.38924832 -330.69650725 238.3565295 -326.9375 238.8125 C-306.25224505 241.95383289 -288.01424447 250.31111127 -272.5 264.4375 C-271.73429688 265.11039062 -270.96859375 265.78328125 -270.1796875 266.4765625 C-253.7333121 281.77684902 -246.03932053 302.93765653 -241.00488281 324.30224609 C-240.20402394 327.68924403 -239.34860595 331.06218896 -238.5 334.4375 C-231.09812605 329.05431894 -225.7087675 321.49917313 -219.9765625 314.45703125 C-217.21880718 311.09465765 -214.43015249 307.76034758 -211.625 304.4375 C-211.16061523 303.88553955 -210.69623047 303.3335791 -210.21777344 302.76489258 C-208.06690238 300.22341893 -205.91084814 297.73658697 -203.5 295.4375 C-202.51 295.7675 -201.52 296.0975 -200.5 296.4375 C-201.79434348 299.32345246 -203.10047157 301.1983178 -205.4375 303.3125 C-208.87560164 306.63694538 -211.78487797 310.27422729 -214.6875 314.0625 C-220.21757585 321.25159861 -226.22621031 327.89336871 -232.5 334.4375 C-233.23347656 335.21867187 -233.96695313 335.99984375 -234.72265625 336.8046875 C-236.5 338.4375 -236.5 338.4375 -238.5 338.4375 C-237.84 342.3975 -237.18 346.3575 -236.5 350.4375 C-235.84 350.4375 -235.18 350.4375 -234.5 350.4375 C-232.89856984 348.53334202 -231.41101986 346.62483672 -229.9375 344.625 C-229.0273195 343.41700489 -228.1158397 342.20998776 -227.203125 341.00390625 C-226.51766602 340.09535889 -226.51766602 340.09535889 -225.81835938 339.16845703 C-215.37259568 325.45355618 -203.73955991 312.60485597 -191.9140625 300.078125 C-189.68982003 297.71949859 -187.4980922 295.3375237 -185.3359375 292.921875 C-170.13045606 275.98098535 -170.13045606 275.98098535 -162.5 273.4375 C-163.49948412 272.29121665 -164.49963131 271.14551147 -165.5 270 C-166.14066406 269.26265625 -166.78132812 268.5253125 -167.44140625 267.765625 C-168.75890499 266.27562642 -170.09839042 264.80460993 -171.46484375 263.359375 C-195.28305383 237.89039789 -200.24839206 203.66405467 -199.65136719 170.24755859 C-199.50096289 167.45537552 -199.09492916 164.78672771 -198.65625 162.02734375 C-198.24792742 158.24357967 -198.24851838 157.77709197 -200.640625 154.546875 C-201.66671875 153.76828125 -202.6928125 152.9896875 -203.75 152.1875 C-204.87073202 151.26943769 -205.98382061 150.34198044 -207.08984375 149.40625 C-207.65944824 148.92671875 -208.22905273 148.4471875 -208.81591797 147.953125 C-222.45130721 135.68167003 -231.73083649 116.25123405 -232.84375 98.03125 C-233.22497028 86.81702012 -231.88419572 78.39744644 -224.55859375 69.625 C-207.56476422 51.56704073 -181.63626294 44.59753744 -157.5 43.4375 C-151.22708021 43.25276613 -145.03584587 43.21577909 -138.80078125 43.98046875 C-127.87626061 45.31427811 -127.87626061 45.31427811 -118.25 40.5625 C-117.32058594 39.72976562 -116.39117187 38.89703125 -115.43359375 38.0390625 C-112.23970902 35.20666938 -108.98292385 33.08416342 -105.3125 30.9375 C-104.68045654 30.56705566 -104.04841309 30.19661133 -103.3972168 29.81494141 C-101.43743623 28.67840157 -99.46938089 27.55730592 -97.5 26.4375 C-96.5399707 25.880625 -96.5399707 25.880625 -95.56054688 25.3125 C-66.61952597 8.62578525 -33.33296565 -0.00954366 0 0 Z M-378.5 237.4375 C-379.93917432 241.05166517 -379.93917432 241.05166517 -380.5 244.4375 C-379.84 245.0975 -379.18 245.7575 -378.5 246.4375 C-377.53578125 246.08816406 -376.5715625 245.73882812 -375.578125 245.37890625 C-374.30211997 244.91916914 -373.02607626 244.45953937 -371.75 244 C-371.11578125 243.76990234 -370.4815625 243.53980469 -369.828125 243.30273438 C-366.74587924 242.19505231 -363.70163562 241.14088964 -360.5 240.4375 C-361.89187719 237.07379679 -363.29431396 235.21843669 -366.5 233.4375 C-371.69808338 232.64648731 -374.60265228 233.9830327 -378.5 237.4375 Z M-353.5 235.4375 C-355.27190909 236.79194301 -355.27190909 236.79194301 -356.5 238.4375 C-353.8333581 239.77082095 -352.33319697 239.10852033 -349.5 238.4375 C-349.5 237.7775 -349.5 237.1175 -349.5 236.4375 C-351.33700789 235.66507731 -351.33700789 235.66507731 -353.5 235.4375 Z M-342.5 236.4375 C-342.83 237.0975 -343.16 237.7575 -343.5 238.4375 C-341.85 238.4375 -340.2 238.4375 -338.5 238.4375 C-338.5 237.7775 -338.5 237.1175 -338.5 236.4375 C-339.82 236.4375 -341.14 236.4375 -342.5 236.4375 Z M-280.5 431.4375 C-284.06695496 437.02055993 -285.3134336 441.82157337 -284.5 448.4375 C-283.16169042 450.8970774 -283.16169042 450.8970774 -281.5 452.4375 C-275.94946714 451.69390327 -275.94946714 451.69390327 -270.5 450.4375 C-271.01307421 445.68629227 -272.30157321 442.65509043 -274.9375 438.6875 C-275.55496094 437.74390625 -276.17242187 436.8003125 -276.80859375 435.828125 C-278.42714696 433.39779776 -278.42714696 433.39779776 -280.5 431.4375 Z " fill="#D8D7DB" transform="translate(402.5,-0.4375)"/>
<path d="M0 0 C4.02225076 3.3898866 6.23044162 7.6292124 6.7890625 12.81640625 C7.56874839 36.50686219 -6.08325027 60.85173184 -18.484375 80.27734375 C-19.13921875 81.31632812 -19.7940625 82.3553125 -20.46875 83.42578125 C-30.84224945 99.41468742 -42.82301948 114.4013258 -55.78125 128.35546875 C-58.29650817 131.07427383 -60.77062799 133.82441344 -63.234375 136.58984375 C-73.38765518 147.8553207 -84.9241062 157.74926397 -97.484375 166.27734375 C-98.144375 166.27734375 -98.804375 166.27734375 -99.484375 166.27734375 C-99.690625 167.41300781 -99.896875 168.54867187 -100.109375 169.71875 C-101.83064731 177.43588783 -104.76872348 184.80492882 -107.484375 192.21484375 C-108.06990863 193.82575653 -108.65519257 195.4367601 -109.24023438 197.04785156 C-113.10725491 207.66538656 -117.12605254 218.2165703 -121.24072266 228.74072266 C-123.33948107 234.14922741 -125.24086935 239.51958526 -126.859375 245.08984375 C-130.29466619 256.66850507 -135.33117414 267.7394334 -140.0402832 278.84667969 C-140.99288505 281.10973313 -141.93186063 283.37857731 -142.85620117 285.65332031 C-143.28392822 286.70487305 -143.71165527 287.75642578 -144.15234375 288.83984375 C-144.52383545 289.76410156 -144.89532715 290.68835938 -145.27807617 291.640625 C-150.98115879 304.10637935 -161.85672261 314.94659662 -174.484375 320.27734375 C-177.76313456 321.25761037 -181.07918434 321.92128421 -184.4375 322.5703125 C-185.45455017 322.77530365 -186.47160034 322.9802948 -187.51947021 323.1914978 C-195.87185082 324.84289916 -204.25588242 326.30770871 -212.64331055 327.76805115 C-218.68430405 328.82047414 -224.72049083 329.89950155 -230.75566101 330.9847784 C-235.22513658 331.78616543 -239.69659067 332.56814872 -244.17578125 333.31347656 C-248.58204184 334.04772326 -252.97732299 334.82989541 -257.36919403 335.64565659 C-259.0262762 335.94456264 -260.68660174 336.22606497 -262.34973907 336.48920059 C-267.32254849 337.28152018 -271.91190362 338.11703557 -276.484375 340.27734375 C-278.99510919 343.80552838 -279.72265728 347.07428889 -280.484375 351.27734375 C-283.61106425 356.9916379 -288.19037211 362.17934279 -294.484375 364.27734375 C-303.41233038 365.17013929 -309.95319393 360.99524738 -316.796875 355.7421875 C-318.484375 354.27734375 -318.484375 354.27734375 -320.296875 351.83984375 C-324.90545387 348.5480017 -332.16930088 351.04073561 -337.50073242 351.92553711 C-341.28094471 352.57872322 -345.0494891 353.28704167 -348.81616211 354.01391602 C-351.14783131 354.46024134 -353.48270654 354.88563668 -355.81835938 355.31054688 C-364.24167243 356.8972901 -372.04101071 359.03724923 -380.01530457 362.1844635 C-398.27910942 369.36107939 -419.96398207 368.01543345 -438.484375 362.27734375 C-439.15194824 362.07367187 -439.81952148 361.87 -440.50732422 361.66015625 C-456.6246748 356.57170647 -471.45127186 347.96448833 -484.484375 337.27734375 C-485.04608398 336.82633301 -485.60779297 336.37532227 -486.18652344 335.91064453 C-510.04615926 316.69146707 -522.35016471 293.35467182 -526.484375 263.27734375 C-534.01435581 267.79533224 -537.67473901 273.6709976 -540.859375 281.77734375 C-541.87372564 287.45770733 -542.48985235 292.8641981 -540.234375 298.27734375 C-538.31608463 300.4696756 -537.19928464 301.26390145 -534.484375 302.27734375 C-531.42620502 302.30400473 -531.42620502 302.30400473 -528.234375 301.90234375 C-527.15671875 301.79148437 -526.0790625 301.680625 -524.96875 301.56640625 C-523.73898437 301.42332031 -523.73898437 301.42332031 -522.484375 301.27734375 C-522.13246094 302.293125 -521.78054688 303.30890625 -521.41796875 304.35546875 C-512.16915226 330.43738586 -495.15223981 347.91855457 -470.484375 360.27734375 C-443.3959615 372.67763177 -413.39802586 378.04570716 -384.734375 368.02734375 C-383.81140625 367.6715625 -382.8884375 367.31578125 -381.9375 366.94921875 C-379.30753289 366.22890929 -378.01331489 366.35558061 -375.484375 367.27734375 C-377.74774627 369.8657281 -379.59098326 370.87249753 -382.87109375 371.84765625 C-384.1559668 372.23244141 -384.1559668 372.23244141 -385.46679688 372.625 C-386.80581055 373.00978516 -386.80581055 373.00978516 -388.171875 373.40234375 C-389.04521484 373.66660156 -389.91855469 373.93085937 -390.81835938 374.203125 C-420.45788237 382.92453804 -452.74222426 374.42482337 -479.296875 360.28515625 C-499.62133209 348.97358098 -517.62762501 330.99032808 -524.484375 308.27734375 C-524.484375 307.28734375 -524.484375 306.29734375 -524.484375 305.27734375 C-524.979375 305.44234375 -525.474375 305.60734375 -525.984375 305.77734375 C-531.2418032 306.82882939 -535.00793181 307.00163664 -539.796875 304.65234375 C-543.61128225 301.28147223 -545.19422219 298.72394091 -545.80078125 293.609375 C-546.22733591 282.97302812 -543.08043203 274.52241503 -536.484375 266.27734375 C-537.28875 265.65859375 -538.093125 265.03984375 -538.921875 264.40234375 C-541.64822504 262.14146811 -542.3633443 261.43804797 -542.72265625 257.9921875 C-542.90843259 251.04024146 -541.65937973 246.39783481 -538.484375 240.27734375 C-537.20701322 236.44525842 -538.02142107 235.51301422 -539.671875 231.90234375 C-546.55597677 215.94720181 -549.30169147 199.2948893 -551.859375 182.2109375 C-555.3716029 146.92070461 -555.3716029 146.92070461 -573.109375 117.83984375 C-580.06994739 113.16786423 -590.05478814 109.73776279 -598.484375 111.27734375 C-604.29561039 112.76461373 -609.99316416 114.53765646 -615.484375 116.96484375 C-622.75103459 120.14400732 -629.75889024 120.02918312 -637.15234375 117.30859375 C-646.68924334 113.09127132 -651.5617383 107.17855279 -656.1171875 97.98046875 C-658.97494372 90.2400319 -658.95306737 80.37939938 -655.546875 72.77734375 C-651.83940225 66.54204868 -646.61049178 61.59360345 -639.921875 58.77734375 C-638.7153125 58.52984375 -638.7153125 58.52984375 -637.484375 58.27734375 C-637.71125 57.43171875 -637.938125 56.58609375 -638.171875 55.71484375 C-638.5679669 51.35783283 -637.53974203 49.10457891 -635.484375 45.27734375 C-633.08542593 42.51491755 -631.26166385 40.49417299 -627.53125 40.0390625 C-621.75804405 39.85251333 -619.32153005 40.97928349 -614.484375 44.27734375 C-611.94142262 43.51024576 -611.94142262 43.51024576 -609.484375 42.27734375 C-606.25980437 42.59980081 -603.55703353 43.25312424 -600.484375 44.27734375 C-599.824375 43.94734375 -599.164375 43.61734375 -598.484375 43.27734375 C-595.546875 42.96484375 -595.546875 42.96484375 -592.484375 43.27734375 C-591.88109375 44.23447266 -591.88109375 44.23447266 -591.265625 45.2109375 C-588.66396435 48.22909207 -585.68088225 48.19637325 -581.921875 48.65234375 C-561.23662005 51.79367664 -542.99861947 60.15095502 -527.484375 74.27734375 C-526.71867188 74.95023437 -525.95296875 75.623125 -525.1640625 76.31640625 C-508.7176871 91.61669277 -501.02369553 112.77750028 -495.98925781 134.14208984 C-495.18839894 137.52908778 -494.33298095 140.90203271 -493.484375 144.27734375 C-486.08250105 138.89416269 -480.6931425 131.33901688 -474.9609375 124.296875 C-472.20318218 120.9345014 -469.41452749 117.60019133 -466.609375 114.27734375 C-466.14499023 113.7253833 -465.68060547 113.17342285 -465.20214844 112.60473633 C-463.05127738 110.06326268 -460.89522314 107.57643072 -458.484375 105.27734375 C-457.494375 105.60734375 -456.504375 105.93734375 -455.484375 106.27734375 C-456.77871848 109.16329621 -458.08484657 111.03816155 -460.421875 113.15234375 C-463.85997664 116.47678913 -466.76925297 120.11407104 -469.671875 123.90234375 C-475.20195085 131.09144236 -481.21058531 137.73321246 -487.484375 144.27734375 C-488.21785156 145.05851563 -488.95132813 145.8396875 -489.70703125 146.64453125 C-491.484375 148.27734375 -491.484375 148.27734375 -493.484375 148.27734375 C-492.824375 152.23734375 -492.164375 156.19734375 -491.484375 160.27734375 C-490.824375 160.27734375 -490.164375 160.27734375 -489.484375 160.27734375 C-487.88294484 158.37318577 -486.39539486 156.46468047 -484.921875 154.46484375 C-484.0116945 153.25684864 -483.1002147 152.04983151 -482.1875 150.84375 C-481.73052734 150.23805176 -481.27355469 149.63235352 -480.80273438 149.00830078 C-470.35697068 135.29339993 -458.72393491 122.44469972 -446.8984375 109.91796875 C-444.67419503 107.55934234 -442.4824672 105.17736745 -440.3203125 102.76171875 C-423.25896772 83.74980449 -423.25896772 83.74980449 -415.484375 82.27734375 C-413.10939553 83.63713592 -411.26333136 84.9375945 -409.171875 86.65234375 C-389.87568454 101.41052273 -365.72801439 109.00312543 -342.046875 112.96484375 C-340.85255859 113.17689453 -339.65824219 113.38894531 -338.42773438 113.60742188 C-321.89955466 116.42887205 -305.39087721 116.51801466 -288.671875 116.52734375 C-287.03424194 116.52835587 -287.03424194 116.52835587 -285.36352539 116.52938843 C-270.2999254 116.51461857 -255.5885335 116.16793119 -240.68652344 113.78222656 C-237.68126563 113.3083875 -234.67211152 112.87808639 -231.65837097 112.46202087 C-213.08171829 109.89625741 -194.73618577 106.63047499 -176.484375 102.27734375 C-175.36417969 102.01195801 -174.24398438 101.74657227 -173.08984375 101.47314453 C-143.41101577 94.31445376 -114.38710377 82.62386923 -93.19140625 59.89453125 C-91.484375 58.27734375 -91.484375 58.27734375 -89.484375 58.27734375 C-80.07886224 90.8770336 -83.36895621 119.96410204 -94.33544922 151.74365234 C-94.61018066 152.5423877 -94.88491211 153.34112305 -95.16796875 154.1640625 C-95.4198999 154.88166748 -95.67183105 155.59927246 -95.93139648 156.33862305 C-96.62151963 158.42216046 -96.62151963 158.42216046 -96.484375 161.27734375 C-53.34270357 129.36239205 -10.18591544 78.59984844 2.515625 25.27734375 C2.74713952 22.53954993 2.88542527 19.94729952 2.890625 17.21484375 C2.91511719 16.53357422 2.93960938 15.85230469 2.96484375 15.15039062 C2.99425289 10.04790547 1.85261716 7.10975967 -1.484375 3.27734375 C-8.21792694 -0.77449794 -19.27458786 0.44238597 -26.7734375 1.9296875 C-36.09390347 4.85646455 -45.81642553 9.38126102 -53.671875 15.21484375 C-56.484375 17.27734375 -56.484375 17.27734375 -59.484375 17.27734375 C-58.15230965 14.14285333 -56.98105529 12.61945474 -54.0625 10.875 C-53.37317383 10.4617749 -52.68384766 10.0485498 -51.97363281 9.62280273 C-51.23467773 9.19942627 -50.49572266 8.7760498 -49.734375 8.33984375 C-48.97737305 7.900354 -48.22037109 7.46086426 -47.44042969 7.00805664 C-34.54631847 -0.27492847 -14.08311716 -8.60294766 0 0 Z M-633.484375 47.27734375 C-634.92354932 50.89150892 -634.92354932 50.89150892 -635.484375 54.27734375 C-634.824375 54.93734375 -634.164375 55.59734375 -633.484375 56.27734375 C-632.52015625 55.92800781 -631.5559375 55.57867187 -630.5625 55.21875 C-629.28649497 54.75901289 -628.01045126 54.29938312 -626.734375 53.83984375 C-626.10015625 53.60974609 -625.4659375 53.37964844 -624.8125 53.14257812 C-621.73025424 52.03489606 -618.68601062 50.98073339 -615.484375 50.27734375 C-616.87625219 46.91364054 -618.27868896 45.05828044 -621.484375 43.27734375 C-626.68245838 42.48633106 -629.58702728 43.82287645 -633.484375 47.27734375 Z M-608.484375 45.27734375 C-610.25628409 46.63178676 -610.25628409 46.63178676 -611.484375 48.27734375 C-608.8177331 49.6106647 -607.31757197 48.94836408 -604.484375 48.27734375 C-604.484375 47.61734375 -604.484375 46.95734375 -604.484375 46.27734375 C-606.32138289 45.50492106 -606.32138289 45.50492106 -608.484375 45.27734375 Z M-597.484375 46.27734375 C-597.814375 46.93734375 -598.144375 47.59734375 -598.484375 48.27734375 C-596.834375 48.27734375 -595.184375 48.27734375 -593.484375 48.27734375 C-593.484375 47.61734375 -593.484375 46.95734375 -593.484375 46.27734375 C-594.804375 46.27734375 -596.124375 46.27734375 -597.484375 46.27734375 Z M-535.484375 241.27734375 C-539.05132996 246.86040368 -540.2978086 251.66141712 -539.484375 258.27734375 C-538.14606542 260.73692115 -538.14606542 260.73692115 -536.484375 262.27734375 C-530.93384214 261.53374702 -530.93384214 261.53374702 -525.484375 260.27734375 C-525.99744921 255.52613602 -527.28594821 252.49493418 -529.921875 248.52734375 C-530.53933594 247.58375 -531.15679688 246.64015625 -531.79296875 245.66796875 C-533.41152196 243.23764151 -533.41152196 243.23764151 -535.484375 241.27734375 Z " fill="#9AC0D6" transform="translate(657.484375,189.72265625)"/>
<path d="M0 0 C2.68234345 0.68530205 5.00294941 1.58283463 7.51977539 2.72973633 C8.43863525 3.14199463 9.35749512 3.55425293 10.30419922 3.97900391 C11.28155029 4.42010498 12.25890137 4.86120605 13.26586914 5.31567383 C29.65144317 12.56231731 46.33678099 18.30203144 63.70336914 22.69067383 C64.49807617 22.89402344 65.2927832 23.09737305 66.11157227 23.30688477 C83.11311602 27.59405611 100.37422962 30.14900132 117.70336914 32.69067383 C115.70336914 46.69067383 115.70336914 46.69067383 115.08081055 50.53149414 C114.44158801 53.5680887 114.44158801 53.5680887 115.60180664 55.67504883 C116.08907227 56.25770508 116.57633789 56.84036133 117.07836914 57.44067383 C130.44353556 75.89880205 143.5034875 107.69596782 142.70336914 130.69067383 C142.04336914 130.69067383 141.38336914 130.69067383 140.70336914 130.69067383 C140.8694165 131.34624268 141.03546387 132.00181152 141.20654297 132.67724609 C149.93185718 167.75706467 159.93385258 221.67628333 140.76586914 255.06567383 C135.15498204 262.20680286 135.15498204 262.20680286 130.70336914 263.69067383 C122.95329553 264.34745973 118.2397946 262.57550593 112.22290039 257.66723633 C109.66027221 255.39537534 107.17527354 253.06060197 104.70336914 250.69067383 C103.81004883 249.89209961 103.81004883 249.89209961 102.89868164 249.07739258 C88.70413924 235.93555548 77.09023896 215.95391949 68.70336914 198.69067383 C68.70336914 198.03067383 68.70336914 197.37067383 68.70336914 196.69067383 C68.04336914 196.69067383 67.38336914 196.69067383 66.70336914 196.69067383 C74.19107655 213.20465867 84.34520989 228.44636752 95.43774414 242.73364258 C97.70336914 245.69067383 97.70336914 245.69067383 98.70336914 247.69067383 C93.0690197 248.99830441 87.41482541 250.13794832 81.73071289 251.20629883 C79.47018407 251.63742178 77.20991142 252.06986515 74.94970703 252.50268555 C73.42388334 252.79213545 71.89719167 253.07705067 70.36962891 253.35717773 C61.28400684 255.02911294 52.85823995 257.19163178 44.26277161 260.59463501 C21.62275342 269.45956417 -3.63810502 265.31010317 -25.33935547 255.96166992 C-54.03479296 243.03473605 -80.20110899 220.92762331 -91.67944336 191.09692383 C-102.19680369 158.37624724 -96.01607177 125.32181386 -80.79663086 95.44067383 C-67.97785476 70.96974934 -49.87736086 49.29022452 -31.32788086 28.94458008 C-29.51858989 26.93696298 -27.7818853 24.88692116 -26.04663086 22.81567383 C-22.36184632 18.57128416 -18.23842551 14.83374387 -14.07299805 11.07128906 C-10.44678157 7.79285684 -7.04634069 4.41791708 -3.85913086 0.70239258 C-2.29663086 -0.30932617 -2.29663086 -0.30932617 0 0 Z " fill="#D9D8DC" transform="translate(232.296630859375,287.309326171875)"/>
<path d="M0 0 C0.79936981 -0.0010675 1.59873962 -0.00213501 2.42233276 -0.00323486 C24.12605231 0.03819215 45.04553271 3.35533775 65.69140625 10.203125 C71.35171916 12.05445085 74.59228749 12.71807081 80.375 10.6875 C96.3196908 5.45706227 122.30983106 -1.08140132 138.3359375 6.98828125 C156.82584361 19.37051079 161.32534385 38.95878734 165.41015625 59.59375 C166.39458717 65.13717906 166.84124485 70.6230409 167.18069458 76.23872375 C168.22198239 93.3364235 171.564924 106.11803282 180.33251953 121.19628906 C181.42720424 123.29775407 182.04309211 125.12311897 182.5 127.4375 C171.84306879 129.90716617 160.83638617 128.3357496 150.19552612 126.52841187 C148.1274912 126.17731203 146.05749144 125.84072004 143.98657227 125.50708008 C137.44785326 124.44852419 130.91828463 123.33950434 124.390625 122.21484375 C89.3363768 116.23339584 68.52593247 127.19730636 38.93798828 145.39794922 C10.16646441 163.01952036 -26.2649739 155.34923098 -57.75415039 149.00878906 C-61.32135838 148.32283787 -64.88964535 147.833887 -68.5 147.4375 C-70.05678467 147.26637695 -70.05678467 147.26637695 -71.64501953 147.09179688 C-95.03657673 144.92127872 -112.76298642 151.17669831 -133.98162842 160.35723877 C-138.36696435 162.23833861 -142.77985501 164.05253141 -147.19140625 165.87109375 C-152.5205784 168.07049289 -157.84860252 170.27200404 -163.1652832 172.50146484 C-175.15295465 177.52338249 -187.19745629 182.23211136 -199.5 186.4375 C-199.51924424 184.35484554 -199.5370301 182.27216838 -199.54785156 180.18945312 C-199.55766102 178.4302906 -199.5739949 176.67115299 -199.59667969 174.91210938 C-199.6255446 170.35145283 -199.37172132 166.3809638 -198.25 161.9375 C-197.83357926 159.6621966 -197.83357926 159.6621966 -198.5 157.4375 C-201.13067634 154.41777998 -204.01710885 151.95940611 -207.08984375 149.40625 C-221.14002518 137.57786529 -230.96476814 118.5139846 -232.70703125 100.26953125 C-233.43267891 88.38964246 -232.37332496 78.98318124 -224.55859375 69.625 C-207.56476422 51.56704073 -181.63626294 44.59753744 -157.5 43.4375 C-151.22708021 43.25276613 -145.03584587 43.21577909 -138.80078125 43.98046875 C-127.87626061 45.31427811 -127.87626061 45.31427811 -118.25 40.5625 C-117.32058594 39.72976562 -116.39117187 38.89703125 -115.43359375 38.0390625 C-112.23970902 35.20666938 -108.98292385 33.08416342 -105.3125 30.9375 C-104.68045654 30.56705566 -104.04841309 30.19661133 -103.3972168 29.81494141 C-101.43743623 28.67840157 -99.46938089 27.55730592 -97.5 26.4375 C-96.5399707 25.880625 -96.5399707 25.880625 -95.56054688 25.3125 C-66.61952597 8.62578525 -33.33296565 -0.00954366 0 0 Z " fill="#929497" transform="translate(402.5,-0.4375)"/>
<path d="M0 0 C4.02225076 3.3898866 6.23044162 7.6292124 6.7890625 12.81640625 C7.56874839 36.50686219 -6.08325027 60.85173184 -18.484375 80.27734375 C-19.13921875 81.31632812 -19.7940625 82.3553125 -20.46875 83.42578125 C-30.84224945 99.41468742 -42.82301948 114.4013258 -55.78125 128.35546875 C-58.29650817 131.07427383 -60.77062799 133.82441344 -63.234375 136.58984375 C-73.38765518 147.8553207 -84.9241062 157.74926397 -97.484375 166.27734375 C-98.144375 166.27734375 -98.804375 166.27734375 -99.484375 166.27734375 C-99.690625 167.41300781 -99.896875 168.54867187 -100.109375 169.71875 C-101.83064731 177.43588783 -104.76872348 184.80492882 -107.484375 192.21484375 C-108.06990863 193.82575653 -108.65519257 195.4367601 -109.24023438 197.04785156 C-113.10725491 207.66538656 -117.12605254 218.2165703 -121.24072266 228.74072266 C-123.33948107 234.14922741 -125.24086935 239.51958526 -126.859375 245.08984375 C-130.29466619 256.66850507 -135.33117414 267.7394334 -140.0402832 278.84667969 C-140.99288505 281.10973313 -141.93186063 283.37857731 -142.85620117 285.65332031 C-143.28392822 286.70487305 -143.71165527 287.75642578 -144.15234375 288.83984375 C-144.52383545 289.76410156 -144.89532715 290.68835938 -145.27807617 291.640625 C-150.98115879 304.10637935 -161.85672261 314.94659662 -174.484375 320.27734375 C-177.76313456 321.25761037 -181.07918434 321.92128421 -184.4375 322.5703125 C-185.45455017 322.77530365 -186.47160034 322.9802948 -187.51947021 323.1914978 C-195.87185082 324.84289916 -204.25588242 326.30770871 -212.64331055 327.76805115 C-218.68430405 328.82047414 -224.72049083 329.89950155 -230.75566101 330.9847784 C-235.22513658 331.78616543 -239.69659067 332.56814872 -244.17578125 333.31347656 C-248.58204184 334.04772326 -252.97732299 334.82989541 -257.36919403 335.64565659 C-259.0262762 335.94456264 -260.68660174 336.22606497 -262.34973907 336.48920059 C-267.32254849 337.28152018 -271.91190362 338.11703557 -276.484375 340.27734375 C-278.99510919 343.80552838 -279.72265728 347.07428889 -280.484375 351.27734375 C-283.61106425 356.9916379 -288.19037211 362.17934279 -294.484375 364.27734375 C-303.41233038 365.17013929 -309.95319393 360.99524738 -316.796875 355.7421875 C-318.484375 354.27734375 -318.484375 354.27734375 -320.296875 351.83984375 C-324.90545387 348.5480017 -332.16930088 351.04073561 -337.50073242 351.92553711 C-341.28094471 352.57872322 -345.0494891 353.28704167 -348.81616211 354.01391602 C-351.14783131 354.46024134 -353.48270654 354.88563668 -355.81835938 355.31054688 C-364.24167243 356.8972901 -372.04101071 359.03724923 -380.01530457 362.1844635 C-398.27910942 369.36107939 -419.96398207 368.01543345 -438.484375 362.27734375 C-439.15194824 362.07367187 -439.81952148 361.87 -440.50732422 361.66015625 C-456.6246748 356.57170647 -471.45127186 347.96448833 -484.484375 337.27734375 C-485.04608398 336.82633301 -485.60779297 336.37532227 -486.18652344 335.91064453 C-510.04615926 316.69146707 -522.35016471 293.35467182 -526.484375 263.27734375 C-534.01435581 267.79533224 -537.67473901 273.6709976 -540.859375 281.77734375 C-541.87372564 287.45770733 -542.48985235 292.8641981 -540.234375 298.27734375 C-538.31608463 300.4696756 -537.19928464 301.26390145 -534.484375 302.27734375 C-531.42620502 302.30400473 -531.42620502 302.30400473 -528.234375 301.90234375 C-527.15671875 301.79148437 -526.0790625 301.680625 -524.96875 301.56640625 C-523.73898437 301.42332031 -523.73898437 301.42332031 -522.484375 301.27734375 C-522.13246094 302.293125 -521.78054688 303.30890625 -521.41796875 304.35546875 C-512.16915226 330.43738586 -495.15223981 347.91855457 -470.484375 360.27734375 C-443.3959615 372.67763177 -413.39802586 378.04570716 -384.734375 368.02734375 C-383.81140625 367.6715625 -382.8884375 367.31578125 -381.9375 366.94921875 C-379.30753289 366.22890929 -378.01331489 366.35558061 -375.484375 367.27734375 C-377.74774627 369.8657281 -379.59098326 370.87249753 -382.87109375 371.84765625 C-384.1559668 372.23244141 -384.1559668 372.23244141 -385.46679688 372.625 C-386.80581055 373.00978516 -386.80581055 373.00978516 -388.171875 373.40234375 C-389.04521484 373.66660156 -389.91855469 373.93085937 -390.81835938 374.203125 C-420.45788237 382.92453804 -452.74222426 374.42482337 -479.296875 360.28515625 C-499.62133209 348.97358098 -517.62762501 330.99032808 -524.484375 308.27734375 C-524.484375 307.28734375 -524.484375 306.29734375 -524.484375 305.27734375 C-524.979375 305.44234375 -525.474375 305.60734375 -525.984375 305.77734375 C-531.2418032 306.82882939 -535.00793181 307.00163664 -539.796875 304.65234375 C-543.61128225 301.28147223 -545.19422219 298.72394091 -545.80078125 293.609375 C-546.22733591 282.97302812 -543.08043203 274.52241503 -536.484375 266.27734375 C-537.28875 265.65859375 -538.093125 265.03984375 -538.921875 264.40234375 C-541.64822504 262.14146811 -542.3633443 261.43804797 -542.72265625 257.9921875 C-542.90843259 251.04024146 -541.65937973 246.39783481 -538.484375 240.27734375 C-537.20701322 236.44525842 -538.02142107 235.51301422 -539.671875 231.90234375 C-546.55597677 215.94720181 -549.30169147 199.2948893 -551.859375 182.2109375 C-555.3716029 146.92070461 -555.3716029 146.92070461 -573.109375 117.83984375 C-580.06994739 113.16786423 -590.05478814 109.73776279 -598.484375 111.27734375 C-604.29561039 112.76461373 -609.99316416 114.53765646 -615.484375 116.96484375 C-622.75103459 120.14400732 -629.75889024 120.02918312 -637.15234375 117.30859375 C-646.68924334 113.09127132 -651.5617383 107.17855279 -656.1171875 97.98046875 C-658.97494372 90.2400319 -658.95306737 80.37939938 -655.546875 72.77734375 C-651.83940225 66.54204868 -646.61049178 61.59360345 -639.921875 58.77734375 C-638.7153125 58.52984375 -638.7153125 58.52984375 -637.484375 58.27734375 C-637.71125 57.43171875 -637.938125 56.58609375 -638.171875 55.71484375 C-638.5679669 51.35783283 -637.53974203 49.10457891 -635.484375 45.27734375 C-633.08542593 42.51491755 -631.26166385 40.49417299 -627.53125 40.0390625 C-621.75804405 39.85251333 -619.32153005 40.97928349 -614.484375 44.27734375 C-611.94142262 43.51024576 -611.94142262 43.51024576 -609.484375 42.27734375 C-606.25980437 42.59980081 -603.55703353 43.25312424 -600.484375 44.27734375 C-599.824375 43.94734375 -599.164375 43.61734375 -598.484375 43.27734375 C-595.546875 42.96484375 -595.546875 42.96484375 -592.484375 43.27734375 C-591.88109375 44.23447266 -591.88109375 44.23447266 -591.265625 45.2109375 C-588.66396435 48.22909207 -585.68088225 48.19637325 -581.921875 48.65234375 C-561.23662005 51.79367664 -542.99861947 60.15095502 -527.484375 74.27734375 C-526.71867188 74.95023437 -525.95296875 75.623125 -525.1640625 76.31640625 C-508.7176871 91.61669277 -501.02369553 112.77750028 -495.98925781 134.14208984 C-495.18839894 137.52908778 -494.33298095 140.90203271 -493.484375 144.27734375 C-486.08250105 138.89416269 -480.6931425 131.33901688 -474.9609375 124.296875 C-472.20318218 120.9345014 -469.41452749 117.60019133 -466.609375 114.27734375 C-466.14499023 113.7253833 -465.68060547 113.17342285 -465.20214844 112.60473633 C-463.05127738 110.06326268 -460.89522314 107.57643072 -458.484375 105.27734375 C-457.494375 105.60734375 -456.504375 105.93734375 -455.484375 106.27734375 C-456.77871848 109.16329621 -458.08484657 111.03816155 -460.421875 113.15234375 C-463.85997664 116.47678913 -466.76925297 120.11407104 -469.671875 123.90234375 C-475.20195085 131.09144236 -481.21058531 137.73321246 -487.484375 144.27734375 C-488.21785156 145.05851563 -488.95132813 145.8396875 -489.70703125 146.64453125 C-491.484375 148.27734375 -491.484375 148.27734375 -493.484375 148.27734375 C-492.824375 152.23734375 -492.164375 156.19734375 -491.484375 160.27734375 C-490.824375 160.27734375 -490.164375 160.27734375 -489.484375 160.27734375 C-487.88294484 158.37318577 -486.39539486 156.46468047 -484.921875 154.46484375 C-484.0116945 153.25684864 -483.1002147 152.04983151 -482.1875 150.84375 C-481.73052734 150.23805176 -481.27355469 149.63235352 -480.80273438 149.00830078 C-470.35697068 135.29339993 -458.72393491 122.44469972 -446.8984375 109.91796875 C-444.67419503 107.55934234 -442.4824672 105.17736745 -440.3203125 102.76171875 C-424.3462561 84.96139911 -424.3462561 84.96139911 -415.484375 82.27734375 C-414.824375 82.60734375 -414.164375 82.93734375 -413.484375 83.27734375 C-413.484375 83.93734375 -413.484375 84.59734375 -413.484375 85.27734375 C-415.49431998 86.92684267 -417.52110141 88.48247687 -419.609375 90.02734375 C-429.62540954 97.65817886 -438.52581799 106.55927638 -446.65625 116.16796875 C-448.64581799 118.46362412 -450.70654371 120.68020579 -452.78051758 122.89941406 C-457.74947686 128.21951211 -462.53956293 133.6162384 -467.09375 139.30078125 C-468.85462939 141.49324873 -470.63301686 143.66047524 -472.4375 145.81640625 C-485.53529088 161.54218737 -497.14478156 178.04330707 -506.484375 196.27734375 C-506.82049805 196.92509766 -507.15662109 197.57285156 -507.50292969 198.24023438 C-521.20741836 224.93443398 -525.65374943 257.39530769 -516.484375 286.27734375 C-515.0503542 290.41634024 -513.41110486 294.34501206 -511.484375 298.27734375 C-511.04351562 299.19773437 -510.60265625 300.118125 -510.1484375 301.06640625 C-494.98869948 330.79959407 -462.56783685 349.38918003 -431.94921875 359.4375 C-415.95496505 363.61582873 -395.72741968 363.23508197 -380.33300781 356.96704102 C-363.89664155 350.29556971 -345.88487212 348.19395002 -328.484375 345.27734375 C-328.484375 342.02823941 -330.72453375 340.32054404 -332.734375 337.83984375 C-358.484375 305.24402099 -358.484375 305.24402099 -358.484375 294.27734375 C-357.824375 294.27734375 -357.164375 294.27734375 -356.484375 294.27734375 C-355.92492187 295.33308594 -355.36546875 296.38882812 -354.7890625 297.4765625 C-335.10217634 335.33209757 -335.10217634 335.33209757 -302.484375 360.27734375 C-297.13009544 360.62278114 -293.80188704 360.77802919 -289.484375 357.27734375 C-276.23984375 344.0328125 -276.24983706 321.19156232 -276.234375 303.65234375 C-276.23370026 302.95981506 -276.23302551 302.26728638 -276.23233032 301.55377197 C-276.26538879 279.89645699 -278.07002207 258.51560686 -283.49609375 237.48828125 C-284.29521625 234.34263824 -284.73119364 231.54602298 -284.484375 228.27734375 C-283.824375 228.27734375 -283.164375 228.27734375 -282.484375 228.27734375 C-277.22685666 247.81120634 -273.34395541 267.61332177 -273.31640625 287.9140625 C-273.31307785 288.79657181 -273.30974945 289.67908112 -273.30632019 290.58833313 C-273.30129533 292.44291672 -273.29891048 294.29750922 -273.29907227 296.15209961 C-273.29689382 298.94074969 -273.27871212 301.72899812 -273.25976562 304.51757812 C-273.22810644 314.95293164 -273.73157816 324.97804854 -275.484375 335.27734375 C-274.65244629 335.07818359 -273.82051758 334.87902344 -272.96337891 334.67382812 C-266.56767883 333.15169134 -260.16158833 331.79922265 -253.6953125 330.61401367 C-246.80620292 329.3486182 -239.93056033 328.01526148 -233.05480957 326.67953491 C-215.1595036 323.2032918 -215.1595036 323.2032918 -206.859375 321.65234375 C-205.68890625 321.430625 -204.5184375 321.20890625 -203.3125 320.98046875 C-200.28411604 320.42423496 -197.25467475 319.89882848 -194.21875 319.38671875 C-179.14625526 316.78583526 -169.51706733 313.31003608 -158.484375 302.27734375 C-157.89527344 301.68824219 -157.30617188 301.09914063 -156.69921875 300.4921875 C-150.3148348 293.58529642 -147.24747152 284.93544403 -144.07080078 276.22363281 C-141.27083056 268.5707324 -138.18761459 261.03326238 -135.0871582 253.49780273 C-133.03885603 248.4505045 -131.17760012 243.43071815 -129.62890625 238.20703125 C-127.24216121 230.21846222 -124.25459548 222.47586501 -121.28671265 214.68966675 C-115.0526569 198.31582851 -109.03349926 181.89745421 -103.484375 165.27734375 C-103.06816895 164.04725586 -102.65196289 162.81716797 -102.22314453 161.54980469 C-91.58189449 130.07230134 -83.08683529 99.35806542 -91.9609375 66.22265625 C-92.49913704 63.19427975 -92.29801038 61.21727958 -91.484375 58.27734375 C-90.824375 58.27734375 -90.164375 58.27734375 -89.484375 58.27734375 C-80.07886224 90.8770336 -83.36895621 119.96410204 -94.33544922 151.74365234 C-94.61018066 152.5423877 -94.88491211 153.34112305 -95.16796875 154.1640625 C-95.4198999 154.88166748 -95.67183105 155.59927246 -95.93139648 156.33862305 C-96.62151963 158.42216046 -96.62151963 158.42216046 -96.484375 161.27734375 C-53.34270357 129.36239205 -10.18591544 78.59984844 2.515625 25.27734375 C2.74713952 22.53954993 2.88542527 19.94729952 2.890625 17.21484375 C2.91511719 16.53357422 2.93960938 15.85230469 2.96484375 15.15039062 C2.99425289 10.04790547 1.85261716 7.10975967 -1.484375 3.27734375 C-8.21792694 -0.77449794 -19.27458786 0.44238597 -26.7734375 1.9296875 C-36.09390347 4.85646455 -45.81642553 9.38126102 -53.671875 15.21484375 C-56.484375 17.27734375 -56.484375 17.27734375 -59.484375 17.27734375 C-58.15230965 14.14285333 -56.98105529 12.61945474 -54.0625 10.875 C-53.37317383 10.4617749 -52.68384766 10.0485498 -51.97363281 9.62280273 C-51.23467773 9.19942627 -50.49572266 8.7760498 -49.734375 8.33984375 C-48.97737305 7.900354 -48.22037109 7.46086426 -47.44042969 7.00805664 C-34.54631847 -0.27492847 -14.08311716 -8.60294766 0 0 Z M-633.484375 47.27734375 C-634.92354932 50.89150892 -634.92354932 50.89150892 -635.484375 54.27734375 C-634.824375 54.93734375 -634.164375 55.59734375 -633.484375 56.27734375 C-632.52015625 55.92800781 -631.5559375 55.57867187 -630.5625 55.21875 C-629.28649497 54.75901289 -628.01045126 54.29938312 -626.734375 53.83984375 C-626.10015625 53.60974609 -625.4659375 53.37964844 -624.8125 53.14257812 C-621.73025424 52.03489606 -618.68601062 50.98073339 -615.484375 50.27734375 C-616.87625219 46.91364054 -618.27868896 45.05828044 -621.484375 43.27734375 C-626.68245838 42.48633106 -629.58702728 43.82287645 -633.484375 47.27734375 Z M-608.484375 45.27734375 C-610.25628409 46.63178676 -610.25628409 46.63178676 -611.484375 48.27734375 C-608.8177331 49.6106647 -607.31757197 48.94836408 -604.484375 48.27734375 C-604.484375 47.61734375 -604.484375 46.95734375 -604.484375 46.27734375 C-606.32138289 45.50492106 -606.32138289 45.50492106 -608.484375 45.27734375 Z M-597.484375 46.27734375 C-597.814375 46.93734375 -598.144375 47.59734375 -598.484375 48.27734375 C-596.834375 48.27734375 -595.184375 48.27734375 -593.484375 48.27734375 C-593.484375 47.61734375 -593.484375 46.95734375 -593.484375 46.27734375 C-594.804375 46.27734375 -596.124375 46.27734375 -597.484375 46.27734375 Z M-535.484375 241.27734375 C-539.05132996 246.86040368 -540.2978086 251.66141712 -539.484375 258.27734375 C-538.14606542 260.73692115 -538.14606542 260.73692115 -536.484375 262.27734375 C-530.93384214 261.53374702 -530.93384214 261.53374702 -525.484375 260.27734375 C-525.99744921 255.52613602 -527.28594821 252.49493418 -529.921875 248.52734375 C-530.53933594 247.58375 -531.15679688 246.64015625 -531.79296875 245.66796875 C-533.41152196 243.23764151 -533.41152196 243.23764151 -535.484375 241.27734375 Z " fill="#BABCBE" transform="translate(657.484375,189.72265625)"/>
<path d="M0 0 C2.01182457 1.31542376 4.01399663 2.6459068 6 4 C8.54295238 3.23290201 8.54295238 3.23290201 11 2 C14.22457063 2.32245706 16.92734147 2.97578049 20 4 C20.66 3.67 21.32 3.34 22 3 C24.9375 2.6875 24.9375 2.6875 28 3 C28.60328125 3.95712891 28.60328125 3.95712891 29.21875 4.93359375 C31.81944882 7.95063251 34.803723 7.92172699 38.5625 8.375 C48.55087276 9.83437901 58.92600433 12.46300216 68 17 C70.17275055 25.62702251 70.35628144 34.58920731 70.3125 43.4375 C70.30512817 45.21072632 70.30512817 45.21072632 70.29760742 47.01977539 C70.08541683 62.81001965 66.30683083 76.46294235 58 90 C55.65466138 87.82218556 53.94187609 85.90097408 52.3125 83.125 C46.79369725 75.66715845 38.91518927 72.61246323 30 71 C21.28550956 70.01610592 12.91454662 73.18916648 5 76.6875 C-2.26665959 79.86666357 -9.27451524 79.75183937 -16.66796875 77.03125 C-26.20486834 72.81392757 -31.0773633 66.90120904 -35.6328125 57.703125 C-38.49056872 49.96268815 -38.46869237 40.10205563 -35.0625 32.5 C-31.35502725 26.26470493 -26.12611678 21.3162597 -19.4375 18.5 C-18.2309375 18.2525 -18.2309375 18.2525 -17 18 C-17.226875 17.154375 -17.45375 16.30875 -17.6875 15.4375 C-18.0835919 11.08048908 -17.05536703 8.82723516 -15 5 C-10.53259734 -0.14428185 -6.64220873 -0.88637583 0 0 Z M-13 7 C-14.43917432 10.61416517 -14.43917432 10.61416517 -15 14 C-14.34 14.66 -13.68 15.32 -13 16 C-12.03578125 15.65066406 -11.0715625 15.30132812 -10.078125 14.94140625 C-8.80211997 14.48166914 -7.52607626 14.02203937 -6.25 13.5625 C-5.61578125 13.33240234 -4.9815625 13.10230469 -4.328125 12.86523438 C-1.24587924 11.75755231 1.79836438 10.70338964 5 10 C3.60812281 6.63629679 2.20568604 4.78093669 -1 3 C-6.19808338 2.20898731 -9.10265228 3.5455327 -13 7 Z M12 5 C10.22809091 6.35444301 10.22809091 6.35444301 9 8 C11.6666419 9.33332095 13.16680303 8.67102033 16 8 C16 7.34 16 6.68 16 6 C14.16299211 5.22757731 14.16299211 5.22757731 12 5 Z M23 6 C22.67 6.66 22.34 7.32 22 8 C23.65 8 25.3 8 27 8 C27 7.34 27 6.68 27 6 C25.68 6 24.36 6 23 6 Z " fill="#01A984" transform="translate(37,230)"/>
<path d="M0 0 C4.02225076 3.3898866 6.23044162 7.6292124 6.7890625 12.81640625 C7.56874839 36.50686219 -6.08325027 60.85173184 -18.484375 80.27734375 C-19.13921875 81.31632812 -19.7940625 82.3553125 -20.46875 83.42578125 C-30.84224945 99.41468742 -42.82301948 114.4013258 -55.78125 128.35546875 C-58.29650817 131.07427383 -60.77062799 133.82441344 -63.234375 136.58984375 C-73.38765518 147.8553207 -84.9241062 157.74926397 -97.484375 166.27734375 C-98.144375 166.27734375 -98.804375 166.27734375 -99.484375 166.27734375 C-99.79375 167.98083984 -99.79375 167.98083984 -100.109375 169.71875 C-101.83064731 177.43588783 -104.76872348 184.80492882 -107.484375 192.21484375 C-108.06990863 193.82575653 -108.65519257 195.4367601 -109.24023438 197.04785156 C-113.10725491 207.66538656 -117.12605254 218.2165703 -121.24072266 228.74072266 C-123.33948107 234.14922741 -125.24086935 239.51958526 -126.859375 245.08984375 C-130.29466619 256.66850507 -135.33117414 267.7394334 -140.0402832 278.84667969 C-140.99288505 281.10973313 -141.93186063 283.37857731 -142.85620117 285.65332031 C-143.28392822 286.70487305 -143.71165527 287.75642578 -144.15234375 288.83984375 C-144.52383545 289.76410156 -144.89532715 290.68835938 -145.27807617 291.640625 C-150.98115879 304.10637935 -161.85672261 314.94659662 -174.484375 320.27734375 C-177.76313456 321.25761037 -181.07918434 321.92128421 -184.4375 322.5703125 C-185.45455017 322.77530365 -186.47160034 322.9802948 -187.51947021 323.1914978 C-195.87185082 324.84289916 -204.25588242 326.30770871 -212.64331055 327.76805115 C-218.68430405 328.82047414 -224.72049083 329.89950155 -230.75566101 330.9847784 C-235.22513658 331.78616543 -239.69659067 332.56814872 -244.17578125 333.31347656 C-248.58204184 334.04772326 -252.97732299 334.82989541 -257.36919403 335.64565659 C-259.0262762 335.94456264 -260.68660174 336.22606497 -262.34973907 336.48920059 C-267.32254849 337.28152018 -271.91190362 338.11703557 -276.484375 340.27734375 C-278.99510919 343.80552838 -279.72265728 347.07428889 -280.484375 351.27734375 C-283.61106425 356.9916379 -288.19037211 362.17934279 -294.484375 364.27734375 C-303.41233038 365.17013929 -309.95319393 360.99524738 -316.796875 355.7421875 C-318.484375 354.27734375 -318.484375 354.27734375 -320.296875 351.83984375 C-324.90545387 348.5480017 -332.16930088 351.04073561 -337.50073242 351.92553711 C-341.28094471 352.57872322 -345.0494891 353.28704167 -348.81616211 354.01391602 C-351.14783131 354.46024134 -353.48270654 354.88563668 -355.81835938 355.31054688 C-364.24167243 356.8972901 -372.04101071 359.03724923 -380.01530457 362.1844635 C-398.27910942 369.36107939 -419.96398207 368.01543345 -438.484375 362.27734375 C-439.15194824 362.07367187 -439.81952148 361.87 -440.50732422 361.66015625 C-456.6246748 356.57170647 -471.45127186 347.96448833 -484.484375 337.27734375 C-485.04608398 336.82633301 -485.60779297 336.37532227 -486.18652344 335.91064453 C-510.04615926 316.69146707 -522.35016471 293.35467182 -526.484375 263.27734375 C-534.01435581 267.79533224 -537.67473901 273.6709976 -540.859375 281.77734375 C-541.87372564 287.45770733 -542.48985235 292.8641981 -540.234375 298.27734375 C-538.31608463 300.4696756 -537.19928464 301.26390145 -534.484375 302.27734375 C-531.42620502 302.30400473 -531.42620502 302.30400473 -528.234375 301.90234375 C-527.15671875 301.79148437 -526.0790625 301.680625 -524.96875 301.56640625 C-523.73898437 301.42332031 -523.73898437 301.42332031 -522.484375 301.27734375 C-522.13246094 302.293125 -521.78054688 303.30890625 -521.41796875 304.35546875 C-512.16915226 330.43738586 -495.15223981 347.91855457 -470.484375 360.27734375 C-443.3959615 372.67763177 -413.39802586 378.04570716 -384.734375 368.02734375 C-383.81140625 367.6715625 -382.8884375 367.31578125 -381.9375 366.94921875 C-379.30753289 366.22890929 -378.01331489 366.35558061 -375.484375 367.27734375 C-377.74774627 369.8657281 -379.59098326 370.87249753 -382.87109375 371.84765625 C-383.72767578 372.10417969 -384.58425781 372.36070312 -385.46679688 372.625 C-386.80581055 373.00978516 -386.80581055 373.00978516 -388.171875 373.40234375 C-389.04521484 373.66660156 -389.91855469 373.93085937 -390.81835938 374.203125 C-420.45788237 382.92453804 -452.74222426 374.42482337 -479.296875 360.28515625 C-499.62133209 348.97358098 -517.62762501 330.99032808 -524.484375 308.27734375 C-524.484375 307.28734375 -524.484375 306.29734375 -524.484375 305.27734375 C-524.979375 305.44234375 -525.474375 305.60734375 -525.984375 305.77734375 C-531.2418032 306.82882939 -535.00793181 307.00163664 -539.796875 304.65234375 C-543.61128225 301.28147223 -545.19422219 298.72394091 -545.80078125 293.609375 C-546.22733591 282.97302812 -543.08043203 274.52241503 -536.484375 266.27734375 C-537.28875 265.65859375 -538.093125 265.03984375 -538.921875 264.40234375 C-541.64822504 262.14146811 -542.3633443 261.43804797 -542.72265625 257.9921875 C-542.92232359 250.52042545 -542.01540853 244.39373578 -537.0234375 238.57421875 C-535.484375 237.15234375 -535.484375 237.15234375 -532.484375 235.27734375 C-530.109375 235.46484375 -530.109375 235.46484375 -528.484375 236.27734375 C-529.4125 236.99921875 -530.340625 237.72109375 -531.296875 238.46484375 C-535.13826758 241.67204416 -537.76424159 245.23640987 -538.484375 250.27734375 C-538.87139101 256.06592211 -538.87139101 256.06592211 -536.484375 261.27734375 C-532.854375 260.94734375 -529.224375 260.61734375 -525.484375 260.27734375 C-525.814375 258.62734375 -526.144375 256.97734375 -526.484375 255.27734375 C-526.4777832 253.2512207 -526.4777832 253.2512207 -526.28515625 251.265625 C-526.21264648 250.51708252 -526.14013672 249.76854004 -526.06542969 248.99731445 C-525.97680664 248.20284912 -525.88818359 247.40838379 -525.796875 246.58984375 C-525.65813965 245.33723755 -525.65813965 245.33723755 -525.51660156 244.05932617 C-522.34921849 217.51375838 -512.32906435 194.41695555 -497.484375 172.27734375 C-496.75091704 171.13389294 -496.01926492 169.98928252 -495.2890625 168.84375 C-489.43221629 159.74349971 -482.90588776 151.37156766 -475.97265625 143.06982422 C-473.92372774 140.60210225 -471.92728856 138.09297771 -469.921875 135.58984375 C-465.58363903 130.28489221 -460.94543009 125.28642693 -456.26953125 120.28125 C-454.05650086 117.90840197 -451.90834641 115.49154357 -449.796875 113.02734375 C-446.5815998 109.3023298 -443.10503784 105.8781215 -439.59765625 102.4296875 C-437.80931716 100.60829224 -436.20304401 98.76598548 -434.609375 96.77734375 C-429.66758711 90.86657784 -422.99010342 84.49698651 -415.484375 82.27734375 C-414.824375 82.60734375 -414.164375 82.93734375 -413.484375 83.27734375 C-413.484375 83.93734375 -413.484375 84.59734375 -413.484375 85.27734375 C-415.49431998 86.92684267 -417.52110141 88.48247687 -419.609375 90.02734375 C-429.62540954 97.65817886 -438.52581799 106.55927638 -446.65625 116.16796875 C-448.64581799 118.46362412 -450.70654371 120.68020579 -452.78051758 122.89941406 C-457.74947686 128.21951211 -462.53956293 133.6162384 -467.09375 139.30078125 C-468.85462939 141.49324873 -470.63301686 143.66047524 -472.4375 145.81640625 C-485.53529088 161.54218737 -497.14478156 178.04330707 -506.484375 196.27734375 C-506.82049805 196.92509766 -507.15662109 197.57285156 -507.50292969 198.24023438 C-521.20741836 224.93443398 -525.65374943 257.39530769 -516.484375 286.27734375 C-515.0503542 290.41634024 -513.41110486 294.34501206 -511.484375 298.27734375 C-511.04351562 299.19773437 -510.60265625 300.118125 -510.1484375 301.06640625 C-494.98869948 330.79959407 -462.56783685 349.38918003 -431.94921875 359.4375 C-415.95496505 363.61582873 -395.72741968 363.23508197 -380.33300781 356.96704102 C-363.89664155 350.29556971 -345.88487212 348.19395002 -328.484375 345.27734375 C-328.484375 342.02823941 -330.72453375 340.32054404 -332.734375 337.83984375 C-358.484375 305.24402099 -358.484375 305.24402099 -358.484375 294.27734375 C-357.824375 294.27734375 -357.164375 294.27734375 -356.484375 294.27734375 C-355.92492187 295.33308594 -355.36546875 296.38882812 -354.7890625 297.4765625 C-335.10217634 335.33209757 -335.10217634 335.33209757 -302.484375 360.27734375 C-297.13009544 360.62278114 -293.80188704 360.77802919 -289.484375 357.27734375 C-276.23984375 344.0328125 -276.24983706 321.19156232 -276.234375 303.65234375 C-276.23370026 302.95981506 -276.23302551 302.26728638 -276.23233032 301.55377197 C-276.26538879 279.89645699 -278.07002207 258.51560686 -283.49609375 237.48828125 C-284.29521625 234.34263824 -284.73119364 231.54602298 -284.484375 228.27734375 C-283.824375 228.27734375 -283.164375 228.27734375 -282.484375 228.27734375 C-277.22685666 247.81120634 -273.34395541 267.61332177 -273.31640625 287.9140625 C-273.31307785 288.79657181 -273.30974945 289.67908112 -273.30632019 290.58833313 C-273.30129533 292.44291672 -273.29891048 294.29750922 -273.29907227 296.15209961 C-273.29689382 298.94074969 -273.27871212 301.72899812 -273.25976562 304.51757812 C-273.22810644 314.95293164 -273.73157816 324.97804854 -275.484375 335.27734375 C-274.65244629 335.07818359 -273.82051758 334.87902344 -272.96337891 334.67382812 C-266.56767883 333.15169134 -260.16158833 331.79922265 -253.6953125 330.61401367 C-246.80620292 329.3486182 -239.93056033 328.01526148 -233.05480957 326.67953491 C-215.1595036 323.2032918 -215.1595036 323.2032918 -206.859375 321.65234375 C-205.68890625 321.430625 -204.5184375 321.20890625 -203.3125 320.98046875 C-200.28411604 320.42423496 -197.25467475 319.89882848 -194.21875 319.38671875 C-179.14625526 316.78583526 -169.51706733 313.31003608 -158.484375 302.27734375 C-157.89527344 301.68824219 -157.30617188 301.09914063 -156.69921875 300.4921875 C-150.3148348 293.58529642 -147.24747152 284.93544403 -144.07080078 276.22363281 C-141.27083056 268.5707324 -138.18761459 261.03326238 -135.0871582 253.49780273 C-133.03885603 248.4505045 -131.17760012 243.43071815 -129.62890625 238.20703125 C-127.24216121 230.21846222 -124.25459548 222.47586501 -121.28671265 214.68966675 C-115.0526569 198.31582851 -109.03349926 181.89745421 -103.484375 165.27734375 C-103.06816895 164.04725586 -102.65196289 162.81716797 -102.22314453 161.54980469 C-91.58189449 130.07230134 -83.08683529 99.35806542 -91.9609375 66.22265625 C-92.49913704 63.19427975 -92.29801038 61.21727958 -91.484375 58.27734375 C-90.824375 58.27734375 -90.164375 58.27734375 -89.484375 58.27734375 C-80.07886224 90.8770336 -83.36895621 119.96410204 -94.33544922 151.74365234 C-94.74754639 152.94175537 -94.74754639 152.94175537 -95.16796875 154.1640625 C-95.4198999 154.88166748 -95.67183105 155.59927246 -95.93139648 156.33862305 C-96.62151963 158.42216046 -96.62151963 158.42216046 -96.484375 161.27734375 C-53.34270357 129.36239205 -10.18591544 78.59984844 2.515625 25.27734375 C2.74713952 22.53954993 2.88542527 19.94729952 2.890625 17.21484375 C2.91511719 16.53357422 2.93960938 15.85230469 2.96484375 15.15039062 C2.99425289 10.04790547 1.85261716 7.10975967 -1.484375 3.27734375 C-8.21792694 -0.77449794 -19.27458786 0.44238597 -26.7734375 1.9296875 C-36.09390347 4.85646455 -45.81642553 9.38126102 -53.671875 15.21484375 C-56.484375 17.27734375 -56.484375 17.27734375 -59.484375 17.27734375 C-58.15230965 14.14285333 -56.98105529 12.61945474 -54.0625 10.875 C-53.37317383 10.4617749 -52.68384766 10.0485498 -51.97363281 9.62280273 C-50.8652002 8.98773804 -50.8652002 8.98773804 -49.734375 8.33984375 C-48.97737305 7.900354 -48.22037109 7.46086426 -47.44042969 7.00805664 C-34.54631847 -0.27492847 -14.08311716 -8.60294766 0 0 Z " fill="#292627" transform="translate(657.484375,189.72265625)"/>
<path d="M0 0 C13.56897603 26.23335366 -0.05729361 62.79713329 -8.30371094 88.74804688 C-11.25315268 97.94173933 -14.37789954 107.04781674 -18 116 C-20.66355864 114.74349516 -22.93032783 113.36981739 -25.25 111.5625 C-32.36325863 106.45361298 -39.36920092 105.46009775 -48 105 C-47.835 103.9275 -47.67 102.855 -47.5 101.75 C-45.62420696 86.05402585 -48.01539117 71.94664113 -57.453125 59.0078125 C-63.65672281 51.95826953 -73.42419616 48.3170562 -82 45 C-78.60913635 42.12160944 -74.91043891 40.64336919 -70.8125 39.0625 C-45.34933193 28.86878261 -22.3875463 15.71094904 0 0 Z " fill="#D9D8DC" transform="translate(566,259)"/>
<path d="M0 0 C2.12508244 3.18762365 2.5020163 5.26512223 3 9 C-39.4145327 40.43585141 -87.772158 60.56059227 -140 68 C-141.56838623 68.22864746 -141.56838623 68.22864746 -143.16845703 68.46191406 C-173.13759815 72.68266306 -204.09410979 72.67595944 -234 68 C-235.08571289 67.83371094 -236.17142578 67.66742188 -237.29003906 67.49609375 C-268.96425319 62.49928521 -299.50242355 53.34605674 -328.22265625 39.02587891 C-330.84771953 37.83958223 -330.84771953 37.83958223 -333.16894531 38.15356445 C-335.30689991 39.1418696 -336.59432568 40.25215545 -338.234375 41.94140625 C-338.80800781 42.52470703 -339.38164062 43.10800781 -339.97265625 43.70898438 C-340.55917969 44.32064453 -341.14570313 44.93230469 -341.75 45.5625 C-342.35199219 46.17802734 -342.95398438 46.79355469 -343.57421875 47.42773438 C-345.05634381 48.94514813 -346.5290967 50.47170596 -348 52 C-348 48.35735792 -347.40852534 48.02425487 -344.921875 45.5234375 C-343.92994141 44.52280273 -343.92994141 44.52280273 -342.91796875 43.50195312 C-342.20253906 42.80005859 -341.48710937 42.09816406 -340.75 41.375 C-340.02941406 40.66021484 -339.30882812 39.94542969 -338.56640625 39.20898438 C-332.75710477 33.53848922 -326.70594886 28.57223786 -320 24 C-319.34515625 24.42410156 -318.6903125 24.84820312 -318.015625 25.28515625 C-315.0220639 27.20898436 -312.01231984 29.10569283 -309 31 C-308.10925781 31.57492187 -307.21851563 32.14984375 -306.30078125 32.7421875 C-300.13727263 36.55811152 -293.83754728 39.47548132 -287.125 42.1875 C-286.33552979 42.508396 -285.54605957 42.82929199 -284.73266602 43.15991211 C-272.9953366 47.76052711 -260.97392922 50.61113933 -248.5625 52.6875 C-246.77102539 53.00557617 -246.77102539 53.00557617 -244.94335938 53.33007812 C-228.41517966 56.1515283 -211.90650221 56.24067091 -195.1875 56.25 C-194.09574463 56.25067474 -193.00398926 56.25134949 -191.87915039 56.25204468 C-176.8155504 56.23727482 -162.1041585 55.89058744 -147.20214844 53.50488281 C-144.19689063 53.03104375 -141.18773652 52.60074264 -138.17399597 52.18467712 C-119.59734329 49.61891366 -101.25181077 46.35313124 -83 42 C-81.87980469 41.73461426 -80.75960938 41.46922852 -79.60546875 41.19580078 C-50.21344912 34.1062897 -21.04579634 22.51410771 0 0 Z " fill="#A1A2A6" transform="translate(564,250)"/>
<path d="M0 0 C3.80712979 4.35479115 6.36224354 9.11529165 9.0625 14.1875 C13.24108638 21.9375521 17.63617439 29.49435649 22.38305664 36.91088867 C24.43952449 40.17976037 26.19624184 43.27337696 27.47265625 46.92578125 C29.17901252 51.79717238 31.75767191 56.04420476 34.4375 60.4375 C34.96029541 61.30205811 35.48309082 62.16661621 36.02172852 63.05737305 C40.88823156 71.00441976 46.17232207 78.62034145 51.65576172 86.15087891 C53.78999255 89.08670606 55.89324028 92.04441876 58 95 C49.71365072 96.9236168 41.36428441 98.46056115 33 100 C33 99.34 33 98.68 33 98 C31.824375 97.690625 31.824375 97.690625 30.625 97.375 C13.33942684 90.81840328 2.51507743 77.21975902 -4.9128418 60.86865234 C-11.37341597 46.10312842 -17.72846767 30.15046359 -12.8125 13.875 C-10.19308292 7.44885996 -5.85089294 3.53774922 0 0 Z " fill="#9AC0D6" transform="translate(273,440)"/>
<path d="M0 0 C-3.22235294 3.84892156 -6.52605209 7.55426968 -10.00341797 11.17578125 C-23.00489665 24.85172489 -33.5034524 40.17823757 -42 57 C-42.33612305 57.66515625 -42.67224609 58.3303125 -43.01855469 59.015625 C-47.38489543 67.77458337 -50.89977421 76.72789613 -54 86 C-65.01397277 81.14890188 -72.61046603 68.41688347 -77.453125 57.8203125 C-80.88057179 48.52758704 -81.5929542 39.64931583 -77.453125 30.48046875 C-68.37882808 14.99074148 -52.40967535 8.16446205 -35.83300781 3.67480469 C-23.8444964 0.5788979 -12.32312529 -0.31066702 0 0 Z " fill="#D6D5D9" transform="translate(264,56)"/>
<path d="M0 0 C0.99 0 1.98 0 3 0 C3 0.99 3 1.98 3 3 C4.32 2.67 5.64 2.34 7 2 C7 1.34 7 0.68 7 0 C14.24974597 0.1536555 20.89111746 1.31790601 27.8125 3.375 C28.51689209 3.58406982 29.22128418 3.79313965 29.94702148 4.00854492 C31.31582297 4.43116581 32.67735028 4.87820281 34.02978516 5.35058594 C36.29208386 6.13360221 36.29208386 6.13360221 39.88671875 6.8515625 C43 9 43 9 43.8671875 11.61108398 C45.20604622 19.47865936 45.35191403 27.47186819 45.3125 35.4375 C45.30512817 37.21072632 45.30512817 37.21072632 45.29760742 39.01977539 C45.08541683 54.81001965 41.30683083 68.46294235 33 82 C30.65466138 79.82218556 28.94187609 77.90097408 27.3125 75.125 C22.77061266 68.98731441 16.0134162 65.68598918 9 63 C9.27714844 62.33613281 9.55429688 61.67226563 9.83984375 60.98828125 C10.20207031 60.10527344 10.56429687 59.22226562 10.9375 58.3125 C11.29714844 57.44238281 11.65679687 56.57226562 12.02734375 55.67578125 C16.34402596 43.80057115 15.71029631 28.16150213 10.5 16.734375 C8.24541024 12.62444575 5.74531971 8.79453672 3 5 C1.98511532 3.34235502 0.97597602 1.68084758 0 0 Z " fill="#06AA85" transform="translate(62,238)"/>
<path d="M0 0 C2.22227177 0.01090321 4.44376532 -0.00006337 6.66601562 -0.01269531 C8.09310072 -0.01137644 9.52018535 -0.0088197 10.94726562 -0.00488281 C12.85596436 -0.00149902 12.85596436 -0.00149902 14.80322266 0.00195312 C17.83895553 0.24284823 19.52509366 0.65500594 22.06445312 2.26074219 C19.54605279 4.77914252 18.52860341 4.57156458 15.03320312 4.75292969 C14.00356445 4.81585205 12.97392578 4.87877441 11.91308594 4.94360352 C10.80803711 5.00700928 9.70298828 5.07041504 8.56445312 5.13574219 C-14.30737905 6.72161401 -38.86838667 11.45507599 -54.93554688 29.26074219 C-59.85200697 37.0348244 -61.88015812 44.09245654 -60.93554688 53.26074219 C-57.88091758 66.14978774 -51.18352874 76.6710934 -41.24804688 85.32324219 C-37.00012467 89.32205785 -37.00012467 89.32205785 -36.71679688 93.44042969 C-37.21906667 96.52052533 -37.91748767 99.3142008 -38.93554688 102.26074219 C-39.43054688 103.74574219 -39.43054688 103.74574219 -39.93554688 105.26074219 C-54.26127225 98.86474635 -64.40359772 82.60811072 -70.59570312 68.83105469 C-74.87809586 57.41966412 -76.05126862 45.21436867 -71.19335938 33.74902344 C-62.96806829 17.47725195 -50.18424529 9.03645326 -33.16210938 3.30371094 C-22.28591728 0.34951319 -11.19204189 -0.06547999 0 0 Z " fill="#262223" transform="translate(245.935546875,51.7392578125)"/>
<path d="M0 0 C0.65484375 0.42410156 1.3096875 0.84820312 1.984375 1.28515625 C4.9779361 3.20898436 7.98768016 5.10569283 11 7 C11.89074219 7.57492187 12.78148437 8.14984375 13.69921875 8.7421875 C19.86272737 12.55811152 26.16245272 15.47548132 32.875 18.1875 C33.66447021 18.508396 34.45394043 18.82929199 35.26733398 19.15991211 C47.00130599 23.75921112 59.02631656 26.62462605 71.4375 28.6875 C72.71955322 28.90245117 74.00160645 29.11740234 75.32250977 29.33886719 C83.23280284 30.63046697 90.94693902 31.68632432 98.96203613 31.93623352 C102.16257555 32.03637618 105.36245645 32.15474885 108.5625 32.26953125 C116.04100335 32.53599204 123.52014785 32.77426162 131 33 C131 33.33 131 33.66 131 34 C124.73 34.33 118.46 34.66 112 35 C109.525 40.445 109.525 40.445 107 46 C94.43959749 45.43548753 82.33006824 43.37484201 70 41 C69.03288086 40.81421387 68.06576172 40.62842773 67.06933594 40.43701172 C41.81887299 35.4918805 15.21074022 27.85803772 -7.5703125 15.60546875 C-10.677935 13.78969509 -10.677935 13.78969509 -13.01220703 14.21582031 C-15.31575651 15.12456521 -16.51357986 16.16898726 -18.234375 17.94140625 C-19.09482422 18.81635742 -19.09482422 18.81635742 -19.97265625 19.70898438 C-20.85244141 20.62647461 -20.85244141 20.62647461 -21.75 21.5625 C-22.35199219 22.17802734 -22.95398438 22.79355469 -23.57421875 23.42773438 C-25.05634381 24.94514813 -26.5290967 26.47170596 -28 28 C-28 24.35735792 -27.40852534 24.02425487 -24.921875 21.5234375 C-24.26058594 20.85634766 -23.59929687 20.18925781 -22.91796875 19.50195312 C-22.20253906 18.80005859 -21.48710937 18.09816406 -20.75 17.375 C-20.02941406 16.66021484 -19.30882812 15.94542969 -18.56640625 15.20898438 C-12.75710477 9.53848922 -6.70594886 4.57223786 0 0 Z " fill="#A1A2A6" transform="translate(244,274)"/>
<path d="M0 0 C5.92651659 4.95337555 9.7835908 10.28035751 13.328125 17.08203125 C13.76769531 17.79230469 14.20726562 18.50257812 14.66015625 19.234375 C24.02850837 35.33888362 24.58662901 58.86707264 24.328125 77.08203125 C23.668125 77.08203125 23.008125 77.08203125 22.328125 77.08203125 C21.23071289 75.67675781 21.23071289 75.67675781 20.05078125 73.72265625 C19.61958984 73.01882812 19.18839844 72.315 18.74414062 71.58984375 C18.29748047 70.84476562 17.85082031 70.0996875 17.390625 69.33203125 C16.50813733 67.87791765 15.62406661 66.4247634 14.73828125 64.97265625 C14.32143066 64.28042969 13.90458008 63.58820313 13.47509766 62.875 C12.33309968 60.98383396 12.33309968 60.98383396 10.60546875 59.16015625 C8.4373002 55.63273831 8.32312118 51.63778225 7.828125 47.58203125 C7.57810099 45.76899164 7.32420799 43.95648128 7.06640625 42.14453125 C6.88005615 40.83355469 6.88005615 40.83355469 6.68994141 39.49609375 C5.00730397 28.26942779 1.58611489 15.44094629 -7.671875 8.08203125 C-13.82140694 3.71262698 -20.2560243 2.78218688 -27.65234375 2.9921875 C-29.16080433 3.01259011 -30.66926799 3.03276577 -32.17773438 3.05273438 C-34.52805521 3.09634553 -36.87815543 3.144959 -39.22827148 3.19848633 C-41.51545423 3.24676522 -43.80233701 3.27661482 -46.08984375 3.3046875 C-47.14149971 3.33732445 -47.14149971 3.33732445 -48.21440125 3.37062073 C-52.34319403 3.41256067 -54.67472227 3.00055127 -57.671875 0.08203125 C-42.33671001 -8.1881819 -14.54503099 -10.44095061 0 0 Z " fill="#272324" transform="translate(546.671875,18.91796875)"/>
<path d="M0 0 C2.08203125 1.828125 2.08203125 1.828125 3.8125 4.25 C4.39644531 5.03890625 4.98039062 5.8278125 5.58203125 6.640625 C6.89621255 8.82730683 7.55988013 10.50789268 8 13 C-13.84636455 17.400482 -35.61872191 19.2843071 -57.875 19.25 C-58.73409973 19.24922455 -59.59319946 19.2484491 -60.47833252 19.24765015 C-62.94142716 19.24118835 -65.40418452 19.22494325 -67.8671875 19.203125 C-68.6004425 19.19873917 -69.33369751 19.19435333 -70.08917236 19.18983459 C-74.15430417 19.13411336 -78.00995604 18.78033781 -82 18 C-81.45670805 13.5178414 -80.21657214 9.25887245 -77 6 C-73.51239429 4.84886007 -70.06140761 4.83842476 -66.41015625 4.765625 C-65.35581894 4.71605652 -64.30148163 4.66648804 -63.2151947 4.61541748 C-59.83141824 4.46171071 -56.44814549 4.35371358 -53.0625 4.25 C-48.65684839 4.08297025 -44.25221529 3.89669597 -39.84765625 3.703125 C-38.76763336 3.65845093 -37.68761047 3.61377686 -36.57485962 3.56774902 C-27.69778426 3.15232412 -19.02858844 2.0373351 -10.26342773 0.61230469 C-6.80412432 0.07802262 -3.5080719 -0.27919608 0 0 Z " fill="#738FA1" transform="translate(433,302)"/>
<path d="M0 0 C6.4445417 6.99693099 9.63310006 15.3420495 12.1875 24.375 C12.40277344 25.11234375 12.61804688 25.8496875 12.83984375 26.609375 C14.66921403 33.71320705 14.82225617 41.07973515 15.1875 48.375 C11.50526446 44.74642181 7.98332526 41.00626503 4.5 37.1875 C-9.91187229 21.5470167 -25.35133943 8.43346958 -43.74609375 -2.34375 C-44.42800781 -2.7665625 -45.10992187 -3.189375 -45.8125 -3.625 C-45.8125 -3.955 -45.8125 -4.285 -45.8125 -4.625 C-30.13252501 -6.43185968 -14.08506437 -8.13803719 0 0 Z " fill="#D5D4D8" transform="translate(540.8125,26.625)"/>
<path d="M0 0 C-1.66666667 1.66666667 -3.33333333 3.33333333 -5 5 C-5.38309326 5.5458374 -5.76618652 6.0916748 -6.16088867 6.65405273 C-9.16789319 8.85471859 -12.53688161 8.3234791 -16.11328125 8.22265625 C-17.3222834 8.20917397 -17.3222834 8.20917397 -18.55570984 8.19541931 C-21.14174281 8.16539029 -23.72684827 8.11575031 -26.3125 8.0625 C-50.57042111 7.60227249 -73.33946986 9.56244227 -92.375 26.625 C-101.57726681 36.64611258 -104.1678934 47.92403918 -105 61 C-109.05500226 54.84479737 -107.65402095 44.26302747 -106.5703125 37.19921875 C-103.06791733 25.02731454 -92.16624673 16.82598839 -81.65844727 10.79785156 C-56.79452291 -2.85392832 -27.43915231 -3.4843368 0 0 Z " fill="#D3D2D6" transform="translate(277,45)"/>
<path d="M0 0 C6.90391766 6.65541984 10.6064127 13.8581236 13.6875 22.8125 C13.91155518 23.4636377 14.13561035 24.11477539 14.36645508 24.78564453 C15.41712154 28.06324379 15.86559092 29.52822725 14.75 32.875 C14.00556641 31.28171875 14.00556641 31.28171875 13.24609375 29.65625 C8.11560895 18.89266593 3.09711457 9.10277778 -8.25 3.875 C-13.37422656 2.12148595 -18.17584302 1.45901174 -23.5625 1.4375 C-24.76628296 1.42626099 -24.76628296 1.42626099 -25.99438477 1.41479492 C-34.51574107 1.54082911 -42.69284111 3.37466792 -50.91333008 5.53540039 C-59.36369026 7.50778517 -64.6600669 5.94452133 -72.25 1.875 C-70.02274556 -0.67350572 -68.34636394 -1.63334929 -65.07421875 -2.44140625 C-64.25373047 -2.64741455 -63.43324219 -2.85342285 -62.58789062 -3.06567383 C-61.71326172 -3.27087646 -60.83863281 -3.4760791 -59.9375 -3.6875 C-58.58108398 -4.0117395 -58.58108398 -4.0117395 -57.19726562 -4.3425293 C-38.3156702 -8.75259632 -15.9874294 -13.32285783 0 0 Z " fill="#D5D4D8" transform="translate(548.25,12.125)"/>
<path d="M0 0 C0.99 0 1.98 0 3 0 C2.49545927 7.49472324 0.07462106 13.94296858 -2.5625 20.9375 C-3.03853124 22.21747539 -3.51418803 23.4975901 -3.98950195 24.77783203 C-10.76385663 42.93835955 -17.90032484 60.96486971 -25 79 C-24.07006226 79.18828369 -24.07006226 79.18828369 -23.12133789 79.38037109 C-21.90305298 79.63681396 -21.90305298 79.63681396 -20.66015625 79.8984375 C-19.85457275 80.06520996 -19.04898926 80.23198242 -18.21899414 80.40380859 C-15.05159343 81.25481448 -13.70421075 82.18434745 -12 85 C-11.15614761 90.06311435 -11.52141406 92.88489733 -14.4375 97.125 C-17.95536228 101.39367701 -22.26351664 104.22126309 -27 107 C-26.071875 107.433125 -25.14375 107.86625 -24.1875 108.3125 C-19.30513595 110.89728097 -19.30513595 110.89728097 -18 113 C-17.06382207 119.90431224 -18.93708354 123.52750028 -23 129 C-23.556875 129.845625 -24.11375 130.69125 -24.6875 131.5625 C-31.13901629 138.3627469 -40.15401313 144.62103592 -49.67578125 145.23828125 C-53.12771848 145.2486891 -56.5529901 145.17651829 -60 145 C-60 144.01 -60 143.02 -60 142 C-58.85724609 141.96132813 -58.85724609 141.96132813 -57.69140625 141.921875 C-46.27629458 141.29482767 -36.43693299 137.34065408 -28.171875 129.19921875 C-23.44069621 123.83645056 -21.71814224 120.32830163 -22 113 C-27.83579076 111.31557858 -32.94460204 110.73856989 -39 110.875 C-39.77472656 110.88402344 -40.54945313 110.89304687 -41.34765625 110.90234375 C-43.23190843 110.92560612 -45.11599832 110.9614636 -47 111 C-47 110.01 -47 109.02 -47 108 C-45.96101562 107.78085937 -44.92203125 107.56171875 -43.8515625 107.3359375 C-34.09908643 105.16468893 -25.78179902 102.66516977 -18.4375 95.5 C-16.74101876 92.54959784 -16.07406634 90.40705174 -16 87 C-17.66463723 84.67505667 -18.65959199 84.0702259 -21.48046875 83.48828125 C-22.37378906 83.43027344 -23.26710938 83.37226563 -24.1875 83.3125 C-25.08855469 83.24675781 -25.98960937 83.18101562 -26.91796875 83.11328125 C-27.60503906 83.07589844 -28.29210937 83.03851563 -29 83 C-28.46284199 75.95973378 -25.84218286 69.79855466 -23.30078125 63.26171875 C-22.82258997 62.01475734 -22.34516237 60.76750282 -21.86845398 59.51997375 C-20.61268705 56.23824198 -19.34892055 52.95965734 -18.08270264 49.6819458 C-15.83362099 43.85793115 -13.59555184 38.02969529 -11.36328125 32.19921875 C-11.12498722 31.5775671 -10.88669319 30.95591545 -10.64117813 30.31542587 C-6.80685419 20.29823227 -3.23287908 10.22666553 0 0 Z " fill="#221F20" transform="translate(565,368)"/>
<path d="M0 0 C1.62566606 0.47690204 3.25051311 0.95659666 4.875 1.4375 C5.77992187 1.70433594 6.68484375 1.97117188 7.6171875 2.24609375 C10 3 10 3 12 4 C14.17275055 12.62702251 14.35628144 21.58920731 14.3125 30.4375 C14.30758545 31.61965088 14.3026709 32.80180176 14.29760742 34.01977539 C14.08541683 49.81001965 10.30683083 63.46294235 2 77 C-0.6325634 74.54294083 -2.84701619 72.45895144 -4 69 C-3.30969484 64.0793632 -1.52615388 59.46408136 0.09570312 54.79101562 C2.96020656 46.40395601 4.38693183 38.99706104 4.375 30.125 C4.37628906 29.12718506 4.37757812 28.12937012 4.37890625 27.10131836 C4.24724431 17.70619153 2.52179367 9.01766397 0 0 Z " fill="#04AA85" transform="translate(93,243)"/>
<path d="M0 0 C0.99 0 1.98 0 3 0 C3 0.99 3 1.98 3 3 C4.32 2.67 5.64 2.34 7 2 C7 1.34 7 0.68 7 0 C8.98 0 10.96 0 13 0 C13.96742586 2.30904474 14.92391841 4.62172693 15.875 6.9375 C16.14441406 7.57751953 16.41382812 8.21753906 16.69140625 8.87695312 C20.21959828 17.52532628 21.4132004 25.74164402 21.4375 35.0625 C21.44064209 36.06240967 21.44378418 37.06231934 21.44702148 38.0925293 C21.29455108 47.65832314 19.29125897 56.41748205 15 65 C13.02 64.34 11.04 63.68 9 63 C9.27714844 62.33613281 9.55429688 61.67226563 9.83984375 60.98828125 C10.20207031 60.10527344 10.56429687 59.22226562 10.9375 58.3125 C11.29714844 57.44238281 11.65679687 56.57226562 12.02734375 55.67578125 C16.34402596 43.80057115 15.71029631 28.16150213 10.5 16.734375 C8.24541024 12.62444575 5.74531971 8.79453672 3 5 C1.98511532 3.34235502 0.97597602 1.68084758 0 0 Z " fill="#B1BBBB" transform="translate(62,238)"/>
<path d="M0 0 C2.8125 0.1875 2.8125 0.1875 6 1 C14.04200709 12.01833815 13.38046606 30.03121795 12 43 C10.27011371 52.34809807 7.5252113 61.61544933 3 70 C2.01 69.34 1.02 68.68 0 68 C0.48906267 64.28312372 1.32314151 60.81819841 2.4375 57.25 C8.2874864 37.86475096 7.00166433 19.00451748 0 0 Z " fill="#B1BCBB" transform="translate(86,241)"/>
<path d="M0 0 C0.99 0.33 1.98 0.66 3 1 C1.70565652 3.88595246 0.39952843 5.7608178 -1.9375 7.875 C-5.37565252 11.19949458 -8.28445858 14.83701083 -11.1875 18.625 C-15.04023853 23.62389131 -19.03507518 28.42051048 -23.3125 33.0625 C-23.79162842 33.58602051 -24.27075684 34.10954102 -24.7644043 34.64892578 C-33.20321569 43.68477468 -33.20321569 43.68477468 -38.5625 44.625 C-43.68385844 43.69384392 -45.56598181 41.0203225 -48.5 36.88671875 C-49.015625 36.16097656 -49.53125 35.43523437 -50.0625 34.6875 C-50.52785156 33.99011719 -50.99320313 33.29273438 -51.47265625 32.57421875 C-51.97667969 32.05472656 -52.48070312 31.53523438 -53 31 C-54.32 31 -55.64 31 -57 31 C-60.10032169 37.20064339 -58.40440591 47.50785528 -56.7109375 54.09765625 C-55.58928123 57.09901121 -53.88707998 59.42099069 -52 62 C-52 62.66 -52 63.32 -52 64 C-52.99 64 -53.98 64 -55 64 C-60.28000271 54.34686527 -63.41392606 45.15622148 -62 34 C-60.97939897 31.31171584 -60.03407797 30.14708231 -58 28 C-56.0703125 27.19921875 -56.0703125 27.19921875 -54 27 C-48.40847681 30.05108229 -44.54845164 35.8787914 -41 41 C-33.70704057 40.35650358 -29.36772758 34.51268436 -24.90234375 29.28515625 C-22.06984435 25.88266724 -19.27136862 22.45301299 -16.4765625 19.01953125 C-13.71880718 15.65715765 -10.93015249 12.32284758 -8.125 9 C-7.66061523 8.44803955 -7.19623047 7.8960791 -6.71777344 7.32739258 C-4.56690238 4.78591893 -2.41084814 2.29908697 0 0 Z " fill="#231F20" transform="translate(199,295)"/>
<path d="M0 0 C2.01182457 1.31542376 4.01399663 2.6459068 6 4 C8.54295238 3.23290201 8.54295238 3.23290201 11 2 C14.22457063 2.32245706 16.92734147 2.97578049 20 4 C20.66 3.67 21.32 3.34 22 3 C24.875 2.625 24.875 2.625 28 3 C32 7 32 7 32 10 C30.68 10.33 29.36 10.66 28 11 C27.505 8.525 27.505 8.525 27 6 C23.54074837 7.2491742 20.85306797 8.67527795 18 11 C18 10.01 18 9.02 18 8 C17.34 8 16.68 8 16 8 C16 7.34 16 6.68 16 6 C14.02 6 12.04 6 10 6 C9.34 8.31 8.68 10.62 8 13 C6.12452035 11.21829434 4.54194618 9.41702241 2.9375 7.375 C1.22133095 4.93968019 1.22133095 4.93968019 -1 4 C-4.34060496 3.70305734 -6.60934308 3.84906437 -9.75 5.0625 C-12.86427492 7.74423674 -13.25519732 10.00514925 -14 14 C-14.16847091 17.29219428 -14.16847091 17.29219428 -14 20 C-14.66 20 -15.32 20 -16 20 C-18.44367549 15.79144777 -17.99206741 12.67477416 -16.83984375 8.15625 C-13.81306831 0.38518003 -7.43475799 -0.99213831 0 0 Z " fill="#222121" transform="translate(37,230)"/>
<path d="M0 0 C4.22623802 0.31305467 7.15438678 3.09775766 10 6 C11.02091219 7.38061182 12.02049082 8.77721192 13 10.1875 C15.55226249 13.77282111 17.55679135 15.15367454 22 16 C22 16.33 22 16.66 22 17 C17.8853081 17.40340117 15.7644606 17.59665217 12.4375 15 C11.0809594 13.33041157 9.74514863 11.64095158 8.5 9.88671875 C7.7265625 8.79810547 7.7265625 8.79810547 6.9375 7.6875 C6.47214844 6.99011719 6.00679687 6.29273438 5.52734375 5.57421875 C5.02332031 5.05472656 4.51929688 4.53523438 4 4 C2.68 4 1.36 4 0 4 C-3.10032169 10.20064339 -1.40440591 20.50785528 0.2890625 27.09765625 C1.41071877 30.09901121 3.11292002 32.42099069 5 35 C5 35.66 5 36.32 5 37 C4.01 37 3.02 37 2 37 C-3.26269362 27.37851051 -6.46191187 18.12772914 -5 7 C-3.79051488 4.20340772 -2.16444254 2.16444254 0 0 Z " fill="#444143" transform="translate(142,322)"/>
<path d="M0 0 C0.66 0 1.32 0 2 0 C7.18176654 19.25241322 11.32309575 38.96806337 11 59 C10.01 58.67 9.02 58.34 8 58 C7.93530518 57.17612793 7.87061035 56.35225586 7.80395508 55.50341797 C6.52822286 39.75442158 4.93598493 24.55757889 0.98828125 9.2109375 C0.18915875 6.06529449 -0.24681864 3.26867923 0 0 Z " fill="#3C3C40" transform="translate(373,418)"/>
<path d="M0 0 C0.66 0 1.32 0 2 0 C2.55945313 1.05574219 3.11890625 2.11148437 3.6953125 3.19921875 C8.51502416 12.15288993 13.66662429 20.79014578 19.3125 29.25 C19.89854004 30.13002686 20.48458008 31.01005371 21.08837891 31.91674805 C23.56231443 35.58109309 26.00676903 39.08328252 28.98046875 42.359375 C31 45 31 45 30.8125 47.375 C30.544375 47.91125 30.27625 48.4475 30 49 C0 12.03097345 0 12.03097345 0 0 Z " fill="#343336" transform="translate(299,484)"/>
<path d="M0 0 C0.66 0 1.32 0 2 0 C2.05039358 4.40672442 2.0861752 8.813285 2.10986328 13.22021484 C2.11976443 14.71145558 2.13328888 16.20267779 2.15087891 17.69384766 C2.27260379 28.29823297 1.57481044 38.51073269 0 49 C-0.99 48.67 -1.98 48.34 -3 48 C-2.86722656 47.13246094 -2.73445313 46.26492188 -2.59765625 45.37109375 C-0.5490007 30.31272779 -0.35377834 15.1736395 0 0 Z " fill="#2F2C2D" transform="translate(382,477)"/>
<path d="M0 0 C-4.84448273 3.22965515 -10.44159268 4.39029575 -16 6 C-16.82242187 6.24363281 -17.64484375 6.48726563 -18.4921875 6.73828125 C-22.08494765 7.73476378 -24.44761248 8.08048548 -28 7 C-18.13601617 1.89256173 -11.19398855 -0.3260385 0 0 Z " fill="#7591A2" transform="translate(479,304)"/>
<path d="M0 0 C5.0756332 2.66536717 7.55933505 6.135333 10.83984375 10.72265625 C13.38635375 13.40731326 15.4527138 14.10687104 19 15 C19 15.33 19 15.66 19 16 C14.8853081 16.40340117 12.7644606 16.59665217 9.4375 14 C1.34782609 4.04347826 1.34782609 4.04347826 0 0 Z " fill="#312D2F" transform="translate(145,323)"/>
<path d="M0 0 C0.66 0.33 1.32 0.66 2 1 C-3.83098592 6.99295775 -3.83098592 6.99295775 -7 9 C-7.99 9 -8.98 9 -10 9 C-8.60064115 5.59635112 -7.12995268 4.09193812 -4 2.1875 C-3.29875 1.74792969 -2.5975 1.30835938 -1.875 0.85546875 C-1.25625 0.57316406 -0.6375 0.29085937 0 0 Z " fill="#272324" transform="translate(608,198)"/>
<path d="M0 0 C1.75074015 2.62611022 3.15770769 5.18202857 4.5625 8 C4.99691406 8.86625 5.43132812 9.7325 5.87890625 10.625 C7 13 7 13 8 16 C7.01 16 6.02 16 5 16 C-0.74031891 5.62642369 -0.74031891 5.62642369 0 0 Z " fill="#343132" transform="translate(139,343)"/>
<path d="M0 0 C0.66 0 1.32 0 2 0 C2.50471197 1.76949612 3.00360685 3.54065223 3.5 5.3125 C3.7784375 6.29863281 4.056875 7.28476562 4.34375 8.30078125 C5 11 5 11 5 14 C4.01 13.67 3.02 13.34 2 13 C0.5946484 8.56204759 -0.29241839 4.67869431 0 0 Z " fill="#3A3738" transform="translate(373,418)"/>
<path d="M0 0 C0.33 0 0.66 0 1 0 C0.67 4.29 0.34 8.58 0 13 C-0.99 12.67 -1.98 12.34 -3 12 C-2.69230293 10.18667846 -2.37870936 8.37435655 -2.0625 6.5625 C-1.80146484 5.04849609 -1.80146484 5.04849609 -1.53515625 3.50390625 C-1 1 -1 1 0 0 Z " fill="#363538" transform="translate(382,513)"/>
<path d="M0 0 C0.66 0 1.32 0 2 0 C2 2.97 2 5.94 2 9 C1.01 8.67 0.02 8.34 -1 8 C-1.04241723 5.66705225 -1.04092937 3.33297433 -1 1 C-0.67 0.67 -0.34 0.34 0 0 Z " fill="#494A4E" transform="translate(382,468)"/>
</svg>
