<svg width="55" height="72" viewBox="0 0 55 72" fill="none" xmlns="http://www.w3.org/2000/svg">
<path d="M33.011 67.4917C44.9643 65.3561 52.1096 49.3819 48.9705 31.8124C45.8314 14.2429 33.5966 1.73138 21.6433 3.86704C9.69003 6.00271 2.5447 21.9769 5.6838 39.5463C8.82289 57.1158 21.0577 69.6274 33.011 67.4917Z" fill="#9A6170"/>
<mask id="mask0_2002_50" style="mask-type:luminance" maskUnits="userSpaceOnUse" x="4" y="3" width="46" height="65">
<path d="M33.011 67.4916C44.9643 65.3559 52.1096 49.3818 48.9705 31.8123C45.8314 14.2428 33.5966 1.73126 21.6433 3.86692C9.68999 6.00259 2.54467 21.9767 5.68376 39.5462C8.82286 57.1157 21.0576 69.6273 33.011 67.4916Z" fill="white"/>
</mask>
<g mask="url(#mask0_2002_50)">
<path d="M39.3275 71.8388C37.4081 73.5837 34.7906 74.2468 32.243 73.6884C15.3172 69.9891 7.11604 61.439 2.92821 52.6794C0.7296 48.0728 0.938989 38.7549 6.90665 36.3469C21.599 30.449 27.8109 39.1737 27.8109 39.1737C27.8109 39.1737 32.1384 27.9363 45.3649 28.9135C53.3567 29.5068 55.8694 38.8596 55.3459 43.6407C53.7057 58.5773 44.4226 67.1972 39.2925 71.8388H39.3275Z" fill="#F4BFBB" stroke="#231F20" stroke-width="2.16371" stroke-miterlimit="10"/>
</g>
<path d="M33.011 67.4917C44.9643 65.3561 52.1096 49.3819 48.9705 31.8124C45.8314 14.2429 33.5966 1.73138 21.6433 3.86704C9.69003 6.00271 2.5447 21.9769 5.6838 39.5463C8.82289 57.1158 21.0577 69.6274 33.011 67.4917Z" stroke="#231F20" stroke-width="2.19861" stroke-miterlimit="10"/>
</svg>
