<svg width="390" height="127" viewBox="0 0 390 127" fill="none" xmlns="http://www.w3.org/2000/svg">
<path d="M88.7122 38.292C59.4323 43.771 26.1042 53.1239 0.0697994 65.4082C-0.069795 70.6779 -6.31836e-06 75.7382 0.279182 80.6589C27.5001 65.9316 63.3061 56.2996 90.527 42.3402C92.8303 41.1536 91.2947 37.8034 88.6773 38.292H88.7122Z" fill="#231F20"/>
<path d="M95.4482 59.4056C96.3556 58.5332 97.2978 57.5211 97.3327 56.2997C97.4025 54.6594 95.6576 53.3682 93.9476 53.1937C92.2027 53.0192 90.5275 53.6823 88.8873 54.3454C58.2463 66.7693 29.3503 83.1018 3.17632 102.715C5.02594 111.474 7.67824 119.501 11.0285 126.865C32.4213 110.044 53.8142 93.2573 75.1721 76.4362C82.1169 70.9571 89.0967 65.478 95.4133 59.3707L95.4482 59.4056Z" fill="#231F20"/>
<path d="M290.881 8.1396C319.289 12.467 352.721 10.7221 380.466 17.1085C378.721 12.2925 376.732 7.51142 374.533 2.80011C348.813 -1.38773 317.683 -0.480354 290.986 2.90481C287.95 3.2887 287.88 7.68592 290.916 8.1396H290.881Z" fill="#231F20"/>
<path d="M286.062 24.8561C284.667 25.7285 283.724 27.6131 284.457 29.0439C285.016 30.1258 286.237 30.6492 287.389 31.068C295.38 33.9646 303.651 36.0236 311.922 38.1175C337.747 44.5738 363.572 51.03 389.397 57.4514C388.769 49.0408 387.338 40.5604 385.14 32.1499C354.289 25.1353 322.462 22.3085 290.844 23.8091C289.203 23.8789 287.458 23.9836 286.062 24.8561Z" fill="#231F20"/>
</svg>
