<svg width="242" height="119" viewBox="0 0 242 119" fill="none" xmlns="http://www.w3.org/2000/svg">
<path d="M234.564 5.39391L140.163 60.6733C155.239 83.2876 181.553 93.6525 202.945 87.1264C231.178 78.5414 249.779 40.8858 234.564 5.35901V5.39391Z" fill="white" stroke="#231F20" stroke-width="2.19861" stroke-miterlimit="10"/>
<path d="M160.859 60.3243C169.374 74.8421 188.01 79.693 202.528 71.2127C217.046 62.6974 221.897 44.0615 213.416 29.5437C211.602 26.4726 209.333 23.8552 206.751 21.6915L157.265 50.6923C157.893 54.0076 159.079 57.2532 160.859 60.3592V60.3243Z" fill="#231F20" stroke="#231F20" stroke-width="2.19861" stroke-miterlimit="10"/>
<path d="M174.383 62.2365C178.065 62.2365 181.049 59.2522 181.049 55.5709C181.049 51.8896 178.065 48.9053 174.383 48.9053C170.702 48.9053 167.718 51.8896 167.718 55.5709C167.718 59.2522 170.702 62.2365 174.383 62.2365Z" fill="white"/>
<path d="M1.16096 57.3229L110.254 65.4542C106.659 92.396 87.6048 113.265 65.514 116.825C36.3737 121.536 3.11529 95.8858 1.16096 57.3229Z" fill="white" stroke="#231F20" stroke-width="2.19861" stroke-miterlimit="10"/>
<path d="M30.7885 69.7118C29.5322 86.4981 42.1306 101.086 58.8819 102.342C75.6681 103.598 90.2557 91 91.5121 74.2487C91.7913 70.689 91.3725 67.234 90.5 63.9885L33.3012 59.7308C31.9402 62.8019 31.0328 66.1522 30.7885 69.7118Z" fill="#231F20" stroke="#231F20" stroke-width="2.19861" stroke-miterlimit="10"/>
<path d="M48.7144 81.4654C52.3958 81.4654 55.38 78.4811 55.38 74.7998C55.38 71.1185 52.3958 68.1342 48.7144 68.1342C45.0331 68.1342 42.0488 71.1185 42.0488 74.7998C42.0488 78.4811 45.0331 81.4654 48.7144 81.4654Z" fill="white"/>
</svg>
