<svg width="239" height="112" viewBox="0 0 239 112" fill="none" xmlns="http://www.w3.org/2000/svg">
<mask id="mask0_2085_486" style="mask-type:alpha" maskUnits="userSpaceOnUse" x="0" y="0" width="231" height="112">
<rect y="0.890259" width="230.943" height="111.11" fill="#D9D9D9"/>
</mask>
<g mask="url(#mask0_2085_486)">
</g>
<g clip-path="url(#clip0_2085_486)">
<path d="M222.793 2.61961C218.966 1.70428 214.682 2.37633 210.608 3.09894C184.541 7.71448 149.449 15.5134 122.708 22.09C94.7326 25.4283 49.4422 32.6112 21.414 37.9875C17.3513 38.7652 13.1096 39.6655 9.87668 41.8826C6.64377 44.0998 4.88033 48.062 7.11824 50.6102C8.809 52.5344 12.0887 53.0618 14.6596 54.2453C21.0605 57.1948 22.5611 63.8133 24.2322 69.6143C26.184 76.4021 29.1019 82.9547 32.9266 89.1161C34.1486 91.0901 35.521 93.0771 37.7147 94.4035C42.2421 97.1445 48.9232 96.4216 54.8694 95.5409C66.4459 93.8297 78.2871 91.9027 88.6828 87.0818C99.0784 82.2608 107.893 73.9112 108.642 64.7518C109.092 59.2684 106.669 54.0785 106.431 48.6323C106.193 43.1861 111.874 36.1474 118.621 34.3167L119.307 34.1902C126.268 33.4889 133.463 38.1572 135.231 43.3214C137.003 48.4848 136.643 54.1837 139.071 59.1406C143.124 67.4145 154.401 72.059 165.86 72.8498C177.319 73.6406 189.066 71.2177 200.488 68.688C206.355 67.3902 212.845 65.6843 216.067 61.5141C217.627 59.4916 218.179 57.1537 218.596 54.8776C219.902 47.7701 220.228 40.6193 219.562 33.5943C218.991 27.5904 217.967 20.8841 222.86 15.8519C224.824 13.8321 227.684 12.1724 228.561 9.77481C229.72 6.60028 226.624 3.53014 222.797 2.6148L222.793 2.61961Z" fill="black"/>
<path d="M62.5224 33.4532L31.739 77.6747C35.2227 85.8865 36.8071 92.1922 44.7384 93.3321C52.6697 94.4721 59.4724 92.7004 59.4724 92.7004L80.2653 31.3991L62.5232 33.4571L62.5224 33.4532Z" fill="white"/>
<path d="M168.658 14.9811L147.381 61.4979C156.151 71.2029 177.78 70.0125 177.78 70.0125L182.577 12.4144L168.658 14.9811Z" fill="white"/>
</g>
<defs>
<clipPath id="clip0_2085_486">
<rect width="226.3" height="62.9473" fill="white" transform="matrix(0.983419 -0.181348 0.186181 0.982516 4.73242 41.0392)"/>
</clipPath>
</defs>
</svg>
