<svg width="2237" height="419" viewBox="0 0 2237 419" fill="none" xmlns="http://www.w3.org/2000/svg">
<path d="M25.8738 61.0294C40.1636 61.0294 51.7477 49.4976 51.7477 35.2725C51.7477 21.0474 40.1636 9.51562 25.8738 9.51562C11.5841 9.51562 0 21.0474 0 35.2725C0 49.4976 11.5841 61.0294 25.8738 61.0294Z" fill="#FF0D00"/>
<path d="M193.024 84.5859H142.352V251.507H193.024V84.5859Z" fill="#1400F5"/>
<path d="M261.586 60.7351L261.586 10.0625L73.7993 10.0625L73.7993 60.7351L261.586 60.7351Z" fill="#1400F5"/>
<path d="M50.6726 84.5859H0V251.507H50.6726V84.5859Z" fill="#1400F5"/>
<path d="M901.773 187.773L879.259 210.146V251.568H832.43V27.2266H879.259V154.212L947.702 83.0016H1003.54L936.295 157.84L1009.54 251.568H952.806L901.773 187.773Z" fill="#1400F5"/>
<path d="M753.226 107.659C758.835 99.6473 766.347 93.5867 775.763 89.4779C785.378 85.3691 796.396 83.3147 808.816 83.3147V127.69C803.608 127.279 800.102 127.074 798.299 127.074C784.877 127.074 774.36 130.977 766.748 138.784C759.136 146.385 755.329 157.89 755.329 173.298V251.571H708.453V82.8281H753.226V107.659Z" fill="#1400F5"/>
<path d="M684.83 82.8359V252.051H639.797V232.891C628.11 247.313 611.185 254.523 589.021 254.523C573.707 254.523 559.804 251.021 547.312 244.016C535.021 237.011 525.349 227.019 518.297 214.039C511.245 201.06 507.719 186.02 507.719 168.919C507.719 151.819 511.245 136.779 518.297 123.8C525.349 110.82 535.021 100.828 547.312 93.8228C559.804 86.8179 573.707 83.3155 589.021 83.3155C609.775 83.3155 625.995 90.0114 637.681 103.403V82.8359H684.83ZM597.181 214.966C609.069 214.966 618.942 210.846 626.801 202.605C634.659 194.158 638.588 182.929 638.588 168.919C638.588 154.91 634.659 143.784 626.801 135.543C618.942 127.096 609.069 122.873 597.181 122.873C585.092 122.873 575.118 127.096 567.26 135.543C559.401 143.784 555.472 154.91 555.472 168.919C555.472 182.929 559.401 194.158 567.26 202.605C575.118 210.846 585.092 214.966 597.181 214.966Z" fill="#1400F5"/>
<path d="M405.806 83.3156C420.415 83.3156 433.659 86.8525 445.541 93.9264C457.617 100.798 467.063 110.6 473.881 123.333C480.698 135.864 484.106 150.517 484.106 167.292C484.106 184.067 480.698 198.821 473.881 211.554C467.063 224.085 457.617 233.887 445.541 240.961C433.659 247.833 420.415 251.269 405.806 251.269C385.745 251.269 369.968 244.7 358.476 231.563V307.657H312.898V82.7891H356.431V104.537C367.728 90.3895 384.186 83.3156 405.806 83.3156ZM397.918 212.464C409.605 212.464 419.149 208.421 426.55 200.337C434.146 192.05 437.944 181.036 437.944 167.292C437.944 153.549 434.146 142.635 426.55 134.55C419.149 126.264 409.605 122.121 397.918 122.121C386.232 122.121 376.59 126.264 368.994 134.55C361.592 142.635 357.892 153.549 357.892 167.292C357.892 181.036 361.592 192.05 368.994 200.337C376.59 208.421 386.232 212.464 397.918 212.464Z" fill="#1400F5"/>
<path d="M933.533 328.148C941.436 328.148 947.505 330.185 951.742 334.259C955.978 338.251 958.096 344.157 958.096 351.978V392.428H952.23V381.063C950.194 384.811 947.22 387.744 943.309 389.862C939.399 391.899 934.714 392.917 929.256 392.917C922.168 392.917 916.546 391.247 912.391 387.907C908.318 384.566 906.281 380.167 906.281 374.709C906.281 369.413 908.155 365.136 911.903 361.877C915.732 358.537 921.801 356.867 930.111 356.867H951.986V351.734C951.986 345.787 950.357 341.265 947.098 338.169C943.92 335.073 939.236 333.525 933.044 333.525C928.808 333.525 924.734 334.259 920.824 335.725C916.995 337.192 913.736 339.147 911.047 341.591L907.992 337.192C911.169 334.34 914.999 332.14 919.479 330.593C923.96 328.963 928.645 328.148 933.533 328.148ZM930.111 387.907C935.407 387.907 939.888 386.685 943.554 384.241C947.301 381.796 950.112 378.252 951.986 373.609V361.633H930.233C923.96 361.633 919.398 362.773 916.546 365.054C913.776 367.336 912.391 370.472 912.391 374.464C912.391 378.619 913.939 381.919 917.035 384.363C920.131 386.725 924.49 387.907 930.111 387.907Z" fill="#1400F5"/>
<path d="M880.166 328.637H886.276V392.428H880.166V328.637ZM883.221 313.117C881.836 313.117 880.655 312.669 879.677 311.773C878.7 310.795 878.211 309.614 878.211 308.229C878.211 306.844 878.7 305.663 879.677 304.685C880.655 303.708 881.836 303.219 883.221 303.219C884.606 303.219 885.788 303.708 886.765 304.685C887.743 305.581 888.232 306.722 888.232 308.107C888.232 309.492 887.743 310.673 886.765 311.651C885.788 312.629 884.606 313.117 883.221 313.117Z" fill="#1400F5"/>
<path d="M848.297 301.75H854.407V392.426H848.297V301.75Z" fill="#1400F5"/>
<path d="M797.45 392.917C791.421 392.917 785.963 391.532 781.075 388.762C776.268 385.992 772.48 382.163 769.71 377.275C766.94 372.305 765.555 366.724 765.555 360.533C765.555 354.341 766.94 348.801 769.71 343.913C772.48 338.943 776.268 335.073 781.075 332.303C785.963 329.533 791.421 328.148 797.45 328.148C803.479 328.148 808.897 329.533 813.703 332.303C818.592 335.073 822.421 338.943 825.191 343.913C827.961 348.801 829.346 354.341 829.346 360.533C829.346 366.724 827.961 372.305 825.191 377.275C822.421 382.163 818.592 385.992 813.703 388.762C808.897 391.532 803.479 392.917 797.45 392.917ZM797.45 387.418C802.338 387.418 806.697 386.277 810.526 383.996C814.437 381.715 817.492 378.538 819.691 374.464C821.973 370.391 823.113 365.747 823.113 360.533C823.113 355.319 821.973 350.675 819.691 346.601C817.492 342.528 814.437 339.351 810.526 337.069C806.697 334.788 802.338 333.648 797.45 333.648C792.562 333.648 788.163 334.788 784.252 337.069C780.423 339.351 777.368 342.528 775.087 346.601C772.887 350.675 771.787 355.319 771.787 360.533C771.787 365.747 772.887 370.391 775.087 374.464C777.368 378.538 780.423 381.715 784.252 383.996C788.163 386.277 792.562 387.418 797.45 387.418Z" fill="#1400F5"/>
<path d="M746.66 328.637V385.585C746.66 396.176 744.094 403.997 738.961 409.048C733.828 414.099 726.089 416.625 715.742 416.625C709.876 416.625 704.336 415.729 699.122 413.936C693.908 412.144 689.712 409.659 686.535 406.482L689.835 401.838C693.012 404.771 696.841 407.052 701.322 408.682C705.803 410.311 710.569 411.126 715.62 411.126C724.093 411.126 730.366 409.089 734.439 405.015C738.513 401.023 740.55 394.791 740.55 386.318V375.564C737.943 380.208 734.317 383.792 729.673 386.318C725.03 388.844 719.815 390.106 714.031 390.106C708.084 390.106 702.666 388.803 697.778 386.196C692.971 383.507 689.183 379.8 686.413 375.075C683.643 370.35 682.258 365.014 682.258 359.066C682.258 353.119 683.643 347.783 686.413 343.057C689.183 338.332 692.971 334.666 697.778 332.059C702.666 329.452 708.084 328.148 714.031 328.148C719.897 328.148 725.193 329.452 729.918 332.059C734.643 334.666 738.268 338.332 740.794 343.057V328.637H746.66ZM714.52 384.607C719.49 384.607 723.97 383.548 727.962 381.43C731.955 379.23 735.05 376.216 737.25 372.387C739.531 368.476 740.672 364.036 740.672 359.066C740.672 354.097 739.531 349.697 737.25 345.868C735.05 342.039 731.955 339.065 727.962 336.947C723.97 334.748 719.49 333.648 714.52 333.648C709.55 333.648 705.069 334.748 701.077 336.947C697.167 339.065 694.071 342.039 691.79 345.868C689.59 349.697 688.49 354.097 688.49 359.066C688.49 364.036 689.59 368.476 691.79 372.387C694.071 376.216 697.167 379.23 701.077 381.43C705.069 383.548 709.55 384.607 714.52 384.607Z" fill="#1400F5"/>
<path d="M638.045 328.148C646.029 328.148 652.343 330.47 656.987 335.114C661.631 339.758 663.953 346.438 663.953 355.156V392.428H657.842V355.645C657.842 348.475 656.009 343.017 652.343 339.269C648.758 335.521 643.707 333.648 637.19 333.648C629.694 333.648 623.788 335.888 619.47 340.369C615.152 344.85 612.993 350.879 612.993 358.455V392.428H606.883V328.637H612.749V342.446C614.948 337.966 618.207 334.462 622.525 331.937C626.924 329.411 632.098 328.148 638.045 328.148Z" fill="#1400F5"/>
<path d="M556.013 392.917C549.984 392.917 544.525 391.532 539.637 388.762C534.83 385.992 531.042 382.163 528.272 377.275C525.502 372.305 524.117 366.724 524.117 360.533C524.117 354.341 525.502 348.801 528.272 343.913C531.042 338.943 534.83 335.073 539.637 332.303C544.525 329.533 549.984 328.148 556.013 328.148C562.041 328.148 567.459 329.533 572.266 332.303C577.154 335.073 580.983 338.943 583.753 343.913C586.523 348.801 587.908 354.341 587.908 360.533C587.908 366.724 586.523 372.305 583.753 377.275C580.983 382.163 577.154 385.992 572.266 388.762C567.459 391.532 562.041 392.917 556.013 392.917ZM556.013 387.418C560.901 387.418 565.26 386.277 569.089 383.996C572.999 381.715 576.054 378.538 578.254 374.464C580.535 370.391 581.676 365.747 581.676 360.533C581.676 355.319 580.535 350.675 578.254 346.601C576.054 342.528 572.999 339.351 569.089 337.069C565.26 334.788 560.901 333.648 556.013 333.648C551.124 333.648 546.725 334.788 542.815 337.069C538.985 339.351 535.93 342.528 533.649 346.601C531.449 350.675 530.35 355.319 530.35 360.533C530.35 365.747 531.449 370.391 533.649 374.464C535.93 378.538 538.985 381.715 542.815 383.996C546.725 386.277 551.124 387.418 556.013 387.418Z" fill="#1400F5"/>
<path d="M497.111 392.426L496.988 319.226L461.182 381.061H458.127L422.321 319.47V392.426H416.211V306.883H421.466L459.716 372.996L497.966 306.883H503.099L503.221 392.426H497.111Z" fill="#1400F5"/>
<path d="M1009.53 393.26C1028.25 393.073 1037 383.113 1048.21 370.352C1050.35 367.911 1052.58 365.368 1054.99 362.772C1061.28 355.995 1061.28 344.921 1054.99 338.144C1052.58 335.548 1050.35 333.005 1048.21 330.565C1037 317.804 1028.25 307.844 1009.53 307.656L1009.53 321.47C1017.1 321.571 1021.69 323.798 1026.15 327.475C1028.72 329.594 1031.32 332.273 1034.45 335.764C1035.44 336.868 1036.54 338.126 1037.72 339.469L1037.72 339.47C1039.96 342.019 1042.48 344.877 1044.99 347.582C1046.35 349.048 1046.35 351.868 1044.99 353.334C1042.48 356.04 1039.96 358.898 1037.72 361.447C1036.54 362.791 1035.44 364.048 1034.45 365.153C1031.32 368.643 1028.72 371.323 1026.15 373.442C1021.69 377.119 1017.1 379.346 1009.53 379.446L1009.53 393.26Z" fill="#1400F5"/>
<path d="M1109.91 6.9375H1127.62V390.679H1109.91V6.9375Z" fill="#1400F5"/>
<path d="M2180.86 380.846L2181.34 357.709L2211.91 328.725H2234.56L2205.21 358.561L2195.35 366.598L2180.86 380.846ZM2165.15 394.242V303.883H2184.15V394.242H2165.15ZM2213.98 394.242L2191.82 366.72L2203.75 351.985L2237 394.242H2213.98Z" fill="#1400F5"/>
<path d="M2113.18 394.249V328.732H2131.32V347.242L2128.77 341.884C2130.72 337.256 2133.84 333.766 2138.14 331.411C2142.45 328.976 2147.68 327.758 2153.85 327.758V345.294C2153.04 345.213 2152.31 345.172 2151.66 345.172C2151.01 345.091 2150.32 345.05 2149.59 345.05C2144.4 345.05 2140.17 346.552 2136.93 349.556C2133.76 352.479 2132.18 357.066 2132.18 363.317V394.249H2113.18Z" fill="#1400F5"/>
<path d="M2078.21 394.249V381.462L2076.99 378.661V355.767C2076.99 351.707 2075.73 348.541 2073.21 346.268C2070.78 343.995 2067 342.858 2061.89 342.858C2058.4 342.858 2054.95 343.427 2051.54 344.563C2048.21 345.619 2045.37 347.08 2043.01 348.947L2036.19 335.673C2039.77 333.157 2044.07 331.208 2049.1 329.828C2054.14 328.448 2059.25 327.758 2064.45 327.758C2074.43 327.758 2082.18 330.112 2087.71 334.821C2093.23 339.53 2095.99 346.877 2095.99 356.863V394.249H2078.21ZM2058.24 395.223C2053.12 395.223 2048.74 394.37 2045.08 392.665C2041.43 390.879 2038.63 388.484 2036.68 385.48C2034.73 382.477 2033.76 379.107 2033.76 375.373C2033.76 371.476 2034.69 368.066 2036.56 365.144C2038.51 362.221 2041.55 359.948 2045.69 358.324C2049.83 356.619 2055.23 355.767 2061.89 355.767H2079.3V366.848H2063.96C2059.49 366.848 2056.41 367.579 2054.7 369.041C2053.08 370.502 2052.27 372.328 2052.27 374.52C2052.27 376.956 2053.2 378.905 2055.07 380.366C2057.02 381.746 2059.66 382.436 2062.98 382.436C2066.15 382.436 2068.99 381.705 2071.51 380.244C2074.03 378.702 2075.85 376.469 2076.99 373.546L2079.91 382.314C2078.53 386.536 2076.01 389.743 2072.36 391.935C2068.71 394.127 2064 395.223 2058.24 395.223Z" fill="#1400F5"/>
<path d="M1951.95 394.244V309H1988.85C1996.48 309 2003.06 310.258 2008.58 312.775C2014.1 315.211 2018.36 318.742 2021.37 323.37C2024.37 327.997 2025.87 333.518 2025.87 339.932C2025.87 346.264 2024.37 351.744 2021.37 356.372C2018.36 360.999 2014.1 364.571 2008.58 367.088C2003.06 369.524 1996.48 370.741 1988.85 370.741H1962.91L1971.68 361.852V394.244H1951.95ZM1971.68 364.044L1962.91 354.667H1987.76C1993.84 354.667 1998.39 353.368 2001.39 350.77C2004.4 348.172 2005.9 344.559 2005.9 339.932C2005.9 335.223 2004.4 331.569 2001.39 328.972C1998.39 326.374 1993.84 325.075 1987.76 325.075H1962.91L1971.68 315.698V364.044Z" fill="#1400F5"/>
<path d="M1851.63 418.842C1848.22 418.842 1844.85 418.314 1841.52 417.259C1838.19 416.204 1835.47 414.742 1833.36 412.875L1840.3 399.358C1841.76 400.657 1843.43 401.672 1845.29 402.402C1847.24 403.133 1849.15 403.498 1851.02 403.498C1853.7 403.498 1855.81 402.849 1857.35 401.55C1858.97 400.332 1860.43 398.262 1861.73 395.339L1865.14 387.302L1866.6 385.232L1890.11 328.727H1908.37L1878.78 398.262C1876.67 403.539 1874.24 407.679 1871.48 410.683C1868.8 413.687 1865.79 415.798 1862.46 417.016C1859.22 418.233 1855.6 418.842 1851.63 418.842ZM1862.83 396.8L1833.6 328.727H1853.21L1875.86 383.527L1862.83 396.8Z" fill="#1400F5"/>
<path d="M1788.88 418.848C1782.71 418.848 1776.75 418.076 1770.98 416.534C1765.3 415.073 1760.55 412.84 1756.73 409.836L1764.28 396.197C1767.05 398.47 1770.54 400.256 1774.76 401.555C1779.06 402.935 1783.28 403.625 1787.42 403.625C1794.16 403.625 1799.03 402.123 1802.04 399.12C1805.12 396.116 1806.66 391.651 1806.66 385.724V375.86L1807.88 359.42L1807.64 342.858V328.732H1825.66V383.289C1825.66 395.466 1822.49 404.437 1816.16 410.201C1809.83 415.966 1800.74 418.848 1788.88 418.848ZM1785.96 391.082C1779.87 391.082 1774.35 389.783 1769.4 387.185C1764.53 384.506 1760.59 380.812 1757.59 376.104C1754.66 371.314 1753.2 365.752 1753.2 359.42C1753.2 353.006 1754.66 347.445 1757.59 342.736C1760.59 337.947 1764.53 334.253 1769.4 331.655C1774.35 329.057 1779.87 327.758 1785.96 327.758C1791.48 327.758 1796.35 328.894 1800.57 331.168C1804.8 333.36 1808.08 336.81 1810.44 341.519C1812.79 346.146 1813.97 352.113 1813.97 359.42C1813.97 366.646 1812.79 372.613 1810.44 377.321C1808.08 381.949 1804.8 385.399 1800.57 387.673C1796.35 389.946 1791.48 391.082 1785.96 391.082ZM1789.74 375.495C1793.07 375.495 1796.03 374.845 1798.63 373.546C1801.22 372.166 1803.25 370.258 1804.72 367.823C1806.18 365.387 1806.91 362.586 1806.91 359.42C1806.91 356.173 1806.18 353.372 1804.72 351.017C1803.25 348.582 1801.22 346.715 1798.63 345.416C1796.03 344.035 1793.07 343.345 1789.74 343.345C1786.41 343.345 1783.44 344.035 1780.85 345.416C1778.25 346.715 1776.18 348.582 1774.64 351.017C1773.17 353.372 1772.44 356.173 1772.44 359.42C1772.44 362.586 1773.17 365.387 1774.64 367.823C1776.18 370.258 1778.25 372.166 1780.85 373.546C1783.44 374.845 1786.41 375.495 1789.74 375.495Z" fill="#1400F5"/>
<path d="M1709.45 395.223C1702.47 395.223 1696.26 393.761 1690.82 390.839C1685.46 387.916 1681.2 383.938 1678.03 378.905C1674.95 373.79 1673.41 367.985 1673.41 361.49C1673.41 354.914 1674.95 349.11 1678.03 344.076C1681.2 338.961 1685.46 334.983 1690.82 332.142C1696.26 329.219 1702.47 327.758 1709.45 327.758C1716.35 327.758 1722.52 329.219 1727.96 332.142C1733.4 334.983 1737.66 338.921 1740.75 343.954C1743.83 348.988 1745.38 354.833 1745.38 361.49C1745.38 367.985 1743.83 373.79 1740.75 378.905C1737.66 383.938 1733.4 387.916 1727.96 390.839C1722.52 393.761 1716.35 395.223 1709.45 395.223ZM1709.45 379.635C1712.62 379.635 1715.46 378.905 1717.98 377.443C1720.49 375.982 1722.48 373.912 1723.94 371.232C1725.41 368.472 1726.14 365.225 1726.14 361.49C1726.14 357.675 1725.41 354.427 1723.94 351.748C1722.48 349.069 1720.49 346.999 1717.98 345.537C1715.46 344.076 1712.62 343.345 1709.45 343.345C1706.29 343.345 1703.44 344.076 1700.93 345.537C1698.41 346.999 1696.38 349.069 1694.84 351.748C1693.38 354.427 1692.65 357.675 1692.65 361.49C1692.65 365.225 1693.38 368.472 1694.84 371.232C1696.38 373.912 1698.41 375.982 1700.93 377.443C1703.44 378.905 1706.29 379.635 1709.45 379.635Z" fill="#1400F5"/>
<path d="M1641.66 394.242V303.883H1660.65V394.242H1641.66Z" fill="#1400F5"/>
<path d="M1593.02 395.223C1586.04 395.223 1579.83 393.761 1574.39 390.839C1569.03 387.916 1564.77 383.938 1561.6 378.905C1558.52 373.79 1556.98 367.985 1556.98 361.49C1556.98 354.914 1558.52 349.11 1561.6 344.076C1564.77 338.961 1569.03 334.983 1574.39 332.142C1579.83 329.219 1586.04 327.758 1593.02 327.758C1599.92 327.758 1606.09 329.219 1611.53 332.142C1616.97 334.983 1621.23 338.921 1624.32 343.954C1627.4 348.988 1628.95 354.833 1628.95 361.49C1628.95 367.985 1627.4 373.79 1624.32 378.905C1621.23 383.938 1616.97 387.916 1611.53 390.839C1606.09 393.761 1599.92 395.223 1593.02 395.223ZM1593.02 379.635C1596.19 379.635 1599.03 378.905 1601.55 377.443C1604.06 375.982 1606.05 373.912 1607.51 371.232C1608.98 368.472 1609.71 365.225 1609.71 361.49C1609.71 357.675 1608.98 354.427 1607.51 351.748C1606.05 349.069 1604.06 346.999 1601.55 345.537C1599.03 344.076 1596.19 343.345 1593.02 343.345C1589.86 343.345 1587.02 344.076 1584.5 345.537C1581.98 346.999 1579.95 349.069 1578.41 351.748C1576.95 354.427 1576.22 357.675 1576.22 361.49C1576.22 365.225 1576.95 368.472 1578.41 371.232C1579.95 373.912 1581.98 375.982 1584.5 377.443C1587.02 378.905 1589.86 379.635 1593.02 379.635Z" fill="#1400F5"/>
<path d="M1517 327.758C1522.2 327.758 1526.82 328.813 1530.88 330.924C1535.02 332.954 1538.27 336.12 1540.63 340.423C1542.98 344.644 1544.16 350.084 1544.16 356.741V394.249H1525.16V359.664C1525.16 354.387 1523.98 350.49 1521.63 347.973C1519.36 345.456 1516.11 344.198 1511.89 344.198C1508.88 344.198 1506.16 344.847 1503.73 346.146C1501.37 347.364 1499.51 349.272 1498.13 351.87C1496.83 354.468 1496.18 357.796 1496.18 361.856V394.249H1477.18V328.732H1495.32V346.877L1491.91 341.397C1494.27 337.013 1497.64 333.644 1502.02 331.289C1506.41 328.935 1511.4 327.758 1517 327.758Z" fill="#1400F5"/>
<path d="M1432.81 327.751C1438 327.751 1442.63 328.807 1446.69 330.918C1450.83 332.947 1454.08 336.113 1456.43 340.416C1458.79 344.638 1459.96 350.077 1459.96 356.734V394.242H1440.96V359.657C1440.96 354.38 1439.79 350.483 1437.43 347.966C1435.16 345.45 1431.91 344.191 1427.69 344.191C1424.69 344.191 1421.97 344.841 1419.53 346.14C1417.18 347.357 1415.31 349.265 1413.93 351.863C1412.63 354.461 1411.98 357.79 1411.98 361.849V394.242H1392.98V303.883H1411.98V346.87L1407.72 341.39C1410.07 337.006 1413.44 333.637 1417.83 331.283C1422.21 328.928 1427.2 327.751 1432.81 327.751Z" fill="#1400F5"/>
<path d="M1353.17 395.223C1346.1 395.223 1339.81 393.802 1334.29 390.961C1328.77 388.038 1324.43 384.019 1321.26 378.905C1318.18 373.79 1316.63 367.985 1316.63 361.49C1316.63 354.914 1318.18 349.11 1321.26 344.076C1324.43 338.961 1328.77 334.983 1334.29 332.142C1339.81 329.219 1346.1 327.758 1353.17 327.758C1360.07 327.758 1366.07 329.219 1371.19 332.142C1376.3 334.983 1380.08 339.083 1382.51 344.441L1367.78 352.357C1366.07 349.272 1363.92 346.999 1361.33 345.537C1358.81 344.076 1356.05 343.345 1353.04 343.345C1349.8 343.345 1346.87 344.076 1344.28 345.537C1341.68 346.999 1339.61 349.069 1338.07 351.748C1336.6 354.427 1335.87 357.675 1335.87 361.49C1335.87 365.306 1336.6 368.553 1338.07 371.232C1339.61 373.912 1341.68 375.982 1344.28 377.443C1346.87 378.905 1349.8 379.635 1353.04 379.635C1356.05 379.635 1358.81 378.945 1361.33 377.565C1363.92 376.104 1366.07 373.79 1367.78 370.624L1382.51 378.661C1380.08 383.938 1376.3 388.038 1371.19 390.961C1366.07 393.802 1360.07 395.223 1353.17 395.223Z" fill="#1400F5"/>
<path d="M1277.2 395.223C1269.73 395.223 1263.15 393.761 1257.47 390.839C1251.87 387.916 1247.53 383.938 1244.44 378.905C1241.36 373.79 1239.81 367.985 1239.81 361.49C1239.81 354.914 1241.31 349.11 1244.32 344.076C1247.4 338.961 1251.58 334.983 1256.86 332.142C1262.14 329.219 1268.11 327.758 1274.76 327.758C1281.18 327.758 1286.94 329.138 1292.06 331.898C1297.25 334.577 1301.35 338.474 1304.35 343.589C1307.36 348.622 1308.86 354.671 1308.86 361.734C1308.86 362.465 1308.82 363.317 1308.74 364.291C1308.66 365.184 1308.58 366.037 1308.5 366.848H1255.28V355.767H1298.51L1291.2 359.055C1291.2 355.645 1290.51 352.682 1289.13 350.165C1287.75 347.648 1285.84 345.7 1283.41 344.32C1280.97 342.858 1278.13 342.128 1274.88 342.128C1271.64 342.128 1268.76 342.858 1266.24 344.32C1263.8 345.7 1261.89 347.689 1260.51 350.287C1259.13 352.803 1258.44 355.807 1258.44 359.298V362.221C1258.44 365.793 1259.22 368.959 1260.76 371.72C1262.38 374.399 1264.61 376.469 1267.46 377.93C1270.38 379.31 1273.79 380.001 1277.69 380.001C1281.18 380.001 1284.22 379.473 1286.82 378.417C1289.5 377.362 1291.93 375.779 1294.13 373.668L1304.23 384.628C1301.23 388.038 1297.45 390.676 1292.91 392.544C1288.36 394.33 1283.12 395.223 1277.2 395.223Z" fill="#1400F5"/>
<path d="M1195.06 394.244V325.075H1167.78V309H1242.07V325.075H1214.79V394.244H1195.06Z" fill="#1400F5"/>
<path d="M1890.3 178.555C1895.49 178.555 1900.12 179.61 1904.18 181.721C1908.32 183.751 1911.57 186.917 1913.92 191.22C1916.28 195.441 1917.45 200.881 1917.45 207.538V245.045H1898.46V210.46C1898.46 205.183 1897.28 201.287 1894.93 198.77C1892.65 196.253 1889.4 194.995 1885.18 194.995C1882.18 194.995 1879.46 195.644 1877.02 196.943C1874.67 198.161 1872.8 200.069 1871.42 202.667C1870.12 205.265 1869.47 208.593 1869.47 212.652V245.045H1850.48V179.529H1868.62V197.674L1865.21 192.194C1867.57 187.81 1870.94 184.441 1875.32 182.086C1879.7 179.732 1884.7 178.555 1890.3 178.555Z" fill="#1400F5"/>
<path d="M1801.86 246.02C1794.88 246.02 1788.67 244.558 1783.23 241.636C1777.87 238.713 1773.61 234.735 1770.44 229.701C1767.36 224.587 1765.81 218.782 1765.81 212.287C1765.81 205.711 1767.36 199.906 1770.44 194.873C1773.61 189.758 1777.87 185.78 1783.23 182.939C1788.67 180.016 1794.88 178.555 1801.86 178.555C1808.76 178.555 1814.93 180.016 1820.37 182.939C1825.81 185.78 1830.07 189.718 1833.16 194.751C1836.24 199.785 1837.78 205.63 1837.78 212.287C1837.78 218.782 1836.24 224.587 1833.16 229.701C1830.07 234.735 1825.81 238.713 1820.37 241.636C1814.93 244.558 1808.76 246.02 1801.86 246.02ZM1801.86 230.432C1805.02 230.432 1807.87 229.701 1810.38 228.24C1812.9 226.779 1814.89 224.708 1816.35 222.029C1817.81 219.269 1818.54 216.022 1818.54 212.287C1818.54 208.471 1817.81 205.224 1816.35 202.545C1814.89 199.866 1812.9 197.796 1810.38 196.334C1807.87 194.873 1805.02 194.142 1801.86 194.142C1798.69 194.142 1795.85 194.873 1793.33 196.334C1790.82 197.796 1788.79 199.866 1787.25 202.545C1785.78 205.224 1785.05 208.471 1785.05 212.287C1785.05 216.022 1785.78 219.269 1787.25 222.029C1788.79 224.708 1790.82 226.779 1793.33 228.24C1795.85 229.701 1798.69 230.432 1801.86 230.432Z" fill="#1400F5"/>
<path d="M1734.06 245.042V179.526H1753.05V245.042H1734.06ZM1743.55 170.392C1740.06 170.392 1737.22 169.378 1735.03 167.348C1732.84 165.318 1731.74 162.802 1731.74 159.798C1731.74 156.794 1732.84 154.277 1735.03 152.248C1737.22 150.218 1740.06 149.203 1743.55 149.203C1747.05 149.203 1749.89 150.177 1752.08 152.126C1754.27 153.993 1755.37 156.429 1755.37 159.432C1755.37 162.599 1754.27 165.237 1752.08 167.348C1749.97 169.378 1747.13 170.392 1743.55 170.392Z" fill="#1400F5"/>
<path d="M1707.93 246.014C1700.22 246.014 1694.21 244.065 1689.91 240.168C1685.6 236.19 1683.45 230.304 1683.45 222.51V165.031H1702.45V222.267C1702.45 225.027 1703.18 227.179 1704.64 228.721C1706.1 230.182 1708.09 230.913 1710.61 230.913C1713.61 230.913 1716.17 230.101 1718.28 228.477L1723.39 241.873C1721.45 243.253 1719.09 244.309 1716.33 245.039C1713.65 245.689 1710.85 246.014 1707.93 246.014ZM1673.34 195.597V180.984H1718.77V195.597H1673.34Z" fill="#1400F5"/>
<path d="M1646.16 245.045V232.259L1644.94 229.458V206.564C1644.94 202.504 1643.68 199.338 1641.17 197.065C1638.73 194.792 1634.96 193.655 1629.84 193.655C1626.35 193.655 1622.9 194.223 1619.49 195.36C1616.16 196.415 1613.32 197.877 1610.97 199.744L1604.15 186.47C1607.72 183.954 1612.02 182.005 1617.05 180.625C1622.09 179.245 1627.2 178.555 1632.4 178.555C1642.38 178.555 1650.14 180.909 1655.66 185.618C1661.18 190.327 1663.94 197.674 1663.94 207.66V245.045H1646.16ZM1626.19 246.02C1621.07 246.02 1616.69 245.167 1613.04 243.462C1609.38 241.676 1606.58 239.281 1604.63 236.277C1602.69 233.274 1601.71 229.904 1601.71 226.17C1601.71 222.273 1602.64 218.863 1604.51 215.94C1606.46 213.018 1609.5 210.745 1613.65 209.121C1617.79 207.416 1623.18 206.564 1629.84 206.564H1647.26V217.645H1631.91C1627.45 217.645 1624.36 218.376 1622.66 219.837C1621.03 221.299 1620.22 223.125 1620.22 225.317C1620.22 227.753 1621.15 229.701 1623.02 231.163C1624.97 232.543 1627.61 233.233 1630.94 233.233C1634.1 233.233 1636.95 232.502 1639.46 231.041C1641.98 229.498 1643.81 227.266 1644.94 224.343L1647.86 233.111C1646.48 237.333 1643.97 240.54 1640.31 242.732C1636.66 244.924 1631.95 246.02 1626.19 246.02Z" fill="#1400F5"/>
<path d="M1562.15 178.555C1567.35 178.555 1571.94 179.61 1575.92 181.721C1579.98 183.751 1583.14 186.917 1585.41 191.22C1587.77 195.441 1588.95 200.881 1588.95 207.538V245.045H1569.95V210.46C1569.95 205.183 1568.85 201.287 1566.66 198.77C1564.47 196.253 1561.38 194.995 1557.41 194.995C1554.65 194.995 1552.17 195.644 1549.98 196.943C1547.79 198.161 1546.08 200.028 1544.86 202.545C1543.64 205.062 1543.04 208.268 1543.04 212.165V245.045H1524.04V210.46C1524.04 205.183 1522.94 201.287 1520.75 198.77C1518.64 196.253 1515.6 194.995 1511.62 194.995C1508.86 194.995 1506.38 195.644 1504.19 196.943C1502 198.161 1500.29 200.028 1499.07 202.545C1497.86 205.062 1497.25 208.268 1497.25 212.165V245.045H1478.25V179.529H1496.39V197.43L1492.99 192.194C1495.26 187.729 1498.47 184.359 1502.61 182.086C1506.83 179.732 1511.62 178.555 1516.98 178.555C1522.98 178.555 1528.22 180.097 1532.68 183.182C1537.23 186.186 1540.23 190.814 1541.7 197.065L1535 195.238C1537.19 190.124 1540.68 186.064 1545.47 183.06C1550.34 180.057 1555.9 178.555 1562.15 178.555Z" fill="#1400F5"/>
<path d="M1426.28 245.045V179.529H1444.43V198.039L1441.87 192.681C1443.82 188.053 1446.94 184.562 1451.25 182.208C1455.55 179.772 1460.78 178.555 1466.96 178.555V196.091C1466.14 196.01 1465.41 195.969 1464.76 195.969C1464.11 195.888 1463.42 195.847 1462.69 195.847C1457.5 195.847 1453.28 197.349 1450.03 200.353C1446.86 203.276 1445.28 207.863 1445.28 214.114V245.045H1426.28Z" fill="#1400F5"/>
<path d="M1377.66 246.02C1370.67 246.02 1364.46 244.558 1359.02 241.636C1353.67 238.713 1349.4 234.735 1346.24 229.701C1343.15 224.587 1341.61 218.782 1341.61 212.287C1341.61 205.711 1343.15 199.906 1346.24 194.873C1349.4 189.758 1353.67 185.78 1359.02 182.939C1364.46 180.016 1370.67 178.555 1377.66 178.555C1384.56 178.555 1390.73 180.016 1396.17 182.939C1401.61 185.78 1405.87 189.718 1408.95 194.751C1412.04 199.785 1413.58 205.63 1413.58 212.287C1413.58 218.782 1412.04 224.587 1408.95 229.701C1405.87 234.735 1401.61 238.713 1396.17 241.636C1390.73 244.558 1384.56 246.02 1377.66 246.02ZM1377.66 230.432C1380.82 230.432 1383.66 229.701 1386.18 228.24C1388.7 226.779 1390.69 224.708 1392.15 222.029C1393.61 219.269 1394.34 216.022 1394.34 212.287C1394.34 208.471 1393.61 205.224 1392.15 202.545C1390.69 199.866 1388.7 197.796 1386.18 196.334C1383.66 194.873 1380.82 194.142 1377.66 194.142C1374.49 194.142 1371.65 194.873 1369.13 196.334C1366.61 197.796 1364.58 199.866 1363.04 202.545C1361.58 205.224 1360.85 208.471 1360.85 212.287C1360.85 216.022 1361.58 219.269 1363.04 222.029C1364.58 224.708 1366.61 226.779 1369.13 228.24C1371.65 229.701 1374.49 230.432 1377.66 230.432Z" fill="#1400F5"/>
<path d="M1302.54 245.044V178.067C1302.54 170.679 1304.73 164.793 1309.11 160.409C1313.5 155.944 1319.75 153.711 1327.87 153.711C1330.63 153.711 1333.27 153.995 1335.78 154.563C1338.38 155.132 1340.57 156.025 1342.36 157.242L1337.37 171.003C1336.31 170.273 1335.13 169.704 1333.83 169.299C1332.54 168.893 1331.16 168.69 1329.69 168.69C1326.93 168.69 1324.78 169.501 1323.24 171.125C1321.78 172.668 1321.05 175.022 1321.05 178.188V184.277L1321.53 192.436V245.044H1302.54ZM1292.43 195.603V180.989H1337.85V195.603H1292.43Z" fill="#1400F5"/>
<path d="M1255.84 178.555C1261.03 178.555 1265.66 179.61 1269.72 181.721C1273.86 183.751 1277.11 186.917 1279.46 191.22C1281.82 195.441 1282.99 200.881 1282.99 207.538V245.045H1264V210.46C1264 205.183 1262.82 201.287 1260.46 198.77C1258.19 196.253 1254.94 194.995 1250.72 194.995C1247.72 194.995 1245 195.644 1242.56 196.943C1240.21 198.161 1238.34 200.069 1236.96 202.667C1235.66 205.265 1235.01 208.593 1235.01 212.652V245.045H1216.02V179.529H1234.16V197.674L1230.75 192.194C1233.11 187.81 1236.47 184.441 1240.86 182.086C1245.24 179.732 1250.24 178.555 1255.84 178.555Z" fill="#1400F5"/>
<path d="M1177.4 245.041V159.797H1197.13V245.041H1177.4Z" fill="#1400F5"/>
<path d="M1678.27 95.8357V5.47656H1697.27V95.8357H1678.27Z" fill="#1400F5"/>
<path d="M1643.31 95.8423V83.0556L1642.09 80.2547V57.3605C1642.09 53.3012 1640.83 50.135 1638.32 47.8618C1635.88 45.5886 1632.1 44.452 1626.99 44.452C1623.5 44.452 1620.05 45.0203 1616.64 46.1569C1613.31 47.2123 1610.47 48.6736 1608.11 50.5409L1601.29 37.2671C1604.87 34.7504 1609.17 32.8019 1614.2 31.4218C1619.24 30.0416 1624.35 29.3516 1629.55 29.3516C1639.53 29.3516 1647.29 31.7059 1652.81 36.4147C1658.33 41.1234 1661.09 48.4707 1661.09 58.4565V95.8423H1643.31ZM1623.34 96.8165C1618.22 96.8165 1613.84 95.964 1610.18 94.2591C1606.53 92.4731 1603.73 90.0781 1601.78 87.0743C1599.83 84.0704 1598.86 80.7012 1598.86 76.9667C1598.86 73.0698 1599.79 69.66 1601.66 66.7374C1603.61 63.8147 1606.65 61.5415 1610.79 59.9178C1614.93 58.2129 1620.33 57.3605 1626.99 57.3605H1644.4V68.4422H1629.06C1624.6 68.4422 1621.51 69.1729 1619.81 70.6342C1618.18 72.0956 1617.37 73.9223 1617.37 76.1143C1617.37 78.5498 1618.3 80.4983 1620.17 81.9596C1622.12 83.3397 1624.76 84.0298 1628.09 84.0298C1631.25 84.0298 1634.09 83.2991 1636.61 81.8378C1639.13 80.2953 1640.95 78.0627 1642.09 75.14L1645.01 83.908C1643.63 88.1297 1641.12 91.3365 1637.46 93.5285C1633.81 95.7205 1629.1 96.8165 1623.34 96.8165Z" fill="#1400F5"/>
<path d="M1558.74 29.3516C1563.93 29.3516 1568.56 30.407 1572.62 32.5178C1576.76 34.5474 1580.01 37.7136 1582.36 42.0165C1584.71 46.2381 1585.89 51.6775 1585.89 58.3347V95.8423H1566.89V61.2574C1566.89 55.9803 1565.72 52.0834 1563.36 49.5667C1561.09 47.0499 1557.84 45.7916 1553.62 45.7916C1550.62 45.7916 1547.9 46.4411 1545.46 47.74C1543.11 48.9578 1541.24 50.8656 1539.86 53.4636C1538.56 56.0615 1537.91 59.3901 1537.91 63.4494V95.8423H1518.91V30.3258H1537.06V48.4707L1533.65 42.9907C1536 38.6067 1539.37 35.2375 1543.76 32.8831C1548.14 30.5288 1553.13 29.3516 1558.74 29.3516Z" fill="#1400F5"/>
<path d="M1470.3 96.8165C1463.31 96.8165 1457.1 95.3551 1451.66 92.4325C1446.31 89.5098 1442.04 85.5317 1438.88 80.4983C1435.79 75.3836 1434.25 69.5788 1434.25 63.084C1434.25 56.508 1435.79 50.7033 1438.88 45.6698C1442.04 40.5551 1446.31 36.577 1451.66 33.7356C1457.1 30.8129 1463.31 29.3516 1470.3 29.3516C1477.2 29.3516 1483.37 30.8129 1488.81 33.7356C1494.25 36.577 1498.51 40.5145 1501.59 45.548C1504.68 50.5815 1506.22 56.4268 1506.22 63.084C1506.22 69.5788 1504.68 75.3836 1501.59 80.4983C1498.51 85.5317 1494.25 89.5098 1488.81 92.4325C1483.37 95.3551 1477.2 96.8165 1470.3 96.8165ZM1470.3 81.2289C1473.46 81.2289 1476.3 80.4983 1478.82 79.0369C1481.34 77.5756 1483.33 75.5054 1484.79 72.8262C1486.25 70.066 1486.98 66.8185 1486.98 63.084C1486.98 59.2683 1486.25 56.0209 1484.79 53.3418C1483.33 50.6627 1481.34 48.5925 1478.82 47.1311C1476.3 45.6698 1473.46 44.9391 1470.3 44.9391C1467.13 44.9391 1464.29 45.6698 1461.77 47.1311C1459.26 48.5925 1457.23 50.6627 1455.68 53.3418C1454.22 56.0209 1453.49 59.2683 1453.49 63.084C1453.49 66.8185 1454.22 70.066 1455.68 72.8262C1457.23 75.5054 1459.26 77.5756 1461.77 79.0369C1464.29 80.4983 1467.13 81.2289 1470.3 81.2289Z" fill="#1400F5"/>
<path d="M1402.49 95.8392V30.3227H1421.49V95.8392H1402.49ZM1411.99 21.1893C1408.5 21.1893 1405.66 20.1745 1403.47 18.1449C1401.28 16.1153 1400.18 13.5985 1400.18 10.5947C1400.18 7.59082 1401.28 5.07408 1403.47 3.04445C1405.66 1.01482 1408.5 0 1411.99 0C1415.48 0 1418.32 0.974225 1420.52 2.92267C1422.71 4.78993 1423.8 7.22549 1423.8 10.2293C1423.8 13.3956 1422.71 16.0341 1420.52 18.1449C1418.41 20.1745 1415.56 21.1893 1411.99 21.1893Z" fill="#1400F5"/>
<path d="M1376.37 96.8104C1368.65 96.8104 1362.65 94.8619 1358.34 90.965C1354.04 86.987 1351.89 81.101 1351.89 73.3073V15.8281H1370.89V73.0637C1370.89 75.824 1371.62 77.9754 1373.08 79.5179C1374.54 80.9793 1376.53 81.7099 1379.05 81.7099C1382.05 81.7099 1384.61 80.8981 1386.72 79.2744L1391.83 92.6699C1389.88 94.0501 1387.53 95.1055 1384.77 95.8362C1382.09 96.4856 1379.29 96.8104 1376.37 96.8104ZM1341.78 46.3944V31.781H1387.2V46.3944H1341.78Z" fill="#1400F5"/>
<path d="M1314.61 95.8423V83.0556L1313.39 80.2547V57.3605C1313.39 53.3012 1312.13 50.135 1309.61 47.8618C1307.18 45.5886 1303.4 44.452 1298.29 44.452C1294.8 44.452 1291.35 45.0203 1287.94 46.1569C1284.61 47.2123 1281.77 48.6736 1279.41 50.5409L1272.59 37.2671C1276.16 34.7504 1280.47 32.8019 1285.5 31.4218C1290.53 30.0416 1295.65 29.3516 1300.84 29.3516C1310.83 29.3516 1318.58 31.7059 1324.1 36.4147C1329.62 41.1234 1332.38 48.4707 1332.38 58.4565V95.8423H1314.61ZM1294.63 96.8165C1289.52 96.8165 1285.13 95.964 1281.48 94.2591C1277.83 92.4731 1275.03 90.0781 1273.08 87.0743C1271.13 84.0704 1270.16 80.7012 1270.16 76.9667C1270.16 73.0698 1271.09 69.66 1272.96 66.7374C1274.91 63.8147 1277.95 61.5415 1282.09 59.9178C1286.23 58.2129 1291.63 57.3605 1298.29 57.3605H1315.7V68.4422H1300.36C1295.89 68.4422 1292.81 69.1729 1291.1 70.6342C1289.48 72.0956 1288.67 73.9223 1288.67 76.1143C1288.67 78.5498 1289.6 80.4983 1291.47 81.9596C1293.42 83.3397 1296.05 84.0298 1299.38 84.0298C1302.55 84.0298 1305.39 83.2991 1307.91 81.8378C1310.42 80.2953 1312.25 78.0627 1313.39 75.14L1316.31 83.908C1314.93 88.1297 1312.41 91.3365 1308.76 93.5285C1305.11 95.7205 1300.4 96.8165 1294.63 96.8165Z" fill="#1400F5"/>
<path d="M1177.4 95.8382V10.5938H1193.72L1244.01 71.9698H1236.1V10.5938H1255.58V95.8382H1239.38L1188.97 34.4622H1196.88V95.8382H1177.4Z" fill="#1400F5"/>
</svg>
