<svg width="108" height="41" viewBox="0 0 108 41" fill="none" xmlns="http://www.w3.org/2000/svg">
<g clip-path="url(#clip0_887_711)">
<path fill-rule="evenodd" clip-rule="evenodd" d="M21.5609 0.500122C20.852 0.500122 20.1025 0.858697 19.6809 1.75104C18.5927 4.20327 20.123 5.40004 19.3025 9.47724C18.5704 7.13057 17.2254 5.3195 16.3193 4.3143C15.9464 3.82877 15.5102 2.99377 16.0006 1.94944C15.8093 2.65248 16.1945 3.15895 16.9349 3.26543C16.9731 3.26816 17.0105 3.26907 17.0469 3.26907C17.7563 3.26907 18.0964 2.80583 18.1715 1.9731C18.1834 1.13218 17.4617 0.665758 16.6612 0.665758C15.7756 0.665758 14.794 1.24002 14.6123 2.51142C14.2954 5.1484 16.068 5.8519 16.5073 9.87313C15.0918 7.936 13.2951 6.67235 12.1436 6.0139C11.6382 5.67034 10.9629 5.01416 11.1045 3.86836C11.1364 4.49723 11.5325 4.85171 12.1153 4.85171C12.2064 4.85171 12.3016 4.84261 12.4008 4.82532C13.1639 4.62601 13.3716 4.06676 13.173 3.20855C12.9873 2.61562 12.4842 2.3426 11.9268 2.3426C10.8969 2.3426 9.68486 3.27589 9.96033 4.83761C10.4976 7.51827 12.4978 7.55877 14.2025 11.5727L14.1925 11.5818C12.2834 9.84082 10.0701 8.9594 8.72004 8.56715C8.14771 8.35191 7.33906 7.8723 7.20975 6.72604C7.35454 7.22249 7.6974 7.4805 8.12767 7.4805C8.30342 7.4805 8.49375 7.43727 8.69227 7.34991C9.38799 6.97814 9.45948 6.3843 9.06472 5.5989C8.81748 5.18617 8.43091 5.00415 8.01703 5.00415C6.90833 5.00415 5.6125 6.30512 6.32279 7.93646C7.46291 10.4005 9.39755 9.99144 11.9665 13.4138C9.7008 12.2148 7.35545 11.9076 5.95854 11.8612C5.35023 11.7939 4.44871 11.529 4.04211 10.4497C4.25337 10.8092 4.55115 10.9862 4.87579 10.9862C5.1203 10.9862 5.38074 10.8861 5.63299 10.6899C6.21534 10.158 6.13839 9.56597 5.56514 8.89933C5.31426 8.64951 5.0215 8.54076 4.72463 8.54076C3.53397 8.54076 2.28321 10.2972 3.47933 11.843C5.22639 13.9954 7.03946 13.0361 10.5108 15.9389C9.43808 15.674 8.38857 15.5767 7.42876 15.5767C6.08557 15.5767 4.91632 15.7678 4.10039 15.9607C3.96243 15.9821 3.80762 15.9971 3.64234 15.9971C3.0823 15.9971 2.40387 15.8201 1.8839 15.0975C2.11156 15.3196 2.35971 15.4274 2.60512 15.4274C2.91929 15.4274 3.22891 15.2508 3.48207 14.9127C3.90733 14.247 3.67922 13.6955 2.95299 13.2027C2.75083 13.0876 2.5473 13.0357 2.35015 13.0357C1.04429 13.0357 0.014366 15.3095 1.70314 16.5896C3.92646 18.1959 5.42308 16.8367 9.44081 18.6541C6.89376 18.7993 4.73647 19.743 3.5194 20.4211C3.23893 20.5498 2.86966 20.6736 2.45623 20.6736C2.04918 20.6736 1.60024 20.5535 1.15312 20.1995C1.34207 20.3009 1.52648 20.351 1.69859 20.351C2.10746 20.351 2.44986 20.0743 2.64064 19.5829C2.86693 18.8266 2.49767 18.3574 1.66489 18.0821C1.55744 18.0562 1.45317 18.0435 1.35346 18.0435C-0.142719 18.0435 -0.744649 20.8524 1.38487 21.6834C1.96085 21.8931 2.4617 21.9696 2.94115 21.9696C3.59407 21.9696 4.20739 21.8271 4.91541 21.6856C5.62479 21.5423 6.42979 21.3999 7.4661 21.3999C7.91641 21.3999 8.41134 21.4267 8.9609 21.4927C6.69069 22.3514 4.97687 23.7784 4.03118 24.7303C3.69789 25.0166 3.18748 25.3465 2.53136 25.3465C2.27502 25.3465 1.99363 25.2959 1.69449 25.1722C1.7942 25.194 1.89073 25.2049 1.98134 25.2049C2.53227 25.2049 2.89653 24.8095 2.95481 24.1684C2.96482 23.3784 2.48082 23.0303 1.60479 22.9975C-0.160931 23.0644 -0.101285 26.313 2.32465 26.5364C2.44941 26.5446 2.56824 26.5487 2.68253 26.5487C5.01011 26.5487 5.74818 24.9019 9.45766 24.2703C7.55761 25.6641 6.30731 27.4224 5.64983 28.5563C5.33612 29.0114 4.76925 29.6016 3.82492 29.6016C3.72202 29.6016 3.61411 29.5952 3.5021 29.5793C4.22833 29.5511 4.59076 29.0278 4.46783 28.2892C4.31985 27.6959 3.95423 27.4328 3.40056 27.4328C3.23802 27.4328 3.05953 27.4556 2.8642 27.4997C1.27605 27.983 1.95766 30.7742 4.03937 30.7742C4.17324 30.7742 4.31257 30.7624 4.45736 30.7374C7.08545 30.2332 7.18881 28.2897 10.9903 26.6342C9.35658 28.4631 8.49238 30.5444 8.09261 31.8386C7.86814 32.4078 7.37594 33.211 6.23036 33.3188C6.93019 33.1264 7.1665 32.5362 6.8801 31.8431C6.65973 31.4086 6.35239 31.2124 5.964 31.2124C5.72086 31.2124 5.44585 31.2889 5.14261 31.434C3.82173 32.1962 4.79657 34.4187 6.53315 34.4187C6.81226 34.4187 7.11049 34.3609 7.42056 34.2321C9.84604 33.1573 9.54052 31.2629 12.7815 28.8248C11.7402 31.0154 11.487 33.2283 11.4606 34.5684C11.4 35.1804 11.1501 36.0882 10.0773 36.5087C10.6975 36.1287 10.7621 35.4958 10.2954 34.9101C10.0473 34.6435 9.78731 34.517 9.51548 34.517C9.19858 34.517 8.86574 34.6872 8.51333 35.0016C7.57173 35.9781 8.69227 37.5594 10.1247 37.5594C10.5618 37.5594 11.0285 37.412 11.472 37.0561C13.5464 35.3188 12.6599 33.5505 15.2762 30.1877L15.3185 30.2104C14.8222 32.69 15.1701 34.9939 15.507 36.3358C15.609 36.9405 15.6054 37.8829 14.682 38.5728C15.181 38.0436 15.0767 37.4138 14.4743 36.9728C14.2517 36.8354 14.0432 36.7699 13.8465 36.7699C13.4494 36.7699 13.0979 37.0384 12.7774 37.5312C12.2078 38.5723 13.2791 39.6435 14.4812 39.6435C15.0735 39.6435 15.6969 39.3828 16.1722 38.732C17.7039 36.5264 16.4186 35.0607 17.9962 31.2006L18.0732 31.2174C18.1988 33.6833 19.0567 35.7843 19.6868 36.9883C19.9295 37.5526 20.1462 38.469 19.4109 39.3582C19.7706 38.7252 19.5229 38.1382 18.8317 37.8511C18.6774 37.7997 18.5335 37.7746 18.4006 37.7746C17.8942 37.7746 17.5473 38.1373 17.3146 38.7958C17.0483 39.7818 17.9698 40.5035 18.977 40.5035C19.7151 40.5035 20.5 40.1149 20.8966 39.1602C21.8632 36.6639 20.2856 35.5426 20.8952 31.4532C20.9257 31.4509 20.9567 31.4495 20.9881 31.4477C21.7949 33.7889 23.2096 35.5699 24.153 36.5501C24.5423 37.0238 25.0063 37.8424 24.5478 38.9031C24.7176 38.1937 24.3156 37.7009 23.5725 37.6186C23.5538 37.6172 23.5343 37.6172 23.516 37.6172C22.768 37.6172 22.4278 38.0941 22.3791 38.9505C22.3946 39.7686 23.0899 40.2091 23.8625 40.2091C24.7659 40.2091 25.774 39.6053 25.9192 38.2961C26.1505 35.6327 24.3315 34.9966 23.7728 30.923L23.8366 30.9021C25.2649 33.0221 27.1795 34.3973 28.3852 35.0985C28.8888 35.4471 29.559 36.1064 29.4079 37.2527C29.3824 36.6197 28.984 36.2621 28.3961 36.2621C28.3078 36.2621 28.2158 36.2703 28.1202 36.2871C27.3557 36.48 27.1445 37.0384 27.3362 37.8961C27.5192 38.4959 28.0269 38.7721 28.5892 38.7721C29.6164 38.7721 30.8248 37.8502 30.5616 36.2916C30.0499 33.6401 28.0934 33.5541 26.431 29.6744C28.3502 31.3508 30.5452 32.1867 31.8871 32.5548C32.4612 32.7619 33.2781 33.2283 33.4251 34.3736C33.2735 33.8863 32.9347 33.6328 32.5104 33.6328C32.3301 33.6328 32.1352 33.6779 31.9326 33.7712C31.2423 34.1525 31.1809 34.7472 31.5861 35.5267C31.8352 35.9303 32.2158 36.1069 32.6219 36.1069C33.7338 36.1069 35.0315 34.7795 34.2934 33.1477C33.1196 30.7096 31.1973 31.1387 28.5874 27.7796C30.9095 28.9349 33.2963 29.1693 34.7141 29.1693H34.7323C35.3429 29.2171 36.2527 29.4505 36.697 30.5158C36.4789 30.1763 36.188 30.0088 35.8738 30.0088C35.6211 30.0088 35.3539 30.1162 35.0984 30.3301C34.5334 30.8821 34.6294 31.4723 35.2259 32.1166C35.4727 32.3473 35.7545 32.4483 36.0377 32.4483C37.2402 32.4483 38.4719 30.625 37.2115 29.1047C35.4859 27.1193 33.7926 27.9384 30.5767 25.6472C31.4791 25.8293 32.3574 25.9007 33.1729 25.9007C34.5366 25.9007 35.7245 25.7023 36.5495 25.5053C36.6902 25.4825 36.8482 25.4661 37.0162 25.4661C37.5753 25.4661 38.2497 25.6422 38.7687 26.3603C38.542 26.1391 38.2957 26.0327 38.0516 26.0327C37.7356 26.0327 37.4246 26.2115 37.1715 26.5505C36.7499 27.2171 36.9802 27.7691 37.7078 28.2583C37.9086 28.373 38.1113 28.4235 38.308 28.4235C39.6147 28.4235 40.641 26.1428 38.9468 24.8659C36.7608 23.2997 35.2828 24.5815 31.4317 22.9302C33.8504 22.6936 35.8784 21.7593 37.0394 21.0841C37.3254 20.9471 37.7056 20.8124 38.134 20.8124C38.532 20.8124 38.97 20.928 39.4098 21.2661C39.2241 21.1692 39.0451 21.1232 38.8762 21.1232C38.4609 21.1232 38.1172 21.4067 37.9332 21.9072C37.7201 22.6681 38.0967 23.1304 38.934 23.3907C39.0342 23.4143 39.1321 23.4248 39.2245 23.4248C40.7375 23.4248 41.3049 20.5817 39.1526 19.784C38.6048 19.5961 38.1254 19.526 37.671 19.526C36.9798 19.526 36.3414 19.6893 35.5965 19.8518C34.8503 20.0142 33.9984 20.1772 32.876 20.1772C32.4061 20.1772 31.8898 20.1489 31.3147 20.0798C33.8481 19.3585 35.7973 17.8837 36.8491 16.9136C37.1797 16.6528 37.6742 16.3616 38.2888 16.3616C38.5698 16.3616 38.8757 16.4217 39.2027 16.5741C39.0852 16.5427 38.9736 16.5268 38.8671 16.5268C38.3439 16.5268 37.9824 16.9022 37.8991 17.5215C37.8563 18.311 38.3253 18.6791 39.1976 18.7506H39.2063C40.9647 18.7506 41.0417 15.5116 38.6299 15.184C38.4313 15.1621 38.2451 15.1521 38.0662 15.1521C35.7677 15.1521 34.9295 16.8703 30.7333 17.2103L30.731 17.2034C32.9939 15.8192 34.4815 13.8584 35.235 12.6321C35.5533 12.1943 36.1179 11.6319 37.0271 11.6328C37.1483 11.6328 37.2748 11.6428 37.4087 11.6628C36.682 11.6742 36.3064 12.187 36.4111 12.9297C36.5477 13.5444 36.9238 13.8134 37.5039 13.8134C37.6537 13.8134 37.8167 13.7952 37.9938 13.761C39.6088 13.3133 38.9718 10.456 36.8414 10.456C36.7257 10.456 36.606 10.4642 36.4826 10.482C33.7598 10.9343 33.6815 12.9843 29.4693 14.5646L29.4425 14.5228C31.2674 12.6594 32.2326 10.4438 32.6711 9.09273C32.9042 8.52574 33.4083 7.73078 34.5557 7.63886C33.8531 7.82179 33.6073 8.40834 33.8827 9.10638C34.1004 9.54823 34.4109 9.74981 34.8066 9.74981C35.0451 9.74981 35.3161 9.67609 35.6161 9.53821C36.9538 8.79285 35.9931 6.53629 34.2383 6.53629C33.9683 6.53629 33.6792 6.58953 33.3778 6.71011C30.8389 7.79084 31.2423 9.80078 27.5238 12.3313L27.4841 12.2967C28.8005 10.1857 29.2899 7.94829 29.4552 6.5918C29.5772 5.98978 29.9178 5.11336 31.0261 4.80166C30.3722 5.11518 30.2438 5.7395 30.6472 6.3702C30.8936 6.69419 31.1699 6.84526 31.4777 6.84526C31.7678 6.84526 32.086 6.71148 32.4303 6.46166C33.5139 5.54656 32.4202 3.74231 30.8876 3.74231C30.5079 3.74231 30.1008 3.85289 29.6943 4.11591C27.4195 5.65851 28.1826 7.54193 25.0723 10.7109C25.0418 10.6972 25.0113 10.6817 24.9803 10.669C25.7904 8.2518 25.7366 5.90104 25.5709 4.51452C25.5449 3.89384 25.6706 2.94963 26.6841 2.37582C26.1164 2.8436 26.14 3.48703 26.6878 4.00851C26.9323 4.20691 27.1695 4.30111 27.4035 4.30111C27.7628 4.30111 28.112 4.07768 28.4622 3.66769C29.2157 2.62928 28.0883 1.31329 26.7647 1.31329C26.2429 1.31329 25.6897 1.51851 25.2098 2.02589C23.3203 4.12091 24.5842 5.80457 22.1524 9.79122L22.1178 9.78576C22.1027 7.33443 21.3524 5.21165 20.785 3.98531C20.5711 3.41059 20.3985 2.48412 21.1757 1.63227C20.7869 2.24704 21.0054 2.84406 21.6816 3.16486C21.8537 3.23084 22.0121 3.26224 22.1597 3.26224C22.6391 3.26224 22.9874 2.91959 23.2433 2.29573C23.5675 1.29008 22.61 0.506038 21.5632 0.506038L21.5609 0.500122ZM16.6735 28.0362C16.9126 26.9851 16.8311 26.7944 16.0762 26.1564C15.945 26.303 15.6618 26.5956 15.5516 26.8222C15.1846 27.5753 16.2442 28.534 16.1791 29.0687C16.5551 28.6833 17.9666 28.9063 18.3236 28.1482C18.4306 27.9206 18.4811 27.5161 18.5135 27.3223C17.5427 27.1348 17.3428 27.1908 16.6735 28.0362ZM20.2874 23.3461C18.7147 23.3538 17.433 22.0861 17.4253 20.5139C17.4175 18.9422 18.686 17.6612 20.2592 17.6535C21.8318 17.6457 23.1131 18.9135 23.1208 20.4857C23.1286 22.0574 21.8601 23.3379 20.2869 23.3456L20.2874 23.3461ZM23.8557 12.9579C23.618 14.0095 23.7004 14.2001 24.4558 14.8368C24.587 14.6898 24.8697 14.3967 24.9794 14.1701C25.3451 13.4166 24.2842 12.4591 24.3484 11.9249C23.9732 12.3113 22.5608 12.0901 22.2056 12.8487C22.0986 13.0762 22.049 13.4807 22.0171 13.675C22.9879 13.8607 23.1878 13.8043 23.8557 12.9579ZM24.6093 11.4125C24.4822 12.1329 25.1748 12.7845 25.2836 13.5813C25.3105 13.7806 25.305 13.9781 25.2408 14.1651C25.4088 14.0568 25.6009 14.004 25.8031 13.9835C26.6045 13.9012 27.4026 14.4213 28.0733 14.126C27.1376 12.9852 25.9561 12.0537 24.6093 11.4125ZM28.0906 14.1478C27.6644 14.7439 28.0114 15.6308 27.7673 16.398C27.7063 16.5896 27.6166 16.7657 27.4787 16.9072C27.6767 16.8813 27.873 16.9159 28.0647 16.9841C28.8255 17.2535 29.3236 18.0685 30.059 18.0862C29.6979 16.621 29.0158 15.2818 28.0911 14.1478H28.0906ZM30.0649 18.1108C29.4206 18.4648 29.3541 19.4177 28.8036 20.007C28.6384 20.184 28.4453 20.3223 28.2076 20.3787L28.194 20.3792L28.2126 20.3787C28.4521 20.4283 28.6493 20.5612 28.8191 20.7337C29.386 21.3075 29.4784 22.2581 30.1323 22.5944C30.2752 21.9186 30.3513 21.2183 30.3513 20.4998C30.3513 19.6766 30.2516 18.8766 30.0649 18.1108ZM30.1263 22.6194C29.3919 22.6576 28.9166 23.4858 28.1639 23.7761C27.9381 23.8635 27.7041 23.9035 27.4655 23.8507L27.455 23.8457L27.47 23.8525C27.664 24.0013 27.7833 24.207 27.8607 24.4364C28.1198 25.1986 27.7901 26.0923 28.2281 26.6802C29.1429 25.5071 29.8035 24.1256 30.1268 22.6194H30.1263ZM28.2108 26.702C27.5342 26.4195 26.7461 26.9555 25.9433 26.8891C25.702 26.869 25.4735 26.8031 25.2822 26.6515L25.2731 26.6406L25.285 26.6556C25.3942 26.874 25.412 27.1111 25.3819 27.3514C25.2827 28.1491 24.5979 28.8089 24.7327 29.5274C26.0945 28.8558 27.2824 27.8861 28.2108 26.7025V26.702ZM24.7062 29.5397C24.22 28.9932 23.2793 29.1315 22.5867 28.722C22.3791 28.5991 22.2025 28.4408 22.0964 28.2219L22.0968 28.2251C22.1 28.4694 22.0121 28.6906 21.8805 28.8931C21.4443 29.5652 20.5456 29.8605 20.3484 30.5604C21.9115 30.5503 23.3899 30.1849 24.7067 29.5401L24.7062 29.5397ZM20.3143 30.5604C20.1107 29.8623 19.2083 29.5756 18.7657 28.9081C18.6319 28.7065 18.5422 28.4863 18.5426 28.2419L18.5417 28.2469C18.4374 28.4681 18.2626 28.6287 18.0554 28.7538C17.3711 29.1679 16.4345 29.0428 15.9514 29.5838C17.2636 30.21 18.7325 30.5608 20.2833 30.5608L20.3143 30.5604ZM15.9195 29.5688C16.0388 28.853 15.3536 28.2028 15.2466 27.4101C15.2142 27.1703 15.2293 26.9332 15.3367 26.7134L15.3381 26.712L15.334 26.7175C15.1437 26.8713 14.916 26.9396 14.6751 26.9614C13.8811 27.0356 13.0956 26.5182 12.4263 26.7885C13.3638 27.9566 14.5563 28.9117 15.92 29.5684L15.9195 29.5688ZM12.4013 26.758C12.8143 26.166 12.4846 25.2859 12.7337 24.5283C12.8092 24.2985 12.9263 24.0919 13.1189 23.9408L13.1262 23.9372L13.1143 23.9426C12.8762 23.9982 12.6417 23.9604 12.4149 23.8753C11.6682 23.5954 11.1874 22.7887 10.4676 22.7395C10.8072 24.2325 11.4793 25.599 12.4017 26.758H12.4013ZM10.4584 22.7004C11.0877 22.3473 11.1756 21.4121 11.7301 20.8397C11.8982 20.6654 12.0939 20.5307 12.333 20.4788H12.3416H12.328C12.0894 20.4252 11.895 20.2886 11.7283 20.1134C11.1783 19.536 11.0982 18.6 10.4712 18.2418C10.3045 18.9676 10.2167 19.7235 10.2167 20.4998C10.2167 21.2561 10.3009 21.9923 10.4589 22.7008L10.4584 22.7004ZM10.4798 18.2027C11.2002 18.1595 11.6878 17.3563 12.4368 17.0824C12.6412 17.0078 12.8516 16.9709 13.0647 17.0059C12.9035 16.8594 12.8015 16.6697 12.7341 16.4613C12.4878 15.7032 12.8202 14.824 12.4095 14.2306C11.4947 15.3769 10.825 16.7275 10.4803 18.2027H10.4798ZM12.4341 14.1997C13.1025 14.4723 13.8897 13.9581 14.6838 14.0345C14.8882 14.0541 15.0831 14.1069 15.2534 14.217C15.1828 14.0254 15.1746 13.822 15.2019 13.6163C15.3058 12.8236 15.9883 12.1706 15.8672 11.4558C14.5299 12.1097 13.3584 13.0512 12.4345 14.1997H12.4341ZM15.8986 11.4403C16.3835 11.98 17.3192 11.8512 18.0058 12.263C18.213 12.3872 18.3892 12.5474 18.4939 12.7681L18.4925 12.7636C18.4912 12.5192 18.5799 12.299 18.7129 12.0965C19.1532 11.4271 20.0543 11.1377 20.2555 10.4387C18.6938 10.4428 17.2158 10.8023 15.8981 11.4403H15.8986ZM20.2892 10.4383C20.4877 11.1377 21.3888 11.4298 21.8273 12.1006C21.9384 12.2698 22.018 12.4519 22.0399 12.6498C22.1451 12.4787 22.2972 12.3477 22.472 12.2416C23.1595 11.8244 24.1025 11.9518 24.5824 11.3998C23.2802 10.7846 21.825 10.4392 20.2892 10.4383ZM26.7452 15.2226C26.0795 16.0708 26.0717 16.2783 26.4811 17.177C26.6627 17.1011 27.0438 16.9568 27.2405 16.7994C27.8944 16.2751 27.3466 14.956 27.6339 14.5005C27.1294 14.6884 25.9484 13.8834 25.3018 14.4167C25.1074 14.5769 24.8888 14.9205 24.7773 15.0825C25.5745 15.6663 25.7794 15.7009 26.7461 15.2226H26.7452ZM28.3838 18.5071C27.4186 18.9877 27.3225 19.1724 27.3066 20.1599C27.5033 20.1685 27.9094 20.2022 28.1544 20.1439C28.9698 19.9505 29.0413 18.524 29.4962 18.2355C28.9594 18.1891 28.2381 16.9559 27.4254 17.1602C27.1814 17.2216 26.8362 17.4382 26.6659 17.5365C27.1354 18.4057 27.3057 18.5249 28.3838 18.5071ZM28.4408 22.2435C27.3621 22.2553 27.1955 22.3791 26.7502 23.261C26.9236 23.3547 27.2742 23.5618 27.5201 23.6164C28.3383 23.7979 29.0254 22.5452 29.5604 22.4842C29.0978 22.2085 28.9867 20.7842 28.1662 20.614C27.9199 20.5626 27.5146 20.6072 27.3184 20.6217C27.3617 21.6087 27.4627 21.7898 28.4412 22.244L28.4408 22.2435ZM26.8613 25.6304C25.8855 25.1708 25.6815 25.2095 24.8957 25.8092C25.0109 25.969 25.2362 26.3084 25.4334 26.4645C26.0904 26.9846 27.2556 26.1569 27.7637 26.3348C27.4677 25.8848 27.9895 24.5551 27.3257 24.0441C27.1263 23.8903 26.7424 23.7538 26.5594 23.681C26.1674 24.5879 26.1792 24.7954 26.8617 25.6304H26.8613ZM20.2701 12.1493C20.5069 13.2009 20.663 13.3378 21.6192 13.589C21.6747 13.4002 21.8036 13.0143 21.8059 12.7622C21.8127 11.9245 20.4436 11.5149 20.2719 11.0048C20.0984 11.5145 18.7284 11.9204 18.7329 12.7581C18.7343 13.0097 18.8627 13.3965 18.9178 13.5854C19.8744 13.3365 20.0306 13.2 20.2705 12.1493H20.2701ZM16.6262 12.9852C17.2982 13.8284 17.4986 13.8834 18.4684 13.6928C18.4361 13.4989 18.3837 13.0948 18.2758 12.8673C17.9165 12.1106 16.5055 12.339 16.1285 11.955C16.195 12.4892 15.1391 13.4516 15.5088 14.2038C15.6199 14.4299 15.904 14.7216 16.0361 14.8677C16.7883 14.227 16.8693 14.0359 16.6266 12.9856L16.6262 12.9852ZM13.7486 15.2795C14.7179 15.7523 14.9224 15.7159 15.7165 15.1271C15.604 14.966 15.3832 14.6238 15.1878 14.4645C14.5376 13.9358 13.362 14.7476 12.8561 14.5628C13.1457 15.0165 12.6062 16.3393 13.2637 16.8594C13.4613 17.0155 13.8433 17.157 14.0249 17.2321C14.4288 16.3307 14.4197 16.1232 13.749 15.2791L13.7486 15.2795ZM12.1322 18.6086C13.2108 18.6159 13.3798 18.4953 13.841 17.6212C13.6698 17.5247 13.3224 17.3113 13.0774 17.2521C12.2624 17.056 11.5535 18.296 11.0171 18.3479C11.4747 18.6318 11.5599 20.0579 12.3776 20.2431C12.6235 20.2987 13.0292 20.2613 13.2259 20.2509C13.2004 19.2634 13.1025 19.08 12.1322 18.6086ZM12.1222 22.3454C13.0956 21.8818 13.1949 21.6993 13.2286 20.7123C13.0324 20.7 12.6271 20.659 12.3808 20.7132C11.5617 20.8916 11.4652 22.3168 11.0053 22.5971C11.5412 22.6531 12.2401 23.899 13.0565 23.7092C13.3019 23.6523 13.6507 23.4416 13.8228 23.3461C13.3688 22.4688 13.2008 22.3464 12.1222 22.3454ZM13.744 25.7123C14.4179 24.8709 14.4274 24.6634 14.0268 23.7602C13.8446 23.8348 13.4622 23.975 13.2641 24.1306C12.6048 24.6484 13.1398 25.9731 12.8484 26.4254C13.3552 26.2424 14.5276 27.0588 15.1796 26.5318C15.3754 26.3735 15.5976 26.0322 15.7105 25.8711C14.9192 25.2796 14.7148 25.2427 13.7436 25.7119L13.744 25.7123ZM20.3224 28.8485C20.0789 27.7982 19.9218 27.6622 18.9642 27.4169C18.9101 27.6062 18.7835 27.993 18.7826 28.2446C18.7812 29.0824 20.1531 29.4833 20.3279 29.9925C20.4977 29.4819 21.8655 29.0674 21.856 28.2296C21.8532 27.978 21.7221 27.5921 21.6661 27.4037C20.7108 27.6581 20.5556 27.796 20.3224 28.8485ZM23.9613 27.9894C23.2838 27.1507 23.0835 27.0966 22.115 27.2931C22.1487 27.487 22.2034 27.8906 22.3126 28.1172C22.6769 28.8717 24.0861 28.6346 24.4658 29.0164C24.3962 28.4826 25.4457 27.5134 25.0714 26.7639C24.9589 26.5387 24.673 26.2484 24.5401 26.1032C23.7915 26.7485 23.7118 26.94 23.9613 27.9889V27.9894Z" fill="#7B2969"/>
<path d="M48.265 7.97403V15.5527L49.4096 15.9816V16.1961H46.6911V15.9816L47.8358 15.5527V6.61559L46.9773 6.4011V6.18661H48.7658C49.2618 6.18661 49.6529 6.29148 49.939 6.5012C50.2347 6.70139 50.4875 7.00168 50.6974 7.40206L53.8165 13.3649L56.2059 7.40206C56.368 6.98261 56.5874 6.67756 56.8641 6.4869C57.1407 6.28671 57.5651 6.18661 58.1375 6.18661H59.6398V6.4011L58.7813 6.61559V15.7672L59.6398 15.9816V16.1961H55.562V15.9816L56.4205 15.7672V7.97403L53.0582 16.3391H52.6289L48.265 7.97403Z" fill="#7B2969"/>
<path d="M59.6409 15.9816L60.7855 15.5527L64.7202 6.04362H65.1495L69.2272 15.7672L69.9426 15.9816V16.1961H68.2257C67.7296 16.1961 67.3243 16.0865 67.0095 15.8673C66.6947 15.6385 66.461 15.3429 66.3084 14.9807L65.5787 13.2648H62.1591L61.2148 15.5527L62.2879 15.9816V16.1961H59.6409V15.9816ZM62.3022 12.9073H65.4356L63.8617 9.14657L62.3022 12.9073Z" fill="#7B2969"/>
<path d="M71.6551 8.6175V15.5527L72.7997 15.9816V16.1961H70.0812V15.9816L71.2258 15.5527V6.68709L70.2243 6.4011V6.18661H71.7266C72.2322 6.18661 72.628 6.27718 72.9142 6.4583C73.2003 6.63943 73.4722 6.88251 73.7297 7.18757L78.3083 12.5498V6.83008L77.1636 6.4011V6.18661H79.8821V6.4011L78.7375 6.83008V16.4106H78.3083L71.6551 8.6175Z" fill="#7B2969"/>
<path d="M80.8188 15.9816L81.6773 15.7672V6.61559L80.8188 6.4011V6.18661H84.4674C86.1748 6.18661 87.4816 6.62513 88.3877 7.50215C89.3034 8.37918 89.7613 9.60892 89.7613 11.1914C89.7613 12.7738 89.3034 14.0036 88.3877 14.8806C87.4816 15.7576 86.1748 16.1961 84.4674 16.1961H80.8188V15.9816ZM84.4674 15.8387C85.3544 15.8387 86.0412 15.4812 86.5277 14.7662C87.0142 14.0417 87.2574 12.8501 87.2574 11.1914C87.2574 9.53265 87.0142 8.34581 86.5277 7.63085C86.0412 6.90635 85.3544 6.5441 84.4674 6.5441H84.0381V15.8387H84.4674Z" fill="#7B2969"/>
<path d="M89.6121 15.9816L90.7567 15.5527L94.6914 6.04362H95.1206L99.1984 15.7672L99.9137 15.9816V16.1961H98.1968C97.7008 16.1961 97.2954 16.0865 96.9806 15.8673C96.6659 15.6385 96.4322 15.3429 96.2795 14.9807L95.5498 13.2648H92.1302L91.1859 15.5527L92.259 15.9816V16.1961H89.6121V15.9816ZM92.2733 12.9073H95.4068L93.8329 9.14657L92.2733 12.9073Z" fill="#7B2969"/>
<path d="M100.339 15.9816L101.197 15.7672V6.61559L100.339 6.4011V6.18661H104.416V6.4011L103.558 6.61559V15.8387H106.634C106.634 15.2381 106.787 14.6804 107.092 14.1656C107.225 13.9464 107.383 13.7653 107.564 13.6223H107.993V16.1961H100.339V15.9816Z" fill="#7B2969"/>
<path d="M45.9757 31.8709L47.1204 31.4419L51.055 21.9329H51.4843L55.562 31.6564L56.2774 31.8709V32.0854H54.5605C54.0645 32.0854 53.6591 31.9758 53.3443 31.7565C53.0295 31.5277 52.7958 31.2322 52.6432 30.8699L51.9135 29.154H48.4939L47.5496 31.4419L48.6227 31.8709V32.0854H45.9757V31.8709ZM48.637 28.7965H51.7704L50.1966 25.0358L48.637 28.7965Z" fill="#7B2969"/>
<path d="M60.2076 32.2999C59.5304 32.2999 58.8961 32.1473 58.3047 31.8423C58.0376 31.7088 57.8134 31.5515 57.6322 31.3704C57.4987 31.5897 57.3317 31.7851 57.1314 31.9567C56.9597 32.0806 56.8644 32.1473 56.8453 32.1569H56.4876V29.44H57.0599C57.203 29.9071 57.4033 30.3266 57.6608 30.6983C58.2427 31.5277 58.9962 31.9424 59.9215 31.9424C60.4652 31.9424 60.8992 31.7803 61.2235 31.4562C61.5478 31.1321 61.71 30.6983 61.71 30.155C61.71 29.8404 61.6146 29.5592 61.4238 29.3113C61.2426 29.0635 61.0136 28.8442 60.737 28.6535C60.4604 28.4629 60.0741 28.2246 59.5781 27.9386C58.9485 27.5859 58.4382 27.2665 58.0471 26.9805C57.6561 26.6945 57.3222 26.3371 57.0456 25.9081C56.769 25.4696 56.6307 24.9548 56.6307 24.3637C56.6307 23.8966 56.7594 23.4772 57.017 23.1054C57.2841 22.7241 57.6799 22.4238 58.2045 22.2045C58.7291 21.9758 59.373 21.8614 60.1361 21.8614C60.6893 21.8614 61.2426 22.0187 61.7958 22.3332C62.0057 22.4476 62.2155 22.6002 62.4254 22.7908C62.5875 22.543 62.7544 22.3475 62.9261 22.2045C63.0978 22.0806 63.1932 22.0139 63.2123 22.0044H63.57V24.7212H62.9977C62.8737 24.2637 62.6877 23.849 62.4397 23.4772C62.2107 23.1149 61.9246 22.8147 61.5812 22.5763C61.2473 22.338 60.861 22.2188 60.4223 22.2188C60.0502 22.2188 59.7307 22.3666 59.4636 22.6621C59.1965 22.9576 59.063 23.3342 59.063 23.7918C59.063 24.1445 59.1632 24.4638 59.3635 24.7498C59.5733 25.0263 59.8261 25.2694 60.1218 25.4791C60.427 25.6888 60.8372 25.9414 61.3523 26.237C61.9532 26.5801 62.4397 26.8852 62.8117 27.1521C63.1837 27.419 63.4985 27.7527 63.756 28.1531C64.0135 28.5439 64.1423 28.9967 64.1423 29.5115C64.1423 30.0263 63.9945 30.4982 63.6988 30.9271C63.4031 31.3466 62.9595 31.6802 62.3681 31.9281C61.7767 32.1759 61.0566 32.2999 60.2076 32.2999Z" fill="#7B2969"/>
<path d="M68.7169 32.2999C68.0397 32.2999 67.4054 32.1473 66.814 31.8423C66.5469 31.7088 66.3227 31.5515 66.1415 31.3704C66.008 31.5897 65.841 31.7851 65.6407 31.9567C65.469 32.0806 65.3736 32.1473 65.3546 32.1569H64.9969V29.44H65.5692C65.7123 29.9071 65.9126 30.3266 66.1701 30.6983C66.752 31.5277 67.5055 31.9424 68.4308 31.9424C68.9745 31.9424 69.4085 31.7803 69.7328 31.4562C70.0571 31.1321 70.2193 30.6983 70.2193 30.155C70.2193 29.8404 70.1239 29.5592 69.9331 29.3113C69.7519 29.0635 69.5229 28.8442 69.2463 28.6535C68.9697 28.4629 68.5834 28.2246 68.0874 27.9386C67.4578 27.5859 66.9475 27.2665 66.5564 26.9805C66.1653 26.6945 65.8315 26.3371 65.5549 25.9081C65.2783 25.4696 65.1399 24.9548 65.1399 24.3637C65.1399 23.8966 65.2687 23.4772 65.5263 23.1054C65.7933 22.7241 66.1892 22.4238 66.7138 22.2045C67.2384 21.9758 67.8823 21.8614 68.6454 21.8614C69.1986 21.8614 69.7519 22.0187 70.3051 22.3332C70.515 22.4476 70.7248 22.6002 70.9347 22.7908C71.0968 22.543 71.2637 22.3475 71.4354 22.2045C71.6071 22.0806 71.7025 22.0139 71.7216 22.0044H72.0793V24.7212H71.507C71.383 24.2637 71.197 23.849 70.949 23.4772C70.72 23.1149 70.4339 22.8147 70.0905 22.5763C69.7566 22.338 69.3703 22.2188 68.9315 22.2188C68.5595 22.2188 68.24 22.3666 67.9729 22.6621C67.7058 22.9576 67.5723 23.3342 67.5723 23.7918C67.5723 24.1445 67.6724 24.4638 67.8728 24.7498C68.0826 25.0263 68.3354 25.2694 68.6311 25.4791C68.9363 25.6888 69.3465 25.9414 69.8616 26.237C70.4625 26.5801 70.949 26.8852 71.321 27.1521C71.693 27.419 72.0077 27.7527 72.2653 28.1531C72.5228 28.5439 72.6516 28.9967 72.6516 29.5115C72.6516 30.0263 72.5038 30.4982 72.2081 30.9271C71.9124 31.3466 71.4688 31.6802 70.8774 31.9281C70.286 32.1759 69.5659 32.2999 68.7169 32.2999Z" fill="#7B2969"/>
<path d="M73.7208 31.8709L74.5793 31.6564V22.5048L73.7208 22.2903V22.0759H81.3755V24.6497H80.9463C80.765 24.5067 80.6077 24.3256 80.4741 24.1064C80.1689 23.5916 80.0163 23.0339 80.0163 22.4333H76.9401V26.9376H78.5855C78.6522 26.5754 78.7762 26.237 78.9575 25.9224C79.0338 25.7794 79.1244 25.6412 79.2293 25.5077H79.6586V28.725H79.2293C79.1244 28.5916 79.0338 28.4534 78.9575 28.3104C78.7762 27.9958 78.6522 27.6574 78.5855 27.2951H76.9401V31.7279H80.3024C80.3024 31.1273 80.455 30.5697 80.7603 30.0549C80.8938 29.8356 81.0512 29.6545 81.2324 29.5115H81.6617V32.0854H73.7208V31.8709Z" fill="#7B2969"/>
<path d="M84.7312 31.8709L85.5896 31.6564V22.4333H83.9442C83.9442 23.0148 83.7868 23.5725 83.4721 24.1064C83.3385 24.3256 83.1859 24.5067 83.0142 24.6497H82.585V22.0759H90.9551V24.6497H90.5259C90.3446 24.5067 90.1872 24.3256 90.0537 24.1064C89.7485 23.5916 89.5958 23.0339 89.5958 22.4333H87.9504V31.6564L88.8089 31.8709V32.0854H84.7312V31.8709Z" fill="#7B2969"/>
</g>
<defs>
<clipPath id="clip0_887_711">
<rect width="108" height="40" fill="white" transform="translate(0 0.5)"/>
</clipPath>
</defs>
</svg>
