<svg width="176" height="20" viewBox="0 0 176 20" fill="none" xmlns="http://www.w3.org/2000/svg">
<path d="M14.3609 15.1961H12.1896V6.55713C12.1896 5.85064 12.2307 4.98311 12.3181 3.95973H12.2795C12.1907 4.38696 12.0714 4.80711 11.9224 5.21687L7.98056 15.1961H6.46962L2.52012 5.2922C2.3705 4.8576 2.25368 4.41217 2.17065 3.95973H2.1321C2.18093 4.49479 2.20662 5.36492 2.20662 6.57531V15.1961H0.181763V1.84804H3.26531L6.73686 10.7364C6.93914 11.2343 7.11078 11.7443 7.25079 12.2636H7.29704C7.52317 11.571 7.70732 11.0515 7.84951 10.7052L11.3879 1.84804H14.3609V15.1961ZM17.7914 3.66363C17.4586 3.67056 17.1362 3.54672 16.892 3.31817C16.7706 3.20851 16.6743 3.07335 16.61 2.92216C16.5456 2.77096 16.5147 2.60737 16.5194 2.44285C16.5153 2.27725 16.5464 2.1127 16.6107 1.96033C16.675 1.80797 16.7709 1.67135 16.892 1.55973C17.1338 1.32643 17.4572 1.19942 17.7914 1.20648C18.1319 1.19842 18.462 1.32518 18.7113 1.55973C18.8306 1.67089 18.9258 1.80583 18.9909 1.95604C19.056 2.10624 19.0896 2.26846 19.0896 2.43246C19.0896 2.59645 19.056 2.75867 18.9909 2.90888C18.9258 3.05908 18.8306 3.19402 18.7113 3.30518C18.5889 3.42321 18.4446 3.51563 18.2867 3.57715C18.1288 3.63866 17.9605 3.66805 17.7914 3.66363ZM18.8501 15.1961H16.7121V5.66363H18.8501V15.1961ZM27.9182 14.7571C27.099 15.2148 26.1739 15.4434 25.2381 15.4195C23.8385 15.4195 22.7088 14.977 21.8488 14.0922C20.9888 13.2073 20.5606 12.061 20.564 10.6532C20.564 9.08094 21.0265 7.81947 21.9516 6.86882C22.8766 5.91817 24.1118 5.44198 25.657 5.44025C26.4375 5.42666 27.2116 5.5844 27.926 5.90259V7.91298C27.3284 7.43516 26.591 7.17116 25.8291 7.16233C25.4155 7.1487 25.0038 7.22436 24.6214 7.38426C24.239 7.54415 23.8948 7.78461 23.6116 8.0896C23.0174 8.74994 22.706 9.62124 22.7456 10.513C22.7456 11.5 23.0171 12.2792 23.5602 12.8506C23.8463 13.137 24.1882 13.3599 24.5643 13.5052C24.9404 13.6506 25.3422 13.7151 25.7443 13.6948C26.5425 13.6841 27.3118 13.3909 27.9182 12.8662V14.7571ZM35.0335 7.72077C34.7063 7.4952 34.3135 7.38727 33.9183 7.41427C33.6044 7.4156 33.2957 7.49524 33.0196 7.64613C32.7434 7.79701 32.5084 8.01447 32.3354 8.27921C31.9106 8.85583 31.699 9.64112 31.7007 10.6351V15.1961H29.5628V5.66363H31.7007V7.62726H31.7393C31.9087 7.02635 32.2428 6.4861 32.7029 6.06882C33.1011 5.70773 33.6172 5.50795 34.1521 5.50778C34.4569 5.48908 34.7613 5.54991 35.0361 5.68441L35.0335 7.72077ZM40.088 15.4195C38.6336 15.4195 37.4712 14.9736 36.601 14.0818C35.7307 13.19 35.2965 12.0099 35.2982 10.5415C35.2982 8.93808 35.7513 7.68787 36.6575 6.7909C37.5637 5.89393 38.7835 5.44371 40.3167 5.44025C41.7916 5.44025 42.9402 5.87315 43.7625 6.73895C44.5848 7.60475 44.9959 8.81687 44.9959 10.3753C44.9959 11.8974 44.5523 13.1156 43.6649 14.0299C42.7775 14.9441 41.5852 15.4073 40.088 15.4195ZM40.1882 7.16233C39.8133 7.14537 39.4397 7.21627 39.0965 7.36947C38.7532 7.52266 38.4497 7.75402 38.2096 8.04544C37.7231 8.63592 37.4807 9.44891 37.4824 10.4844C37.4824 11.4835 37.7273 12.2706 38.2173 12.8454C38.4618 13.1273 38.7659 13.3499 39.1071 13.4969C39.4482 13.6439 39.8177 13.7116 40.1882 13.6948C40.5545 13.7167 40.9208 13.6515 41.2577 13.5044C41.5947 13.3574 41.8928 13.1326 42.1282 12.848C42.5779 12.2844 42.8041 11.4792 42.8041 10.4377C42.8041 9.39609 42.5779 8.57791 42.1282 8.00908C41.8932 7.72407 41.5951 7.49892 41.2581 7.35183C40.9211 7.20474 40.5546 7.13982 40.1882 7.16233ZM46.0983 14.8974V12.8974C46.8517 13.4951 47.7822 13.819 48.7399 13.8169C50.0298 13.8169 50.6748 13.4325 50.6748 12.6636C50.6806 12.4657 50.6219 12.2713 50.5078 12.1104C50.3865 11.947 50.2345 11.8093 50.0607 11.7052C49.8514 11.5761 49.6292 11.4699 49.3977 11.3883L48.5472 11.0714C48.1885 10.9295 47.8392 10.7647 47.5013 10.5779C47.2167 10.4214 46.9568 10.2226 46.7304 9.9883C46.5277 9.77176 46.3696 9.51658 46.2653 9.23765C46.1547 8.92448 46.1015 8.5935 46.1086 8.26103C46.1 7.83296 46.2123 7.41129 46.4324 7.04544C46.6522 6.68941 46.9481 6.38765 47.2983 6.16233C47.6777 5.91572 48.0943 5.73324 48.5317 5.62207C48.9974 5.49969 49.4767 5.43858 49.9579 5.44025C50.7551 5.42676 51.5478 5.56237 52.2962 5.84025V7.72077C51.6245 7.25781 50.8274 7.01645 50.0144 7.02986C49.7677 7.02695 49.5216 7.05575 49.2821 7.11557C49.0851 7.16175 48.8968 7.23981 48.7245 7.34674C48.5793 7.43727 48.4563 7.55981 48.3647 7.70518C48.2797 7.84401 48.2352 8.00426 48.2362 8.16752C48.2313 8.3493 48.2757 8.52897 48.3647 8.687C48.4615 8.84103 48.5926 8.97001 48.7476 9.06362C48.9392 9.18362 49.1424 9.2837 49.354 9.36233C49.5904 9.45324 49.8679 9.54934 50.1712 9.65583C50.543 9.8097 50.9067 9.9831 51.2607 10.1753C51.5616 10.3329 51.8392 10.5322 52.0855 10.7675C52.3056 10.9838 52.4804 11.2426 52.5994 11.5286C52.7308 11.8584 52.7938 12.2121 52.7845 12.5675C52.7945 13.0124 52.6796 13.451 52.453 13.8325C52.229 14.194 51.9267 14.4995 51.569 14.726C51.1729 14.9713 50.7384 15.1469 50.2842 15.2454C49.7837 15.3626 49.2716 15.421 48.7579 15.4195C47.8481 15.4378 46.9449 15.2599 46.1086 14.8974H46.0983ZM58.5276 15.4169C57.0697 15.4169 55.9074 14.971 55.0406 14.0792C54.1738 13.1874 53.7395 12.0073 53.7378 10.5389C53.7378 8.93549 54.1909 7.68527 55.0971 6.7883C56.0033 5.89133 57.2231 5.44111 58.7563 5.43765C60.2312 5.43765 61.379 5.87055 62.1996 6.73635C63.0201 7.60215 63.4321 8.81427 63.4355 10.3727C63.4355 11.8948 62.9919 13.113 62.1045 14.0273C61.2171 14.9415 60.0282 15.4056 58.5378 15.4195L58.5276 15.4169ZM58.6278 7.15973C58.2529 7.14278 57.8793 7.21367 57.5361 7.36687C57.1928 7.52007 56.8893 7.75142 56.6492 8.04285C56.1627 8.63332 55.9202 9.44631 55.922 10.4818C55.922 11.4809 56.1669 12.268 56.6569 12.8428C56.9023 13.1265 57.2079 13.3505 57.551 13.498C57.8941 13.6456 58.2657 13.7128 58.6381 13.6948C59.004 13.7169 59.37 13.6518 59.7066 13.5047C60.0431 13.3576 60.3408 13.1327 60.5756 12.848C61.0278 12.2844 61.2539 11.4792 61.2539 10.4377C61.2539 9.39609 61.0278 8.57791 60.5756 8.00908C60.3412 7.72395 60.0436 7.49869 59.7069 7.35157C59.3703 7.20445 59.0041 7.13961 58.6381 7.16233L58.6278 7.15973ZM70.1551 2.84025C69.8547 2.66699 69.5142 2.57736 69.1684 2.58051C68.1405 2.58051 67.6223 3.17358 67.6137 4.35973V5.65843H69.8056V7.35713H67.6215V15.1961H65.4861V7.35713H63.8852V5.66363H65.4964V4.11817C65.4749 3.67366 65.5513 3.22987 65.7202 2.81886C65.8891 2.40786 66.1461 2.03989 66.4728 1.74155C66.9885 1.33568 67.593 1.06086 68.2355 0.940177C68.8781 0.819499 69.5399 0.85649 70.1654 1.04804L70.1551 2.84025ZM76.4507 15.0922C75.9319 15.3237 75.3676 15.4321 74.801 15.4091C72.9731 15.4091 72.0592 14.5216 72.0592 12.7467V7.35713H70.484V5.66363H72.0592V3.45843L74.1945 2.84285V5.66363H76.4507V7.35713H74.1945V12.1364C74.1945 12.7 74.2947 13.1052 74.4977 13.3467C74.6296 13.4789 74.7887 13.5801 74.9638 13.6429C75.1388 13.7058 75.3253 13.7288 75.5102 13.7104C75.852 13.7137 76.1844 13.5971 76.4507 13.3805V15.0922ZM87.8649 2.84285C87.5653 2.66991 87.2257 2.58029 86.8808 2.58311C85.8426 2.58311 85.3236 3.17618 85.3236 4.36233V5.66103H87.5154V7.35713H85.3416V15.1961H83.2036V7.35713H81.5899V5.66363H83.201V4.11817C83.1796 3.67366 83.256 3.22987 83.4249 2.81886C83.5937 2.40786 83.8508 2.03989 84.1775 1.74155C84.6932 1.33568 85.2977 1.06086 85.9402 0.940177C86.5828 0.819499 87.2446 0.85649 87.8701 1.04804L87.8649 2.84285ZM92.7472 15.4195C91.2894 15.4195 90.127 14.9736 89.2602 14.0818C88.3934 13.19 87.9608 12.0099 87.9626 10.5415C87.9626 8.93808 88.4157 7.68787 89.3219 6.7909C90.2281 5.89393 91.4478 5.44371 92.981 5.44025C94.456 5.44025 95.6038 5.87315 96.4243 6.73895C97.2449 7.60475 97.6569 8.81687 97.6603 10.3753C97.6603 11.8974 97.2166 13.1156 96.3292 14.0299C95.4419 14.9441 94.2496 15.4073 92.7523 15.4195H92.7472ZM92.8474 7.16233C92.4726 7.14537 92.0989 7.21627 91.7557 7.36947C91.4125 7.52266 91.1089 7.75402 90.8688 8.04544C90.384 8.63592 90.1407 9.44891 90.139 10.4844C90.139 11.4835 90.3849 12.2706 90.8765 12.8454C91.1216 13.128 91.4265 13.351 91.7686 13.4981C92.1107 13.6451 92.4812 13.7123 92.8525 13.6948C93.2185 13.7169 93.5845 13.6518 93.9211 13.5047C94.2576 13.3576 94.5553 13.1327 94.79 12.848C95.2423 12.2844 95.4684 11.4792 95.4684 10.4377C95.4684 9.39609 95.2423 8.57791 94.79 8.00908C94.5557 7.72395 94.2581 7.49869 93.9214 7.35157C93.5848 7.20445 93.2186 7.13961 92.8525 7.16233H92.8474ZM104.737 7.72077C104.41 7.4952 104.017 7.38727 103.622 7.41427C103.308 7.4156 102.999 7.49524 102.723 7.64613C102.447 7.79701 102.212 8.01447 102.039 8.27921C101.616 8.85583 101.404 9.64112 101.404 10.6351V15.1961H99.2663V5.66363H101.404V7.62726H101.44C101.61 7.027 101.943 6.48698 102.401 6.06882C102.801 5.70798 103.317 5.50828 103.853 5.50778C104.158 5.4899 104.462 5.55068 104.737 5.68441V7.72077ZM110.113 14.6636V12.3961C110.331 12.5948 110.574 12.7642 110.835 12.9C111.12 13.0512 111.417 13.1772 111.724 13.2766C112.031 13.377 112.344 13.456 112.662 13.513C112.947 13.5673 113.237 13.596 113.528 13.5987C114.451 13.5987 115.136 13.4437 115.583 13.1338C115.802 12.987 115.979 12.7854 116.098 12.5487C116.216 12.3119 116.272 12.0481 116.259 11.7831C116.267 11.4924 116.189 11.2059 116.036 10.9597C115.87 10.7083 115.659 10.4907 115.414 10.3182C115.112 10.1074 114.793 9.92235 114.46 9.76493C114.096 9.59177 113.704 9.40735 113.286 9.21168C112.839 8.97012 112.423 8.72337 112.035 8.47661C111.668 8.2428 111.33 7.96646 111.027 7.65323C110.744 7.35648 110.516 7.01073 110.354 6.63246C110.184 6.21071 110.101 5.75809 110.11 5.30259C110.096 4.72909 110.241 4.163 110.529 3.66882C110.807 3.20784 111.185 2.8163 111.634 2.52337C112.113 2.20898 112.641 1.97888 113.196 1.84285C113.781 1.69716 114.38 1.6239 114.982 1.62466C116.363 1.62466 117.369 1.78311 118.001 2.09999V4.287C117.253 3.73982 116.289 3.46622 115.111 3.46622C114.785 3.46618 114.459 3.49749 114.139 3.55973C113.836 3.61482 113.544 3.71827 113.273 3.86622C113.028 4.00089 112.816 4.18898 112.651 4.41687C112.492 4.65567 112.413 4.93966 112.425 5.22726C112.417 5.499 112.481 5.76797 112.61 6.00648C112.747 6.24004 112.93 6.44254 113.147 6.60129C113.42 6.80086 113.71 6.97474 114.013 7.12077C114.355 7.2922 114.748 7.47661 115.198 7.67401C115.657 7.91644 116.091 8.17099 116.501 8.43765C116.891 8.6905 117.252 8.98672 117.577 9.32077C117.881 9.63535 118.13 9.99876 118.315 10.3961C118.496 10.8204 118.584 11.2795 118.572 11.7415C118.601 12.31 118.478 12.8758 118.215 13.379C117.951 13.8821 117.558 14.3036 117.076 14.5987C116.59 14.9012 116.055 15.1148 115.496 15.2299C114.876 15.3646 114.244 15.4308 113.61 15.4273C113.338 15.4237 113.066 15.4064 112.795 15.3753C112.472 15.3415 112.143 15.2922 111.806 15.2273C111.483 15.1644 111.163 15.0847 110.848 14.9883C110.589 14.9143 110.342 14.8051 110.113 14.6636ZM124.706 15.0922C124.187 15.3237 123.622 15.4321 123.056 15.4091C121.228 15.4091 120.314 14.5216 120.314 12.7467V7.35713H118.747V5.66363H120.322V3.45843L122.447 2.84285V5.66363H124.703V7.35713H122.447V12.1364C122.447 12.7 122.547 13.1052 122.75 13.3467C122.882 13.4789 123.041 13.5801 123.216 13.6429C123.391 13.7058 123.578 13.7288 123.763 13.7104C124.103 13.7174 124.435 13.6054 124.703 13.3935L124.706 15.0922ZM133.481 15.1961H131.41V13.6948H131.374C130.721 14.8377 129.766 15.4091 128.509 15.4091C127.58 15.4091 126.855 15.1545 126.332 14.6454C126.068 14.3835 125.861 14.0682 125.725 13.72C125.589 13.3718 125.527 12.9986 125.543 12.6247C125.543 10.8238 126.571 9.77531 128.627 9.47921L131.425 9.07921C131.425 7.72163 130.787 7.04198 129.511 7.04025C128.389 7.03926 127.307 7.45635 126.471 8.21168V6.33376C127.518 5.72465 128.709 5.41573 129.917 5.44025C132.298 5.44025 133.489 6.62553 133.489 8.99609L133.481 15.1961ZM131.425 10.5208L129.447 10.8013C128.956 10.8399 128.482 10.9938 128.061 11.2506C127.745 11.4671 127.586 11.8489 127.586 12.3961C127.581 12.5826 127.616 12.7681 127.69 12.9392C127.763 13.1103 127.874 13.2628 128.013 13.3857C128.333 13.6557 128.742 13.7938 129.159 13.7727C129.462 13.7811 129.763 13.7234 130.042 13.6038C130.32 13.4841 130.571 13.3052 130.775 13.0792C131.206 12.6046 131.436 11.9778 131.415 11.3338L131.425 10.5208ZM140.558 7.72077C140.23 7.4952 139.838 7.38727 139.442 7.41427C139.129 7.41645 138.822 7.4965 138.546 7.64735C138.271 7.79819 138.037 8.0152 137.865 8.27921C137.441 8.85583 137.23 9.64112 137.23 10.6351V15.1961H135.092V5.66363H137.23V7.62726H137.266C137.435 7.02635 137.769 6.4861 138.229 6.06882C138.622 5.70752 139.132 5.50423 139.663 5.49739C139.968 5.47951 140.272 5.54029 140.547 5.67402L140.558 7.72077ZM147.2 15.0922C146.682 15.3237 146.119 15.4321 145.553 15.4091C143.723 15.4091 142.809 14.5216 142.809 12.7467V7.35713H141.233V5.66363H142.809V3.45843L144.944 2.84285V5.66363H147.2V7.35713H144.944V12.1364C144.944 12.7 145.047 13.1052 145.247 13.3467C145.38 13.4789 145.539 13.5799 145.715 13.6427C145.89 13.7056 146.077 13.7287 146.262 13.7104C146.602 13.7174 146.933 13.6055 147.2 13.3935V15.0922ZM156.965 15.1961H154.824V13.6948H154.788C154.524 14.2353 154.11 14.6866 153.597 14.9941C153.084 15.3016 152.493 15.4521 151.897 15.4273C149.67 15.4273 148.557 14.074 148.557 11.3675V5.66363H150.692V11.1364C150.692 12.8506 151.347 13.7069 152.655 13.7052C152.951 13.7124 153.244 13.6527 153.514 13.5304C153.784 13.4082 154.024 13.2265 154.215 12.9987C154.639 12.4793 154.856 11.8191 154.824 11.1467V5.66363H156.962L156.965 15.1961ZM160.819 13.7909H160.783V19.5779H158.645V5.66363H160.783V7.33895H160.819C161.552 6.07315 162.62 5.44025 164.023 5.44025C165.222 5.44025 166.156 5.86536 166.824 6.71557C167.492 7.56579 167.826 8.70778 167.826 10.1415C167.826 11.7294 167.449 13.0013 166.696 13.9571C166.33 14.4244 165.859 14.7978 165.324 15.0469C164.788 15.2961 164.202 15.4139 163.612 15.3909C163.046 15.4087 162.485 15.2689 161.992 14.9868C161.498 14.7046 161.091 14.291 160.814 13.7909H160.819ZM160.765 10.0299V11.2117C160.75 11.8651 160.985 12.4992 161.423 12.9805C161.655 13.2284 161.938 13.422 162.251 13.5477C162.565 13.6734 162.902 13.7282 163.239 13.7081C163.576 13.6881 163.905 13.5937 164.202 13.4317C164.499 13.2696 164.757 13.0438 164.959 12.7701C165.411 12.1467 165.636 11.2809 165.634 10.1727C165.634 9.23505 165.426 8.50259 165.005 7.97012C164.804 7.70973 164.546 7.50088 164.25 7.36052C163.954 7.22016 163.63 7.15226 163.304 7.16233C162.954 7.14839 162.606 7.21479 162.286 7.35651C161.965 7.49823 161.681 7.71158 161.454 7.98051C160.981 8.55442 160.735 9.28383 160.76 10.0299H160.765ZM168.864 14.8974V12.8974C169.619 13.4949 170.55 13.8188 171.509 13.8169C172.795 13.8169 173.439 13.4325 173.441 12.6636C173.448 12.466 173.39 12.2716 173.277 12.1104C173.155 11.947 173.003 11.8093 172.829 11.7052C172.62 11.5761 172.398 11.4699 172.166 11.3883L171.313 11.0714C170.956 10.9295 170.607 10.7647 170.27 10.5779C169.985 10.422 169.725 10.2232 169.499 9.9883C169.296 9.77246 169.137 9.51709 169.034 9.23765C168.923 8.92448 168.87 8.5935 168.877 8.26103C168.869 7.83337 168.981 7.41207 169.199 7.04544C169.419 6.69001 169.715 6.3884 170.064 6.16233C170.444 5.91617 170.861 5.73373 171.298 5.62207C171.764 5.49953 172.245 5.43841 172.727 5.44025C173.524 5.427 174.317 5.5626 175.065 5.84025V7.72077C174.392 7.25745 173.594 7.01608 172.781 7.02986C172.534 7.02709 172.288 7.05589 172.048 7.11557C171.851 7.16175 171.663 7.23981 171.491 7.34674C171.342 7.44079 171.217 7.56891 171.126 7.72077C171.039 7.8589 170.993 8.01945 170.995 8.18311C170.989 8.36526 171.035 8.54528 171.126 8.70259C171.222 8.8565 171.352 8.98551 171.506 9.07921C171.699 9.19921 171.903 9.29928 172.115 9.37791C172.351 9.46882 172.629 9.56493 172.93 9.67142C173.302 9.82531 173.667 9.9987 174.022 10.1909C174.322 10.3497 174.599 10.549 174.847 10.7831C175.067 10.9994 175.241 11.2582 175.36 11.5441C175.491 11.8742 175.553 12.2278 175.543 12.5831C175.553 13.0279 175.438 13.4666 175.211 13.848C174.988 14.2102 174.686 14.5158 174.327 14.7415C173.932 14.9873 173.497 15.163 173.043 15.261C172.543 15.3782 172.032 15.4366 171.519 15.4351C170.605 15.4492 169.698 15.2659 168.859 14.8974H168.864Z" fill="#D59DFF"/>
</svg>
