<svg width="50" height="39" viewBox="0 0 50 39" fill="none" xmlns="http://www.w3.org/2000/svg">
<path d="M30.3582 36.552C34.4012 35.6431 37.1441 32.5282 36.4846 29.5947C35.8251 26.6611 32.013 25.0198 27.97 25.9288C23.927 26.8377 21.1842 29.9526 21.8436 32.8861C22.5031 35.8196 26.3152 37.4609 30.3582 36.552Z" fill="#231F20"/>
<path d="M42.5693 12.2689C46.6123 11.36 49.3552 8.24509 48.6957 5.31157C48.0362 2.37805 44.2241 0.736765 40.1811 1.64567C36.1381 2.55457 33.3952 5.66948 34.0547 8.603C34.7142 11.5365 38.5263 13.1778 42.5693 12.2689Z" fill="#231F20"/>
<path d="M9.70876 19.6484C13.7518 18.7395 16.4946 15.6246 15.8352 12.6911C15.1757 9.75756 11.3636 8.11628 7.32056 9.02518C3.27756 9.93408 0.53468 13.049 1.19416 15.9825C1.85365 18.916 5.66577 20.5573 9.70876 19.6484Z" fill="#231F20"/>
</svg>
