<svg width="476" height="143" viewBox="0 0 476 143" fill="none" xmlns="http://www.w3.org/2000/svg">
<path d="M395.647 37.1883C415.923 24.1711 438.293 15.0975 461.92 10.2117C468.515 8.85063 465.724 -1.23506 459.128 0.125985C434.734 5.15138 411.352 14.7136 390.377 28.1496C384.724 31.779 389.959 40.8526 395.647 37.1883Z" fill="#0185C9"/>
<path d="M406.046 54.9168C427.369 51.1826 448.971 49.7169 470.608 50.38C477.344 50.5894 477.344 40.1198 470.608 39.9104C448.029 39.2473 425.519 40.9574 403.289 44.8311C400.497 45.3197 398.927 48.7397 399.625 51.2873C400.427 54.2188 403.254 55.4403 406.081 54.9517L406.046 54.9168Z" fill="#0185C9"/>
<path d="M6.35252 121.748C30.956 112.744 56.5716 106.706 82.6409 103.984C89.2716 103.286 89.3414 92.8167 82.6409 93.5147C55.6293 96.3415 29.1064 102.309 3.56062 111.627C-2.72112 113.93 0.000977656 124.051 6.35252 121.713V121.748Z" fill="#0185C9"/>
<path d="M36.5387 141.361C51.6497 130.752 68.6803 123.528 86.8275 120.003C89.6194 119.479 91.1899 116.129 90.4919 113.547C89.6892 110.65 86.8275 109.359 84.0356 109.882C65.1206 113.547 47.0431 121.224 31.269 132.287C28.9657 133.892 27.8838 136.859 29.3844 139.441C30.7106 141.745 34.2353 142.966 36.5387 141.326V141.361Z" fill="#0185C9"/>
</svg>
