<svg width="236" height="82" viewBox="0 0 236 82" fill="none" xmlns="http://www.w3.org/2000/svg">
<path d="M223.688 7.04646C207.441 12.8811 192.483 21.005 179.26 30.8591C166.931 41.9543 154.969 52.6493 139.136 59.9971L137.661 59.2393C139.205 42.2009 154.109 28.5181 171.33 21.1035C187.247 12.6503 205.236 7.17009 223.334 5.55297L223.688 7.04646Z" fill="#231F20"/>
<path d="M4.10224 61.0865C22.2954 57.852 40.5098 57.4301 58.0349 59.5385C75.3911 63.2752 92.1927 66.8361 110.807 65.2272L111.774 63.7378C101.267 48.7397 80.1418 43.9715 60.2029 46.2577C40.9223 46.8846 21.3018 51.375 3.6359 59.5111L4.10224 61.0865Z" fill="#231F20"/>
</svg>
